<?xml version="1.0" encoding="utf-8"?>
<!-- Generator: Adobe Illustrator 16.0.0, SVG Export Plug-In . SVG Version: 6.00 Build 0)  -->
<!DOCTYPE svg PUBLIC "-//W3C//DTD SVG 1.1//EN" "http://www.w3.org/Graphics/SVG/1.1/DTD/svg11.dtd">
<svg version="1.1" id="Layer_1" xmlns="http://www.w3.org/2000/svg" xmlns:xlink="http://www.w3.org/1999/xlink" x="0px" y="0px"
	 width="281px" height="320px" viewBox="0 0 281 320" enable-background="new 0 0 281 320" xml:space="preserve">
<g>
	<g>
		<g>
			<rect x="83.772" y="112.537" fill="#FFFFFF" width="103.791" height="203.215"/>
			<path fill="#45929E" d="M187.813,316.002H83.522V112.287h104.291V316.002z M84.022,315.502h103.291V112.787H84.022V315.502z"/>
		</g>
		<g>
			<g>
				<g>
					<g>
						<g>
							<g>
								<rect x="33.392" y="250.119" fill="#FFFFFF" width="50.38" height="65.633"/>
								<path fill="#45929E" d="M84.022,316.002h-50.88v-66.133h50.88V316.002z M33.642,315.502h49.88v-65.133h-49.88V315.502z"/>
							</g>
							<g>
								<rect x="33.392" y="77.387" fill="#FFFFFF" width="50.38" height="116.611"/>
								<path fill="#45929E" d="M84.022,194.248h-50.88V77.137h50.88V194.248z M33.642,193.748h49.88V77.637h-49.88V193.748z"/>
							</g>
							<g>
								<rect x="32.535" y="248.492" fill="#FFFFFF" width="52.094" height="1.627"/>
								<path fill="#45929E" d="M84.879,250.369H32.285v-2.127h52.594V250.369z M32.785,249.869h51.594v-1.127H32.785V249.869z"/>
							</g>
							<g>
								<rect x="32.535" y="245.236" fill="#FFFFFF" width="52.094" height="3.256"/>
								<path fill="#45929E" d="M84.879,248.742H32.285v-3.756h52.594V248.742z M32.785,248.242h51.594v-2.756H32.785V248.242z"/>
							</g>
							<g>
								<rect x="33.392" y="198.883" fill="#FFFFFF" width="50.38" height="46.354"/>
								<path fill="#45929E" d="M84.022,245.486h-50.88v-46.854h50.88V245.486z M33.642,244.986h49.88v-45.854h-49.88V244.986z"/>
							</g>
							<g>
								<rect x="32.535" y="197.254" fill="#FFFFFF" width="52.094" height="1.629"/>
								<path fill="#45929E" d="M84.879,199.133H32.285v-2.129h52.594V199.133z M32.785,198.633h51.594v-1.129H32.785V198.633z"/>
							</g>
							<g>
								<rect x="32.535" y="193.998" fill="#FFFFFF" width="52.094" height="3.256"/>
								<path fill="#45929E" d="M84.879,197.504H32.285v-3.756h52.594V197.504z M32.785,197.004h51.594v-2.756H32.785V197.004z"/>
							</g>
						</g>
						<g>
							<g>
								<path fill="#FFFFFF" d="M58.582,260.283c-1.647,1.037-8.337,5.447-8.337,8.773c0,3.791,0,32.943,0,32.943h16.674
									c0,0,0-29.152,0-32.943C66.919,265.73,60.229,261.32,58.582,260.283z"/>
								<path fill="#45929E" d="M67.169,302.25H49.995v-33.193c0-3.402,6.471-7.738,8.454-8.984l0.133-0.084l0.133,0.084
									c1.983,1.248,8.454,5.582,8.454,8.984V302.25z M50.495,301.75h16.174v-32.693c0-3.133-6.456-7.439-8.087-8.477
									c-1.631,1.037-8.087,5.342-8.087,8.477V301.75z"/>
							</g>
							<g>
								<path fill="#FFFFFF" d="M58.582,262.412c-1.334,0.93-6.754,4.891-6.754,7.877c0,3.404,0,29.584,0,29.584h13.509
									c0,0,0-26.18,0-29.584C65.336,267.303,59.917,263.342,58.582,262.412z"/>
								<path fill="#45929E" d="M65.586,300.123H51.578v-29.834c0-3.064,5.252-6.961,6.861-8.082l0.143-0.1l0.143,0.1
									c1.609,1.121,6.861,5.018,6.861,8.082V300.123z M52.078,299.623h13.009v-29.334c0-2.787-5.13-6.6-6.504-7.572
									c-1.375,0.973-6.504,4.785-6.504,7.572V299.623z"/>
							</g>
							<g>
								<polygon fill="#FFFFFF" points="45.759,257.488 45.759,279.766 47.153,279.766 47.153,258.906 70.011,258.906 
									70.011,279.766 71.405,279.766 71.405,257.488 								"/>
								<path fill="#45929E" d="M71.655,280.016h-1.895v-20.859H47.403v20.859h-1.895v-22.777h26.146V280.016z M70.261,279.516
									h0.895v-21.777H46.009v21.777h0.895v-20.859h23.357V279.516z"/>
							</g>
							<g>
								<polygon fill="#FFFFFF" points="45.246,256.975 45.246,279.766 46.697,279.766 46.697,258.426 70.467,258.426 
									70.467,279.766 71.918,279.766 71.918,256.975 								"/>
								<path fill="#45929E" d="M72.168,280.016h-1.951v-21.34H46.947v21.34h-1.951v-23.291h27.172V280.016z M70.717,279.516h0.951
									v-22.291H45.496v22.291h0.951v-21.34h24.271V279.516z"/>
							</g>
							<g>
								<rect x="51.828" y="275.547" fill="#FFFFFF" width="13.509" height="1.285"/>
								<path fill="#45929E" d="M65.586,277.082H51.578v-1.785h14.009V277.082z M52.078,276.582h13.009v-0.785H52.078V276.582z"/>
							</g>
							<g>
								<rect x="51.828" y="288.783" fill="#FFFFFF" width="13.509" height="1.285"/>
								<path fill="#45929E" d="M65.586,290.318H51.578v-1.785h14.009V290.318z M52.078,289.818h13.009v-0.785H52.078V289.818z"/>
							</g>
							<g>
								<rect x="57.989" y="262.051" fill="#FFFFFF" width="1.185" height="37.822"/>
								<path fill="#45929E" d="M59.424,300.123h-1.685v-38.322h1.685V300.123z M58.239,299.623h0.685v-37.322h-0.685V299.623z"/>
							</g>
						</g>
						<g>
							<g>
								<path fill="#FFFFFF" d="M58.582,146.414c-1.647,1.035-8.337,5.447-8.337,8.771c0,3.791,0,32.943,0,32.943h16.674
									c0,0,0-29.152,0-32.943C66.919,151.861,60.229,147.449,58.582,146.414z"/>
								<path fill="#45929E" d="M67.169,188.379H49.995v-33.193c0-3.402,6.471-7.736,8.454-8.984l0.133-0.082l0.133,0.082
									c1.983,1.248,8.454,5.584,8.454,8.984V188.379z M50.495,187.879h16.174v-32.693c0-3.133-6.456-7.438-8.087-8.477
									c-1.631,1.039-8.087,5.344-8.087,8.477V187.879z"/>
							</g>
							<g>
								<path fill="#FFFFFF" d="M58.582,148.541c-1.334,0.93-6.754,4.891-6.754,7.877c0,3.404,0,29.584,0,29.584h13.509
									c0,0,0-26.18,0-29.584C65.336,153.432,59.917,149.471,58.582,148.541z"/>
								<path fill="#45929E" d="M65.586,186.252H51.578v-29.834c0-3.063,5.252-6.961,6.861-8.082l0.143-0.1l0.143,0.1
									c1.609,1.121,6.861,5.02,6.861,8.082V186.252z M52.078,185.752h13.009v-29.334c0-2.785-5.13-6.6-6.504-7.57
									c-1.375,0.971-6.504,4.785-6.504,7.57V185.752z"/>
							</g>
							<g>
								<polygon fill="#FFFFFF" points="45.759,143.619 45.759,165.895 47.153,165.895 47.153,145.035 70.011,145.035 
									70.011,165.895 71.405,165.895 71.405,143.619 								"/>
								<path fill="#45929E" d="M71.655,166.145h-1.895v-20.859H47.403v20.859h-1.895v-22.775h26.146V166.145z M70.261,165.645
									h0.895v-21.775H46.009v21.775h0.895v-20.859h23.357V165.645z"/>
							</g>
							<g>
								<polygon fill="#FFFFFF" points="45.246,143.104 45.246,165.895 46.697,165.895 46.697,144.555 70.467,144.555 
									70.467,165.895 71.918,165.895 71.918,143.104 								"/>
								<path fill="#45929E" d="M72.168,166.145h-1.951v-21.34H46.947v21.34h-1.951v-23.291h27.172V166.145z M70.717,165.645h0.951
									v-22.291H45.496v22.291h0.951v-21.34h24.271V165.645z"/>
							</g>
							<g>
								<rect x="51.828" y="161.676" fill="#FFFFFF" width="13.509" height="1.285"/>
								<path fill="#45929E" d="M65.586,163.211H51.578v-1.785h14.009V163.211z M52.078,162.711h13.009v-0.785H52.078V162.711z"/>
							</g>
							<g>
								<rect x="51.828" y="174.914" fill="#FFFFFF" width="13.509" height="1.285"/>
								<path fill="#45929E" d="M65.586,176.449H51.578v-1.785h14.009V176.449z M52.078,175.949h13.009v-0.785H52.078V175.949z"/>
							</g>
							<g>
								<rect x="57.989" y="148.182" fill="#FFFFFF" width="1.185" height="37.82"/>
								<path fill="#45929E" d="M59.424,186.252h-1.685v-38.32h1.685V186.252z M58.239,185.752h0.685v-37.32h-0.685V185.752z"/>
							</g>
						</g>
						<g>
							<rect x="39.304" y="206.209" fill="#FFFFFF" width="38.557" height="32.516"/>
							<path fill="#45929E" d="M78.11,238.975H39.054v-33.016H78.11V238.975z M39.554,238.475H77.61v-32.016H39.554V238.475z"/>
						</g>
						<g>
							<rect x="41.59" y="208.137" fill="#FFFFFF" width="33.984" height="28.66"/>
							<path fill="#45929E" d="M75.824,237.047H41.34v-29.16h34.484V237.047z M41.84,236.547h33.484v-28.16H41.84V236.547z"/>
						</g>
						<g>
							<g>
								<rect x="47.665" y="208.137" fill="#FFFFFF" width="1.185" height="28.66"/>
								<path fill="#45929E" d="M49.1,237.047h-1.685v-29.16H49.1V237.047z M47.915,236.547H48.6v-28.16h-0.685V236.547z"/>
							</g>
							<g>
								<rect x="57.989" y="208.137" fill="#FFFFFF" width="1.185" height="28.66"/>
								<path fill="#45929E" d="M59.424,237.047h-1.685v-29.16h1.685V237.047z M58.239,236.547h0.685v-28.16h-0.685V236.547z"/>
							</g>
							<g>
								<rect x="68.314" y="208.137" fill="#FFFFFF" width="1.185" height="28.66"/>
								<path fill="#45929E" d="M69.749,237.047h-1.685v-29.16h1.685V237.047z M68.564,236.547h0.685v-28.16h-0.685V236.547z"/>
							</g>
						</g>
						<g>
							<g>
								<path fill="#FFFFFF" d="M42.604,128.104h1.197c0,0-2.267-7.625-2.309-9.867c-0.514,0.225-2.224-0.598-2.823-1.346
									c-0.599,0.748-2.31,1.57-2.823,1.346c-0.042,2.242-2.309,9.867-2.309,9.867h1.197v3.139h-0.77v0.896c0,0,0,0,0,2.842
									c1.154,3.363,4.704,3.064,4.704,3.064s3.549,0.299,4.704-3.064c0-2.842,0-2.842,0-2.842v-0.896h-0.77V128.104z"/>
								<path fill="#45929E" d="M38.892,138.301L38.892,138.301c-0.124,0-0.206-0.004-0.233-0.006
									c-0.006,0.002-0.087,0.006-0.211,0.006c-0.846,0-3.687-0.232-4.718-3.24l-0.014-0.08v-3.988h0.77v-2.639h-1.282l0.095-0.322
									c0.022-0.076,2.257-7.617,2.299-9.801l0.007-0.373l0.343,0.148c0.012,0.006,0.046,0.018,0.119,0.018
									c0.568,0,1.91-0.666,2.408-1.289l0.195-0.242l0.195,0.242c0.499,0.623,1.84,1.289,2.408,1.289
									c0.073,0,0.108-0.012,0.12-0.018l0.343-0.148l0.007,0.373c0.042,2.184,2.276,9.725,2.299,9.801l0.095,0.322h-1.282v2.639
									h0.77l-0.014,4.068C42.578,138.068,39.738,138.301,38.892,138.301z M38.649,137.795c0.046,0,0.119,0.006,0.243,0.006
									c0.758,0,3.296-0.207,4.232-2.863v-3.445h-0.77v-3.639h1.113c-0.417-1.428-2.039-7.082-2.211-9.33
									c-0.696-0.01-1.937-0.631-2.587-1.264c-0.65,0.633-1.891,1.254-2.587,1.264c-0.172,2.248-1.793,7.902-2.211,9.33h1.113
									v3.639h-0.77v3.445c0.936,2.656,3.474,2.863,4.232,2.863C38.571,137.801,38.644,137.795,38.649,137.795z"/>
							</g>
							<g>
								<path fill="#FFFFFF" d="M55.879,128.104h1.197c0,0-2.267-7.625-2.309-9.867c-0.513,0.225-2.224-0.598-2.823-1.346
									c-0.599,0.748-2.309,1.57-2.823,1.346c-0.042,2.242-2.309,9.867-2.309,9.867h1.197v3.139h-0.77v0.896c0,0,0,0,0,2.842
									c1.154,3.363,4.704,3.064,4.704,3.064s3.55,0.299,4.704-3.064c0-2.842,0-2.842,0-2.842v-0.896h-0.77V128.104z"/>
								<path fill="#45929E" d="M52.167,138.301L52.167,138.301c-0.124,0-0.206-0.004-0.233-0.006
									c-0.006,0.002-0.087,0.006-0.211,0.006c-0.846,0-3.687-0.232-4.718-3.24l-0.014-0.08v-3.988h0.77v-2.639h-1.282l0.095-0.322
									c0.022-0.076,2.257-7.617,2.299-9.801l0.007-0.373l0.343,0.148c0.012,0.006,0.046,0.018,0.12,0.018
									c0.568,0,1.909-0.666,2.408-1.289l0.195-0.242l0.195,0.242c0.499,0.623,1.84,1.289,2.408,1.289
									c0.073,0,0.107-0.012,0.119-0.018l0.343-0.148l0.007,0.373c0.042,2.184,2.276,9.725,2.299,9.801l0.095,0.322h-1.282v2.639
									h0.77l-0.014,4.068C55.853,138.068,53.013,138.301,52.167,138.301z M51.924,137.795c0.046,0,0.119,0.006,0.243,0.006
									c0.758,0,3.296-0.207,4.232-2.863v-3.445h-0.77v-3.639h1.113c-0.417-1.428-2.039-7.082-2.211-9.33
									c-0.696-0.01-1.937-0.631-2.587-1.264c-0.65,0.633-1.891,1.254-2.587,1.264c-0.172,2.248-1.793,7.902-2.211,9.33h1.113
									v3.639h-0.77v3.445c0.936,2.656,3.474,2.863,4.232,2.863C51.846,137.801,51.918,137.795,51.924,137.795z"/>
							</g>
							<g>
								<path fill="#FFFFFF" d="M69.154,128.104h1.198c0,0-2.267-7.625-2.31-9.867c-0.513,0.225-2.224-0.598-2.822-1.346
									c-0.599,0.748-2.31,1.57-2.823,1.346c-0.042,2.242-2.31,9.867-2.31,9.867h1.198v3.139h-0.77v0.896c0,0,0,0,0,2.842
									c1.155,3.363,4.705,3.064,4.705,3.064s3.549,0.299,4.704-3.064c0-2.842,0-2.842,0-2.842v-0.896h-0.77V128.104z"/>
								<path fill="#45929E" d="M65.442,138.301L65.442,138.301c-0.124,0-0.206-0.004-0.233-0.006
									c-0.006,0.002-0.087,0.006-0.211,0.006c-0.846,0-3.687-0.232-4.719-3.24l-0.014-0.08v-3.988h0.77v-2.639h-1.283l0.095-0.322
									c0.022-0.076,2.258-7.617,2.299-9.801l0.007-0.373l0.343,0.148c0.012,0.006,0.046,0.018,0.119,0.018
									c0.568,0,1.91-0.666,2.409-1.289l0.195-0.242l0.195,0.242c0.499,0.623,1.839,1.289,2.408,1.289
									c0.073,0,0.107-0.012,0.119-0.018l0.343-0.148l0.007,0.373c0.042,2.184,2.277,9.725,2.299,9.801l0.095,0.322h-1.283v2.639
									h0.77l-0.014,4.068C69.128,138.068,66.288,138.301,65.442,138.301z M65.199,137.795c0.046,0,0.119,0.006,0.243,0.006
									c0.758,0,3.296-0.207,4.232-2.863v-3.445h-0.77v-3.639h1.114c-0.417-1.428-2.039-7.082-2.211-9.33
									c-0.696-0.01-1.937-0.631-2.586-1.264c-0.65,0.633-1.891,1.254-2.587,1.264c-0.173,2.248-1.794,7.902-2.211,9.33h1.114
									v3.639h-0.77v3.445c0.936,2.656,3.474,2.863,4.232,2.863C65.121,137.801,65.194,137.795,65.199,137.795z"/>
							</g>
							<g>
								<path fill="#FFFFFF" d="M82.429,128.104h1.197c0,0-2.267-7.625-2.31-9.867c-0.513,0.225-2.224-0.598-2.822-1.346
									c-0.599,0.748-2.31,1.57-2.823,1.346c-0.042,2.242-2.31,9.867-2.31,9.867h1.198v3.139h-0.77v0.896c0,0,0,0,0,2.842
									c1.155,3.363,4.705,3.064,4.705,3.064s3.55,0.299,4.704-3.064c0-2.842,0-2.842,0-2.842v-0.896h-0.77V128.104z"/>
								<path fill="#45929E" d="M78.717,138.301L78.717,138.301c-0.124,0-0.206-0.004-0.233-0.006
									c-0.006,0.002-0.087,0.006-0.211,0.006c-0.846,0-3.687-0.232-4.719-3.24l-0.014-0.08v-3.988h0.77v-2.639h-1.283l0.095-0.322
									c0.022-0.076,2.258-7.617,2.299-9.801l0.007-0.373l0.343,0.148c0.012,0.006,0.046,0.018,0.119,0.018
									c0.568,0,1.91-0.666,2.408-1.289l0.195-0.242l0.195,0.242c0.499,0.623,1.84,1.289,2.408,1.289
									c0.073,0,0.107-0.012,0.119-0.016l0.343-0.15l0.007,0.373c0.042,2.184,2.277,9.725,2.299,9.801l0.095,0.322h-1.282v2.639
									h0.77l-0.014,4.068C82.403,138.068,79.563,138.301,78.717,138.301z M78.474,137.795c0.046,0,0.119,0.006,0.243,0.006
									c0.758,0,3.296-0.207,4.232-2.863v-3.445h-0.77v-3.639h1.113c-0.417-1.428-2.039-7.082-2.211-9.33
									c-0.696-0.01-1.937-0.631-2.586-1.264c-0.65,0.633-1.891,1.254-2.587,1.264c-0.173,2.248-1.794,7.902-2.211,9.33h1.114
									v3.639h-0.77v3.445c0.936,2.656,3.474,2.863,4.232,2.863C78.396,137.801,78.469,137.795,78.474,137.795z"/>
							</g>
						</g>
						<g>
							<g>
								<g>
									<circle fill="#FFFFFF" cx="45.246" cy="121.576" r="2.378"/>
									<path fill="#45929E" d="M45.246,124.205c-1.449,0-2.627-1.18-2.627-2.629c0-1.447,1.179-2.627,2.627-2.627
										c1.449,0,2.628,1.18,2.628,2.627C47.874,123.025,46.695,124.205,45.246,124.205z M45.246,119.449
										c-1.173,0-2.127,0.955-2.127,2.127c0,1.174,0.955,2.129,2.127,2.129c1.173,0,2.128-0.955,2.128-2.129
										C47.374,120.404,46.419,119.449,45.246,119.449z"/>
								</g>
								<g>
									<circle fill="#FFFFFF" cx="45.246" cy="121.576" r="1.416"/>
									<path fill="#45929E" d="M45.246,123.242c-0.918,0-1.666-0.746-1.666-1.666c0-0.918,0.748-1.666,1.666-1.666
										s1.666,0.748,1.666,1.666C46.912,122.496,46.165,123.242,45.246,123.242z M45.246,120.41c-0.643,0-1.166,0.523-1.166,1.166
										s0.523,1.166,1.166,1.166s1.166-0.523,1.166-1.166S45.889,120.41,45.246,120.41z"/>
								</g>
							</g>
							<g>
								<g>
									<circle fill="#FFFFFF" cx="58.582" cy="121.576" r="2.378"/>
									<path fill="#45929E" d="M58.582,124.205c-1.449,0-2.628-1.18-2.628-2.629s1.179-2.627,2.628-2.627
										c1.449,0,2.627,1.178,2.627,2.627S60.031,124.205,58.582,124.205z M58.582,119.449c-1.173,0-2.128,0.953-2.128,2.127
										s0.955,2.129,2.128,2.129c1.173,0,2.127-0.955,2.127-2.129S59.755,119.449,58.582,119.449z"/>
								</g>
								<g>
									<circle fill="#FFFFFF" cx="58.582" cy="121.576" r="1.416"/>
									<path fill="#45929E" d="M58.582,123.242c-0.918,0-1.666-0.746-1.666-1.666c0-0.918,0.748-1.666,1.666-1.666
										s1.666,0.748,1.666,1.666C60.248,122.496,59.5,123.242,58.582,123.242z M58.582,120.41c-0.643,0-1.166,0.523-1.166,1.166
										s0.523,1.166,1.166,1.166s1.166-0.523,1.166-1.166S59.225,120.41,58.582,120.41z"/>
								</g>
							</g>
							<g>
								<g>
									<circle fill="#FFFFFF" cx="71.918" cy="121.576" r="2.378"/>
									<path fill="#45929E" d="M71.917,124.205c-1.449,0-2.627-1.18-2.627-2.629s1.179-2.627,2.627-2.627
										c1.449,0,2.628,1.178,2.628,2.627S73.367,124.205,71.917,124.205z M71.917,119.449c-1.173,0-2.127,0.953-2.127,2.127
										s0.955,2.129,2.127,2.129c1.173,0,2.128-0.955,2.128-2.129S73.091,119.449,71.917,119.449z"/>
								</g>
								<g>
									<circle fill="#FFFFFF" cx="71.917" cy="121.576" r="1.416"/>
									<path fill="#45929E" d="M71.917,123.242c-0.918,0-1.666-0.746-1.666-1.666c0-0.918,0.748-1.666,1.666-1.666
										s1.666,0.748,1.666,1.666C73.583,122.496,72.836,123.242,71.917,123.242z M71.917,120.41c-0.643,0-1.166,0.523-1.166,1.166
										s0.523,1.166,1.166,1.166s1.166-0.523,1.166-1.166S72.561,120.41,71.917,120.41z"/>
								</g>
							</g>
						</g>
						<g>
							<rect x="29.959" y="75.244" fill="#FFFFFF" width="57.246" height="2.143"/>
							<path fill="#45929E" d="M87.455,77.637H29.709v-2.643h57.746V77.637z M30.209,77.137h56.746v-1.643H30.209V77.137z"/>
						</g>
						<g>
							<rect x="28.545" y="73.104" fill="#FFFFFF" width="60.073" height="2.141"/>
							<path fill="#45929E" d="M88.868,75.494H28.295v-2.641h60.573V75.494z M28.795,74.994h59.573v-1.641H28.795V74.994z"/>
						</g>
					</g>
					<g>
						<rect x="33.392" y="27.435" fill="#FFFFFF" width="50.38" height="45.669"/>
						<path fill="#45929E" d="M84.022,73.354h-50.88V27.185h50.88V73.354z M33.642,72.854h49.88V27.685h-49.88V72.854z"/>
					</g>
					<g>
						<rect x="48.474" y="27.435" fill="#FFFFFF" width="20.215" height="45.669"/>
						<path fill="#45929E" d="M68.939,73.354H48.224V27.185h20.715V73.354z M48.724,72.854h19.715V27.685H48.724V72.854z"/>
					</g>
					<g>
						<rect x="50.264" y="29.234" fill="#FFFFFF" width="16.635" height="8.354"/>
						<path fill="#45929E" d="M67.149,37.837H50.014v-8.854h17.135V37.837z M50.514,37.337h16.135v-7.854H50.514V37.337z"/>
					</g>
					<g>
						<g>
							<g>
								<polygon fill="#FFFFFF" points="55.739,45.942 55.739,41.829 54.197,41.829 52.655,41.829 52.655,45.942 50.52,45.942 
									50.52,67.148 54.197,67.148 57.874,67.148 57.874,45.942 								"/>
								<path fill="#45929E" d="M58.124,67.398H50.27V45.692h2.135v-4.113h3.584v4.113h2.134V67.398z M50.77,66.898h6.854V46.192
									h-2.134v-4.113h-2.584v4.113H50.77V66.898z"/>
							</g>
							<g>
								<polygon fill="#FFFFFF" points="64.509,45.942 64.509,41.829 62.967,41.829 61.425,41.829 61.425,45.942 59.29,45.942 
									59.29,67.148 62.967,67.148 66.644,67.148 66.644,45.942 								"/>
								<path fill="#45929E" d="M66.894,67.398H59.04V45.692h2.135v-4.113h3.584v4.113h2.135V67.398z M59.54,66.898h6.854V46.192
									h-2.135v-4.113h-2.584v4.113H59.54V66.898z"/>
							</g>
						</g>
						<g>
							<g>
								<rect x="70.224" y="29.234" fill="#FFFFFF" width="12.517" height="8.354"/>
								<path fill="#45929E" d="M82.991,37.837H69.974v-8.854h13.017V37.837z M70.474,37.337h12.017v-7.854H70.474V37.337z"/>
							</g>
							<g>
								<g>
									<polygon fill="#FFFFFF" points="74.343,45.942 74.343,41.829 73.183,41.829 72.022,41.829 72.022,45.942 70.416,45.942 
										70.416,67.148 73.183,67.148 75.949,67.148 75.949,45.942 									"/>
									<path fill="#45929E" d="M76.199,67.398h-6.033V45.692h1.606v-4.113h2.821v4.113h1.606V67.398z M70.666,66.898h5.033V46.192
										h-1.606v-4.113h-1.821v4.113h-1.606V66.898z"/>
								</g>
								<g>
									<polygon fill="#FFFFFF" points="80.942,45.942 80.942,41.829 79.782,41.829 78.621,41.829 78.621,45.942 77.015,45.942 
										77.015,67.148 79.782,67.148 82.548,67.148 82.548,45.942 									"/>
									<path fill="#45929E" d="M82.798,67.398h-6.034V45.692h1.606v-4.113h2.821v4.113h1.606V67.398z M77.265,66.898h5.034V46.192
										h-1.606v-4.113h-1.821v4.113h-1.606V66.898z"/>
								</g>
							</g>
						</g>
						<g>
							<g>
								<rect x="34.423" y="29.234" fill="#FFFFFF" width="12.517" height="8.354"/>
								<path fill="#45929E" d="M47.19,37.837H34.173v-8.854H47.19V37.837z M34.673,37.337H46.69v-7.854H34.673V37.337z"/>
							</g>
							<g>
								<g>
									<polygon fill="#FFFFFF" points="38.542,45.942 38.542,41.829 37.382,41.829 36.222,41.829 36.222,45.942 34.615,45.942 
										34.615,67.148 37.382,67.148 40.149,67.148 40.149,45.942 									"/>
									<path fill="#45929E" d="M40.399,67.398h-6.034V45.692h1.606v-4.113h2.821v4.113h1.606V67.398z M34.865,66.898h5.034V46.192
										h-1.606v-4.113h-1.821v4.113h-1.606V66.898z"/>
								</g>
								<g>
									<polygon fill="#FFFFFF" points="45.142,45.942 45.142,41.829 43.981,41.829 42.82,41.829 42.82,45.942 41.214,45.942 
										41.214,67.148 43.981,67.148 46.748,67.148 46.748,45.942 									"/>
									<path fill="#45929E" d="M46.998,67.398h-6.033V45.692h1.606v-4.113h2.821v4.113h1.606V67.398z M41.464,66.898h5.033V46.192
										h-1.606v-4.113H43.07v4.113h-1.606V66.898z"/>
								</g>
							</g>
						</g>
					</g>
				</g>
				<g>
					<rect x="33.392" y="14.497" fill="#FFFFFF" width="3.99" height="12.938"/>
					<path fill="#45929E" d="M37.632,27.685h-4.49V14.247h4.49V27.685z M33.642,27.185h3.49V14.747h-3.49V27.185z"/>
				</g>
				<g>
					<rect x="79.782" y="14.497" fill="#FFFFFF" width="3.99" height="12.938"/>
					<path fill="#45929E" d="M84.022,27.685h-4.49V14.247h4.49V27.685z M80.032,27.185h3.49V14.747h-3.49V27.185z"/>
				</g>
				<g>
					<rect x="68.689" y="14.497" fill="#FFFFFF" width="3.991" height="12.938"/>
					<path fill="#45929E" d="M72.93,27.685h-4.491V14.247h4.491V27.685z M68.939,27.185h3.491V14.747h-3.491V27.185z"/>
				</g>
				<g>
					<rect x="44.483" y="14.497" fill="#FFFFFF" width="3.991" height="12.938"/>
					<path fill="#45929E" d="M48.724,27.685h-4.491V14.247h4.491V27.685z M44.733,27.185h3.491V14.747h-3.491V27.185z"/>
				</g>
				<g>
					<rect x="64.699" y="14.497" fill="#FFFFFF" width="3.99" height="12.938"/>
					<path fill="#45929E" d="M68.939,27.685h-4.49V14.247h4.49V27.685z M64.949,27.185h3.49V14.747h-3.49V27.185z"/>
				</g>
				<g>
					<rect x="48.474" y="14.497" fill="#FFFFFF" width="3.99" height="12.938"/>
					<path fill="#45929E" d="M52.714,27.685h-4.49V14.247h4.49V27.685z M48.724,27.185h3.49V14.747h-3.49V27.185z"/>
				</g>
				<g>
					<rect x="56.586" y="20.494" fill="#FFFFFF" width="3.991" height="6.94"/>
					<path fill="#45929E" d="M60.827,27.685h-4.491v-7.44h4.491V27.685z M56.836,27.185h3.491v-6.44h-3.491V27.185z"/>
				</g>
				<g>
					<rect x="38.943" y="20.494" fill="#FFFFFF" width="3.99" height="6.94"/>
					<path fill="#45929E" d="M43.184,27.685h-4.49v-7.44h4.49V27.685z M39.193,27.185h3.49v-6.44h-3.49V27.185z"/>
				</g>
				<g>
					<rect x="74.23" y="20.494" fill="#FFFFFF" width="3.99" height="6.94"/>
					<path fill="#45929E" d="M78.47,27.685h-4.49v-7.44h4.49V27.685z M74.48,27.185h3.49v-6.44h-3.49V27.185z"/>
				</g>
			</g>
			<g>
				<g>
					<rect x="44.483" y="13.554" fill="#FFFFFF" width="7.981" height="0.942"/>
					<path fill="#45929E" d="M52.714,14.747h-8.481v-1.442h8.481V14.747z M44.733,14.247h7.481v-0.442h-7.481V14.247z"/>
				</g>
				<g>
					<rect x="44.483" y="7.835" fill="#FFFFFF" width="1.226" height="5.719"/>
					<path fill="#45929E" d="M45.959,13.804h-1.726V7.585h1.726V13.804z M44.733,13.304h0.726V8.085h-0.726V13.304z"/>
				</g>
				<g>
					<rect x="46.172" y="7.835" fill="#FFFFFF" width="1.226" height="5.719"/>
					<path fill="#45929E" d="M47.648,13.804h-1.726V7.585h1.726V13.804z M46.422,13.304h0.726V8.085h-0.726V13.304z"/>
				</g>
				<g>
					<rect x="47.861" y="7.835" fill="#FFFFFF" width="1.226" height="5.719"/>
					<path fill="#45929E" d="M49.337,13.804h-1.726V7.585h1.726V13.804z M48.111,13.304h0.726V8.085h-0.726V13.304z"/>
				</g>
				<g>
					<rect x="49.55" y="7.835" fill="#FFFFFF" width="1.226" height="5.719"/>
					<path fill="#45929E" d="M51.026,13.804H49.3V7.585h1.726V13.804z M49.8,13.304h0.726V8.085H49.8V13.304z"/>
				</g>
				<g>
					<rect x="51.239" y="7.835" fill="#FFFFFF" width="1.226" height="5.719"/>
					<path fill="#45929E" d="M52.714,13.804h-1.726V7.585h1.726V13.804z M51.489,13.304h0.726V8.085h-0.726V13.304z"/>
				</g>
			</g>
			<g>
				<g>
					<rect x="64.699" y="13.554" fill="#FFFFFF" width="7.981" height="0.942"/>
					<path fill="#45929E" d="M72.93,14.747h-8.481v-1.442h8.481V14.747z M64.949,14.247h7.481v-0.442h-7.481V14.247z"/>
				</g>
				<g>
					<rect x="64.699" y="7.835" fill="#FFFFFF" width="1.226" height="5.719"/>
					<path fill="#45929E" d="M66.175,13.804h-1.726V7.585h1.726V13.804z M64.949,13.304h0.726V8.085h-0.726V13.304z"/>
				</g>
				<g>
					<rect x="66.388" y="7.835" fill="#FFFFFF" width="1.226" height="5.719"/>
					<path fill="#45929E" d="M67.864,13.804h-1.726V7.585h1.726V13.804z M66.638,13.304h0.726V8.085h-0.726V13.304z"/>
				</g>
				<g>
					<rect x="68.077" y="7.835" fill="#FFFFFF" width="1.226" height="5.719"/>
					<path fill="#45929E" d="M69.553,13.804h-1.726V7.585h1.726V13.804z M68.327,13.304h0.726V8.085h-0.726V13.304z"/>
				</g>
				<g>
					<rect x="69.765" y="7.835" fill="#FFFFFF" width="1.226" height="5.719"/>
					<path fill="#45929E" d="M71.241,13.804h-1.726V7.585h1.726V13.804z M70.015,13.304h0.726V8.085h-0.726V13.304z"/>
				</g>
				<g>
					<rect x="71.454" y="7.835" fill="#FFFFFF" width="1.226" height="5.719"/>
					<path fill="#45929E" d="M72.93,13.804h-1.726V7.585h1.726V13.804z M71.704,13.304h0.726V8.085h-0.726V13.304z"/>
				</g>
			</g>
			<g>
				<g>
					<rect x="79.782" y="13.554" fill="#FFFFFF" width="3.99" height="0.942"/>
					<path fill="#45929E" d="M84.022,14.747h-4.49v-1.442h4.49V14.747z M80.032,14.247h3.49v-0.442h-3.49V14.247z"/>
				</g>
				<g>
					<rect x="79.782" y="7.835" fill="#FFFFFF" width="0.613" height="5.719"/>
					<path fill="#45929E" d="M80.645,13.804h-1.113V7.585h1.113V13.804z M80.032,13.304h0.113V8.085h-0.113V13.304z"/>
				</g>
				<g>
					<rect x="80.626" y="7.835" fill="#FFFFFF" width="0.613" height="5.719"/>
					<path fill="#45929E" d="M81.489,13.804h-1.113V7.585h1.113V13.804z M80.876,13.304h0.113V8.085h-0.113V13.304z"/>
				</g>
				<g>
					<rect x="81.47" y="7.835" fill="#FFFFFF" width="0.613" height="5.719"/>
					<path fill="#45929E" d="M82.333,13.804H81.22V7.585h1.113V13.804z M81.72,13.304h0.113V8.085H81.72V13.304z"/>
				</g>
				<g>
					<rect x="82.315" y="7.835" fill="#FFFFFF" width="0.613" height="5.719"/>
					<path fill="#45929E" d="M83.178,13.804h-1.113V7.585h1.113V13.804z M82.565,13.304h0.113V8.085h-0.113V13.304z"/>
				</g>
				<g>
					<rect x="83.159" y="7.835" fill="#FFFFFF" width="0.613" height="5.719"/>
					<path fill="#45929E" d="M84.022,13.804h-1.113V7.585h1.113V13.804z M83.409,13.304h0.113V8.085h-0.113V13.304z"/>
				</g>
			</g>
			<g>
				<g>
					<rect x="33.392" y="13.554" fill="#FFFFFF" width="3.99" height="0.942"/>
					<path fill="#45929E" d="M37.632,14.747h-4.49v-1.442h4.49V14.747z M33.642,14.247h3.49v-0.442h-3.49V14.247z"/>
				</g>
				<g>
					<rect x="33.392" y="7.835" fill="#FFFFFF" width="0.613" height="5.719"/>
					<path fill="#45929E" d="M34.254,13.804h-1.113V7.585h1.113V13.804z M33.642,13.304h0.113V8.085h-0.113V13.304z"/>
				</g>
				<g>
					<rect x="34.236" y="7.835" fill="#FFFFFF" width="0.613" height="5.719"/>
					<path fill="#45929E" d="M35.099,13.804h-1.113V7.585h1.113V13.804z M34.486,13.304h0.113V8.085h-0.113V13.304z"/>
				</g>
				<g>
					<rect x="35.08" y="7.835" fill="#FFFFFF" width="0.613" height="5.719"/>
					<path fill="#45929E" d="M35.943,13.804H34.83V7.585h1.113V13.804z M35.33,13.304h0.113V8.085H35.33V13.304z"/>
				</g>
				<g>
					<rect x="35.925" y="7.835" fill="#FFFFFF" width="0.613" height="5.719"/>
					<path fill="#45929E" d="M36.788,13.804h-1.113V7.585h1.113V13.804z M36.175,13.304h0.113V8.085h-0.113V13.304z"/>
				</g>
				<g>
					<rect x="36.769" y="7.835" fill="#FFFFFF" width="0.613" height="5.719"/>
					<path fill="#45929E" d="M37.632,13.804h-1.113V7.585h1.113V13.804z M37.019,13.304h0.113V8.085h-0.113V13.304z"/>
				</g>
			</g>
		</g>
		<g>
			<g>
				<g>
					<g>
						<g>
							<g>
								<rect x="187.563" y="250.119" fill="#FFFFFF" width="50.381" height="65.633"/>
								<path fill="#45929E" d="M238.193,316.002h-50.881v-66.133h50.881V316.002z M187.813,315.502h49.881v-65.133h-49.881V315.502
									z"/>
							</g>
							<g>
								<rect x="187.563" y="77.387" fill="#FFFFFF" width="50.381" height="116.611"/>
								<path fill="#45929E" d="M238.193,194.248h-50.881V77.137h50.881V194.248z M187.813,193.748h49.881V77.637h-49.881V193.748z"
									/>
							</g>
							<g>
								<rect x="186.705" y="248.492" fill="#FFFFFF" width="52.095" height="1.627"/>
								<path fill="#45929E" d="M239.05,250.369h-52.595v-2.127h52.595V250.369z M186.955,249.869h51.595v-1.127h-51.595V249.869z"
									/>
							</g>
							<g>
								<rect x="186.705" y="245.236" fill="#FFFFFF" width="52.095" height="3.256"/>
								<path fill="#45929E" d="M239.05,248.742h-52.595v-3.756h52.595V248.742z M186.955,248.242h51.595v-2.756h-51.595V248.242z"
									/>
							</g>
							<g>
								<rect x="187.563" y="198.883" fill="#FFFFFF" width="50.381" height="46.354"/>
								<path fill="#45929E" d="M238.193,245.486h-50.881v-46.854h50.881V245.486z M187.813,244.986h49.881v-45.854h-49.881V244.986
									z"/>
							</g>
							<g>
								<rect x="186.705" y="197.254" fill="#FFFFFF" width="52.095" height="1.629"/>
								<path fill="#45929E" d="M239.05,199.133h-52.595v-2.129h52.595V199.133z M186.955,198.633h51.595v-1.129h-51.595V198.633z"
									/>
							</g>
							<g>
								<rect x="186.705" y="193.998" fill="#FFFFFF" width="52.095" height="3.256"/>
								<path fill="#45929E" d="M239.05,197.504h-52.595v-3.756h52.595V197.504z M186.955,197.004h51.595v-2.756h-51.595V197.004z"
									/>
							</g>
						</g>
						<g>
							<g>
								<path fill="#FFFFFF" d="M212.752,260.283c-1.646,1.037-8.336,5.447-8.336,8.773c0,3.791,0,32.943,0,32.943h16.674
									c0,0,0-29.152,0-32.943C221.09,265.73,214.4,261.32,212.752,260.283z"/>
								<path fill="#45929E" d="M221.34,302.25h-17.174v-33.193c0-3.402,6.471-7.736,8.453-8.984l0.133-0.084l0.134,0.084
									c1.983,1.246,8.454,5.582,8.454,8.984V302.25z M204.666,301.75h16.174v-32.693c0-3.135-6.456-7.439-8.088-8.477
									c-1.631,1.037-8.086,5.344-8.086,8.477V301.75z"/>
							</g>
							<g>
								<path fill="#FFFFFF" d="M212.752,262.412c-1.334,0.93-6.754,4.891-6.754,7.877c0,3.404,0,29.584,0,29.584h13.51
									c0,0,0-26.18,0-29.584C219.508,267.303,214.088,263.342,212.752,262.412z"/>
								<path fill="#45929E" d="M219.758,300.123h-14.01v-29.834c0-3.064,5.252-6.961,6.861-8.082l0.143-0.1l0.144,0.1
									c1.609,1.121,6.862,5.016,6.862,8.082V300.123z M206.248,299.623h13.01v-29.334c0-2.787-5.131-6.602-6.506-7.572
									c-1.374,0.973-6.504,4.785-6.504,7.572V299.623z"/>
							</g>
							<g>
								<polygon fill="#FFFFFF" points="199.93,257.488 199.93,279.766 201.324,279.766 201.324,258.906 224.182,258.906 
									224.182,279.766 225.576,279.766 225.576,257.488 								"/>
								<path fill="#45929E" d="M225.826,280.016h-1.895v-20.859h-22.357v20.859h-1.895v-22.777h26.146V280.016z M224.432,279.516
									h0.895v-21.777H200.18v21.777h0.895v-20.859h23.357V279.516z"/>
							</g>
							<g>
								<polygon fill="#FFFFFF" points="199.417,256.975 199.417,279.766 200.867,279.766 200.867,258.426 224.638,258.426 
									224.638,279.766 226.088,279.766 226.088,256.975 								"/>
								<path fill="#45929E" d="M226.338,280.016h-1.95v-21.34h-23.271v21.34h-1.95v-23.291h27.171V280.016z M224.888,279.516h0.95
									v-22.291h-26.171v22.291h0.95v-21.34h24.271V279.516z"/>
							</g>
							<g>
								<rect x="205.998" y="275.547" fill="#FFFFFF" width="13.51" height="1.285"/>
								<path fill="#45929E" d="M219.758,277.082h-14.01v-1.785h14.01V277.082z M206.248,276.582h13.01v-0.785h-13.01V276.582z"/>
							</g>
							<g>
								<rect x="205.998" y="288.783" fill="#FFFFFF" width="13.51" height="1.285"/>
								<path fill="#45929E" d="M219.758,290.318h-14.01v-1.785h14.01V290.318z M206.248,289.818h13.01v-0.785h-13.01V289.818z"/>
							</g>
							<g>
								<rect x="212.16" y="262.051" fill="#FFFFFF" width="1.186" height="37.822"/>
								<path fill="#45929E" d="M213.596,300.123h-1.686v-38.322h1.686V300.123z M212.41,299.623h0.686v-37.322h-0.686V299.623z"/>
							</g>
						</g>
						<g>
							<g>
								<path fill="#FFFFFF" d="M212.752,146.414c-1.646,1.035-8.336,5.447-8.336,8.771c0,3.791,0,32.943,0,32.943h16.674
									c0,0,0-29.152,0-32.943C221.09,151.861,214.4,147.449,212.752,146.414z"/>
								<path fill="#45929E" d="M221.34,188.379h-17.174v-33.193c0-3.4,6.471-7.736,8.453-8.984l0.133-0.082l0.134,0.082
									c1.983,1.248,8.454,5.582,8.454,8.984V188.379z M204.666,187.879h16.174v-32.693c0-3.133-6.456-7.438-8.088-8.477
									c-1.631,1.039-8.086,5.344-8.086,8.477V187.879z"/>
							</g>
							<g>
								<path fill="#FFFFFF" d="M212.752,148.541c-1.334,0.93-6.754,4.891-6.754,7.877c0,3.404,0,29.584,0,29.584h13.51
									c0,0,0-26.18,0-29.584C219.508,153.432,214.088,149.471,212.752,148.541z"/>
								<path fill="#45929E" d="M219.758,186.252h-14.01v-29.834c0-3.063,5.252-6.961,6.861-8.082l0.143-0.1l0.144,0.1
									c1.609,1.121,6.862,5.018,6.862,8.082V186.252z M206.248,185.752h13.01v-29.334c0-2.787-5.131-6.6-6.506-7.57
									c-1.374,0.971-6.504,4.785-6.504,7.57V185.752z"/>
							</g>
							<g>
								<polygon fill="#FFFFFF" points="199.93,143.619 199.93,165.895 201.324,165.895 201.324,145.035 224.182,145.035 
									224.182,165.895 225.576,165.895 225.576,143.619 								"/>
								<path fill="#45929E" d="M225.826,166.145h-1.895v-20.859h-22.357v20.859h-1.895v-22.775h26.146V166.145z M224.432,165.645
									h0.895v-21.775H200.18v21.775h0.895v-20.859h23.357V165.645z"/>
							</g>
							<g>
								<polygon fill="#FFFFFF" points="199.417,143.104 199.417,165.895 200.867,165.895 200.867,144.555 224.638,144.555 
									224.638,165.895 226.088,165.895 226.088,143.104 								"/>
								<path fill="#45929E" d="M226.338,166.145h-1.95v-21.34h-23.271v21.34h-1.95v-23.291h27.171V166.145z M224.888,165.645h0.95
									v-22.291h-26.171v22.291h0.95v-21.34h24.271V165.645z"/>
							</g>
							<g>
								<rect x="205.998" y="161.676" fill="#FFFFFF" width="13.51" height="1.285"/>
								<path fill="#45929E" d="M219.758,163.211h-14.01v-1.785h14.01V163.211z M206.248,162.711h13.01v-0.785h-13.01V162.711z"/>
							</g>
							<g>
								<rect x="205.998" y="174.914" fill="#FFFFFF" width="13.51" height="1.285"/>
								<path fill="#45929E" d="M219.758,176.449h-14.01v-1.785h14.01V176.449z M206.248,175.949h13.01v-0.785h-13.01V175.949z"/>
							</g>
							<g>
								<rect x="212.16" y="148.182" fill="#FFFFFF" width="1.186" height="37.82"/>
								<path fill="#45929E" d="M213.596,186.252h-1.686v-38.32h1.686V186.252z M212.41,185.752h0.686v-37.32h-0.686V185.752z"/>
							</g>
						</g>
						<g>
							<rect x="193.475" y="206.209" fill="#FFFFFF" width="38.557" height="32.516"/>
							<path fill="#45929E" d="M232.281,238.975h-39.057v-33.016h39.057V238.975z M193.725,238.475h38.057v-32.016h-38.057V238.475z
								"/>
						</g>
						<g>
							<rect x="195.76" y="208.137" fill="#FFFFFF" width="33.984" height="28.66"/>
							<path fill="#45929E" d="M229.994,237.047H195.51v-29.16h34.484V237.047z M196.01,236.547h33.484v-28.16H196.01V236.547z"/>
						</g>
						<g>
							<g>
								<rect x="201.836" y="208.137" fill="#FFFFFF" width="1.185" height="28.66"/>
								<path fill="#45929E" d="M203.271,237.047h-1.685v-29.16h1.685V237.047z M202.086,236.547h0.685v-28.16h-0.685V236.547z"/>
							</g>
							<g>
								<rect x="212.16" y="208.137" fill="#FFFFFF" width="1.186" height="28.66"/>
								<path fill="#45929E" d="M213.596,237.047h-1.686v-29.16h1.686V237.047z M212.41,236.547h0.686v-28.16h-0.686V236.547z"/>
							</g>
							<g>
								<rect x="222.484" y="208.137" fill="#FFFFFF" width="1.186" height="28.66"/>
								<path fill="#45929E" d="M223.92,237.047h-1.686v-29.16h1.686V237.047z M222.734,236.547h0.686v-28.16h-0.686V236.547z"/>
							</g>
						</g>
						<g>
							<g>
								<path fill="#FFFFFF" d="M196.775,128.104h1.197c0,0-2.268-7.625-2.311-9.867c-0.513,0.225-2.224-0.598-2.822-1.346
									c-0.599,0.748-2.309,1.57-2.822,1.346c-0.043,2.242-2.31,9.867-2.31,9.867h1.198v3.139h-0.771v0.896c0,0,0,0,0,2.842
									c1.155,3.363,4.704,3.064,4.704,3.064s3.55,0.299,4.705-3.064c0-2.842,0-2.842,0-2.842v-0.896h-0.77V128.104z"/>
								<path fill="#45929E" d="M193.063,138.301L193.063,138.301c-0.125,0-0.206-0.004-0.233-0.006
									c-0.006,0.002-0.087,0.006-0.212,0.006c-0.846,0-3.686-0.232-4.718-3.24l-0.014-0.08v-3.988h0.771v-2.639h-1.283
									l0.096-0.322c0.021-0.076,2.258-7.617,2.299-9.801l0.008-0.373l0.342,0.148c0.012,0.006,0.047,0.018,0.119,0.018
									c0.568,0,1.91-0.666,2.408-1.289l0.195-0.242l0.195,0.242c0.498,0.623,1.84,1.289,2.408,1.289
									c0.072,0,0.107-0.012,0.119-0.018l0.343-0.148l0.007,0.373c0.043,2.184,2.277,9.725,2.3,9.801l0.095,0.322h-1.281v2.639
									h0.77l-0.014,4.068C196.748,138.068,193.908,138.301,193.063,138.301z M192.819,137.795c0.046,0,0.119,0.006,0.243,0.006
									c0.758,0,3.296-0.207,4.232-2.863v-3.445h-0.77v-3.639h1.113c-0.418-1.428-2.039-7.082-2.212-9.33
									c-0.696-0.01-1.937-0.631-2.587-1.264c-0.65,0.633-1.891,1.254-2.586,1.264c-0.174,2.248-1.795,7.902-2.212,9.33h1.114
									v3.639h-0.771v3.445c0.937,2.656,3.474,2.863,4.231,2.863C192.741,137.801,192.814,137.795,192.819,137.795z"/>
							</g>
							<g>
								<path fill="#FFFFFF" d="M210.05,128.104h1.197c0,0-2.267-7.625-2.31-9.867c-0.514,0.225-2.224-0.598-2.822-1.346
									c-0.599,0.748-2.31,1.57-2.822,1.346c-0.043,2.242-2.311,9.867-2.311,9.867h1.198v3.139h-0.771v0.896c0,0,0,0,0,2.842
									c1.155,3.363,4.705,3.064,4.705,3.064s3.55,0.299,4.704-3.064c0-2.842,0-2.842,0-2.842v-0.896h-0.77V128.104z"/>
								<path fill="#45929E" d="M206.338,138.301L206.338,138.301c-0.125,0-0.206-0.004-0.233-0.006
									c-0.006,0.002-0.087,0.006-0.212,0.006c-0.846,0-3.686-0.232-4.719-3.24l-0.014-0.08v-3.988h0.771v-2.639h-1.282
									l0.095-0.322c0.022-0.076,2.258-7.617,2.3-9.801l0.007-0.373l0.343,0.148c0.012,0.006,0.047,0.018,0.119,0.018
									c0.568,0,1.91-0.666,2.408-1.289l0.195-0.242l0.195,0.242c0.498,0.623,1.84,1.289,2.408,1.289
									c0.072,0,0.107-0.012,0.119-0.018l0.342-0.148l0.008,0.373c0.042,2.184,2.277,9.725,2.299,9.801l0.096,0.322H210.3v2.639
									h0.77l-0.014,4.068C210.023,138.068,207.184,138.301,206.338,138.301z M206.095,137.795c0.046,0,0.119,0.006,0.243,0.006
									c0.758,0,3.296-0.207,4.231-2.863v-3.445h-0.77v-3.639h1.113c-0.417-1.428-2.038-7.082-2.212-9.33
									c-0.695-0.01-1.936-0.631-2.586-1.264c-0.65,0.633-1.891,1.254-2.587,1.264c-0.173,2.248-1.794,7.902-2.212,9.33h1.114
									v3.639h-0.771v3.445c0.937,2.656,3.475,2.863,4.232,2.863C206.017,137.801,206.09,137.795,206.095,137.795z"/>
							</g>
							<g>
								<path fill="#FFFFFF" d="M223.324,128.104h1.198c0,0-2.267-7.625-2.31-9.867c-0.514,0.225-2.225-0.598-2.822-1.346
									c-0.6,0.748-2.31,1.57-2.822,1.346c-0.043,2.242-2.311,9.867-2.311,9.867h1.197v3.139h-0.77v0.896c0,0,0,0,0,2.842
									c1.155,3.363,4.705,3.064,4.705,3.064s3.549,0.299,4.704-3.064c0-2.842,0-2.842,0-2.842v-0.896h-0.771V128.104z"/>
								<path fill="#45929E" d="M219.612,138.301L219.612,138.301c-0.124,0-0.206-0.004-0.233-0.006
									c-0.006,0.002-0.086,0.006-0.211,0.006c-0.846,0-3.686-0.232-4.719-3.24l-0.014-0.08v-3.988h0.77v-2.639h-1.281l0.095-0.322
									c0.022-0.076,2.257-7.617,2.3-9.801l0.007-0.373l0.343,0.148c0.012,0.006,0.047,0.018,0.119,0.018
									c0.568,0,1.909-0.666,2.408-1.289l0.195-0.242l0.195,0.242c0.498,0.623,1.84,1.289,2.408,1.289
									c0.072,0,0.107-0.012,0.119-0.018l0.342-0.148l0.008,0.373c0.041,2.184,2.277,9.725,2.299,9.801l0.096,0.322h-1.283v2.639
									h0.771l-0.014,4.068C223.299,138.068,220.459,138.301,219.612,138.301z M219.369,137.795c0.047,0,0.119,0.006,0.243,0.006
									c0.759,0,3.296-0.207,4.232-2.863v-3.445h-0.771v-3.639h1.114c-0.417-1.428-2.038-7.082-2.212-9.33
									c-0.695-0.01-1.936-0.631-2.586-1.264c-0.65,0.633-1.891,1.254-2.587,1.264c-0.173,2.248-1.794,7.902-2.212,9.33h1.113
									v3.639h-0.77v3.445c0.937,2.656,3.475,2.863,4.232,2.863C219.291,137.801,219.364,137.795,219.369,137.795z"/>
							</g>
							<g>
								<path fill="#FFFFFF" d="M236.6,128.104h1.197c0,0-2.267-7.625-2.309-9.867c-0.514,0.225-2.225-0.598-2.822-1.346
									c-0.6,0.748-2.311,1.57-2.823,1.346c-0.043,2.242-2.31,9.867-2.31,9.867h1.197v3.139h-0.77v0.896c0,0,0,0,0,2.842
									c1.154,3.363,4.705,3.064,4.705,3.064s3.549,0.299,4.703-3.064c0-2.842,0-2.842,0-2.842v-0.896h-0.77V128.104z"/>
								<path fill="#45929E" d="M232.888,138.301L232.888,138.301c-0.124,0-0.206-0.004-0.233-0.006
									c-0.006,0.002-0.086,0.006-0.211,0.006c-0.846,0-3.687-0.232-4.719-3.24l-0.014-0.08v-3.988h0.77v-2.639h-1.282l0.095-0.322
									c0.023-0.076,2.258-7.617,2.3-9.801l0.007-0.373l0.344,0.148c0.012,0.006,0.046,0.018,0.119,0.018
									c0.567,0,1.909-0.666,2.408-1.289l0.195-0.242l0.195,0.242c0.498,0.623,1.839,1.289,2.407,1.289
									c0.073,0,0.107-0.012,0.119-0.018l0.343-0.148l0.008,0.373c0.041,2.184,2.276,9.725,2.299,9.801l0.096,0.322h-1.283v2.639
									h0.77l-0.014,4.068C236.574,138.068,233.734,138.301,232.888,138.301z M232.645,137.795c0.047,0,0.119,0.006,0.243,0.006
									c0.759,0,3.296-0.207,4.231-2.863v-3.445h-0.77v-3.639h1.113c-0.417-1.428-2.038-7.082-2.211-9.33
									c-0.695-0.01-1.937-0.631-2.586-1.264c-0.65,0.633-1.893,1.254-2.588,1.264c-0.172,2.248-1.793,7.902-2.211,9.33h1.113
									v3.639h-0.77v3.445c0.936,2.656,3.475,2.863,4.232,2.863C232.566,137.801,232.64,137.795,232.645,137.795z"/>
							</g>
						</g>
						<g>
							<g>
								<g>
									<circle fill="#FFFFFF" cx="199.417" cy="121.576" r="2.378"/>
									<path fill="#45929E" d="M199.417,124.205c-1.449,0-2.628-1.18-2.628-2.629c0-1.447,1.179-2.627,2.628-2.627
										c1.448,0,2.628,1.18,2.628,2.627C202.045,123.025,200.865,124.205,199.417,124.205z M199.417,119.449
										c-1.173,0-2.128,0.955-2.128,2.127c0,1.174,0.955,2.129,2.128,2.129s2.128-0.955,2.128-2.129
										C201.545,120.404,200.59,119.449,199.417,119.449z"/>
								</g>
								<g>
									<circle fill="#FFFFFF" cx="199.417" cy="121.576" r="1.416"/>
									<path fill="#45929E" d="M199.417,123.242c-0.919,0-1.666-0.746-1.666-1.666c0-0.918,0.747-1.666,1.666-1.666
										s1.666,0.748,1.666,1.666C201.083,122.496,200.336,123.242,199.417,123.242z M199.417,120.41
										c-0.644,0-1.166,0.523-1.166,1.166s0.522,1.166,1.166,1.166s1.166-0.523,1.166-1.166S200.061,120.41,199.417,120.41z"/>
								</g>
							</g>
							<g>
								<g>
									<circle fill="#FFFFFF" cx="212.753" cy="121.576" r="2.378"/>
									<path fill="#45929E" d="M212.752,124.205c-1.448,0-2.627-1.18-2.627-2.629s1.179-2.627,2.627-2.627
										c1.449,0,2.629,1.178,2.629,2.627S214.201,124.205,212.752,124.205z M212.752,119.449c-1.172,0-2.127,0.953-2.127,2.127
										s0.955,2.129,2.127,2.129c1.174,0,2.129-0.955,2.129-2.129S213.926,119.449,212.752,119.449z"/>
								</g>
								<g>
									<circle fill="#FFFFFF" cx="212.752" cy="121.576" r="1.416"/>
									<path fill="#45929E" d="M212.752,123.242c-0.918,0-1.666-0.746-1.666-1.666c0-0.918,0.748-1.666,1.666-1.666
										c0.919,0,1.666,0.748,1.666,1.666C214.418,122.496,213.671,123.242,212.752,123.242z M212.752,120.41
										c-0.643,0-1.166,0.523-1.166,1.166s0.523,1.166,1.166,1.166c0.644,0,1.166-0.523,1.166-1.166
										S213.396,120.41,212.752,120.41z"/>
								</g>
							</g>
							<g>
								<g>
									<circle fill="#FFFFFF" cx="226.088" cy="121.576" r="2.377"/>
									<path fill="#45929E" d="M226.088,124.205c-1.448,0-2.627-1.18-2.627-2.629s1.179-2.627,2.627-2.627
										c1.449,0,2.628,1.178,2.628,2.627S227.537,124.205,226.088,124.205z M226.088,119.449c-1.172,0-2.127,0.953-2.127,2.127
										s0.955,2.129,2.127,2.129c1.174,0,2.128-0.955,2.128-2.129S227.262,119.449,226.088,119.449z"/>
								</g>
								<g>
									<circle fill="#FFFFFF" cx="226.088" cy="121.576" r="1.416"/>
									<path fill="#45929E" d="M226.088,123.242c-0.918,0-1.666-0.746-1.666-1.666c0-0.918,0.748-1.666,1.666-1.666
										c0.919,0,1.666,0.748,1.666,1.666C227.754,122.496,227.007,123.242,226.088,123.242z M226.088,120.41
										c-0.643,0-1.166,0.523-1.166,1.166s0.523,1.166,1.166,1.166c0.644,0,1.166-0.523,1.166-1.166
										S226.731,120.41,226.088,120.41z"/>
								</g>
							</g>
						</g>
						<g>
							<rect x="184.13" y="75.244" fill="#FFFFFF" width="57.245" height="2.143"/>
							<path fill="#45929E" d="M241.625,77.637H183.88v-2.643h57.745V77.637z M184.38,77.137h56.745v-1.643H184.38V77.137z"/>
						</g>
						<g>
							<rect x="182.717" y="73.104" fill="#FFFFFF" width="60.072" height="2.141"/>
							<path fill="#45929E" d="M243.039,75.494h-60.572v-2.641h60.572V75.494z M182.967,74.994h59.572v-1.641h-59.572V74.994z"/>
						</g>
					</g>
					<g>
						<rect x="187.563" y="27.435" fill="#FFFFFF" width="50.381" height="45.669"/>
						<path fill="#45929E" d="M238.193,73.354h-50.881V27.185h50.881V73.354z M187.813,72.854h49.881V27.685h-49.881V72.854z"/>
					</g>
					<g>
						<rect x="202.645" y="27.435" fill="#FFFFFF" width="20.216" height="45.669"/>
						<path fill="#45929E" d="M223.11,73.354h-20.716V27.185h20.716V73.354z M202.895,72.854h19.716V27.685h-19.716V72.854z"/>
					</g>
					<g>
						<rect x="204.436" y="29.234" fill="#FFFFFF" width="16.635" height="8.354"/>
						<path fill="#45929E" d="M221.32,37.837h-17.135v-8.854h17.135V37.837z M204.686,37.337h16.135v-7.854h-16.135V37.337z"/>
					</g>
					<g>
						<g>
							<g>
								<polygon fill="#FFFFFF" points="209.91,45.942 209.91,41.829 208.367,41.829 206.825,41.829 206.825,45.942 204.69,45.942 
									204.69,67.148 208.367,67.148 212.045,67.148 212.045,45.942 								"/>
								<path fill="#45929E" d="M212.295,67.398h-7.854V45.692h2.135v-4.113h3.585v4.113h2.135V67.398z M204.94,66.898h6.854V46.192
									h-2.135v-4.113h-2.585v4.113h-2.135V66.898z"/>
							</g>
							<g>
								<polygon fill="#FFFFFF" points="218.68,45.942 218.68,41.829 217.138,41.829 215.596,41.829 215.596,45.942 213.461,45.942 
									213.461,67.148 217.138,67.148 220.814,67.148 220.814,45.942 								"/>
								<path fill="#45929E" d="M221.064,67.398h-7.854V45.692h2.135v-4.113h3.584v4.113h2.135V67.398z M213.711,66.898h6.854
									V46.192h-2.135v-4.113h-2.584v4.113h-2.135V66.898z"/>
							</g>
						</g>
						<g>
							<g>
								<rect x="224.395" y="29.234" fill="#FFFFFF" width="12.518" height="8.354"/>
								<path fill="#45929E" d="M237.162,37.837h-13.018v-8.854h13.018V37.837z M224.645,37.337h12.018v-7.854h-12.018V37.337z"/>
							</g>
							<g>
								<g>
									<polygon fill="#FFFFFF" points="228.514,45.942 228.514,41.829 227.354,41.829 226.193,41.829 226.193,45.942 
										224.586,45.942 224.586,67.148 227.354,67.148 230.12,67.148 230.12,45.942 									"/>
									<path fill="#45929E" d="M230.37,67.398h-6.034V45.692h1.607v-4.113h2.82v4.113h1.606V67.398z M224.836,66.898h5.034V46.192
										h-1.606v-4.113h-1.82v4.113h-1.607V66.898z"/>
								</g>
								<g>
									<polygon fill="#FFFFFF" points="235.113,45.942 235.113,41.829 233.952,41.829 232.792,41.829 232.792,45.942 
										231.186,45.942 231.186,67.148 233.952,67.148 236.719,67.148 236.719,45.942 									"/>
									<path fill="#45929E" d="M236.969,67.398h-6.033V45.692h1.606v-4.113h2.821v4.113h1.605V67.398z M231.436,66.898h5.033
										V46.192h-1.605v-4.113h-1.821v4.113h-1.606V66.898z"/>
								</g>
							</g>
						</g>
						<g>
							<g>
								<rect x="188.594" y="29.234" fill="#FFFFFF" width="12.518" height="8.354"/>
								<path fill="#45929E" d="M201.361,37.837h-13.018v-8.854h13.018V37.837z M188.844,37.337h12.018v-7.854h-12.018V37.337z"/>
							</g>
							<g>
								<g>
									<polygon fill="#FFFFFF" points="192.713,45.942 192.713,41.829 191.553,41.829 190.393,41.829 190.393,45.942 
										188.786,45.942 188.786,67.148 191.553,67.148 194.319,67.148 194.319,45.942 									"/>
									<path fill="#45929E" d="M194.569,67.398h-6.033V45.692h1.606v-4.113h2.82v4.113h1.606V67.398z M189.036,66.898h5.033
										V46.192h-1.606v-4.113h-1.82v4.113h-1.606V66.898z"/>
								</g>
								<g>
									<polygon fill="#FFFFFF" points="199.313,45.942 199.313,41.829 198.152,41.829 196.991,41.829 196.991,45.942 
										195.385,45.942 195.385,67.148 198.152,67.148 200.918,67.148 200.918,45.942 									"/>
									<path fill="#45929E" d="M201.168,67.398h-6.033V45.692h1.606v-4.113h2.821v4.113h1.605V67.398z M195.635,66.898h5.033
										V46.192h-1.605v-4.113h-1.821v4.113h-1.606V66.898z"/>
								</g>
							</g>
						</g>
					</g>
				</g>
				<g>
					<rect x="187.563" y="14.497" fill="#FFFFFF" width="3.99" height="12.938"/>
					<path fill="#45929E" d="M191.803,27.685h-4.49V14.247h4.49V27.685z M187.813,27.185h3.49V14.747h-3.49V27.185z"/>
				</g>
				<g>
					<rect x="233.953" y="14.497" fill="#FFFFFF" width="3.99" height="12.938"/>
					<path fill="#45929E" d="M238.193,27.685h-4.49V14.247h4.49V27.685z M234.203,27.185h3.49V14.747h-3.49V27.185z"/>
				</g>
				<g>
					<rect x="222.86" y="14.497" fill="#FFFFFF" width="3.99" height="12.938"/>
					<path fill="#45929E" d="M227.101,27.685h-4.49V14.247h4.49V27.685z M223.11,27.185h3.49V14.747h-3.49V27.185z"/>
				</g>
				<g>
					<rect x="198.654" y="14.497" fill="#FFFFFF" width="3.99" height="12.938"/>
					<path fill="#45929E" d="M202.895,27.685h-4.49V14.247h4.49V27.685z M198.904,27.185h3.49V14.747h-3.49V27.185z"/>
				</g>
				<g>
					<rect x="218.869" y="14.497" fill="#FFFFFF" width="3.991" height="12.938"/>
					<path fill="#45929E" d="M223.11,27.685h-4.491V14.247h4.491V27.685z M219.119,27.185h3.491V14.747h-3.491V27.185z"/>
				</g>
				<g>
					<rect x="202.645" y="14.497" fill="#FFFFFF" width="3.99" height="12.938"/>
					<path fill="#45929E" d="M206.885,27.685h-4.49V14.247h4.49V27.685z M202.895,27.185h3.49V14.747h-3.49V27.185z"/>
				</g>
				<g>
					<rect x="210.758" y="20.494" fill="#FFFFFF" width="3.99" height="6.94"/>
					<path fill="#45929E" d="M214.998,27.685h-4.49v-7.44h4.49V27.685z M211.008,27.185h3.49v-6.44h-3.49V27.185z"/>
				</g>
				<g>
					<rect x="193.113" y="20.494" fill="#FFFFFF" width="3.991" height="6.94"/>
					<path fill="#45929E" d="M197.354,27.685h-4.491v-7.44h4.491V27.685z M193.363,27.185h3.491v-6.44h-3.491V27.185z"/>
				</g>
				<g>
					<rect x="228.4" y="20.494" fill="#FFFFFF" width="3.99" height="6.94"/>
					<path fill="#45929E" d="M232.641,27.685h-4.49v-7.44h4.49V27.685z M228.65,27.185h3.49v-6.44h-3.49V27.185z"/>
				</g>
			</g>
			<g>
				<g>
					<rect x="198.654" y="13.554" fill="#FFFFFF" width="7.98" height="0.942"/>
					<path fill="#45929E" d="M206.885,14.747h-8.48v-1.442h8.48V14.747z M198.904,14.247h7.48v-0.442h-7.48V14.247z"/>
				</g>
				<g>
					<rect x="198.654" y="7.835" fill="#FFFFFF" width="1.227" height="5.719"/>
					<path fill="#45929E" d="M200.131,13.804h-1.727V7.585h1.727V13.804z M198.904,13.304h0.727V8.085h-0.727V13.304z"/>
				</g>
				<g>
					<rect x="200.344" y="7.835" fill="#FFFFFF" width="1.225" height="5.719"/>
					<path fill="#45929E" d="M201.818,13.804h-1.725V7.585h1.725V13.804z M200.594,13.304h0.725V8.085h-0.725V13.304z"/>
				</g>
				<g>
					<rect x="202.031" y="7.835" fill="#FFFFFF" width="1.227" height="5.719"/>
					<path fill="#45929E" d="M203.508,13.804h-1.727V7.585h1.727V13.804z M202.281,13.304h0.727V8.085h-0.727V13.304z"/>
				</g>
				<g>
					<rect x="203.721" y="7.835" fill="#FFFFFF" width="1.227" height="5.719"/>
					<path fill="#45929E" d="M205.197,13.804h-1.727V7.585h1.727V13.804z M203.971,13.304h0.727V8.085h-0.727V13.304z"/>
				</g>
				<g>
					<rect x="205.409" y="7.835" fill="#FFFFFF" width="1.226" height="5.719"/>
					<path fill="#45929E" d="M206.885,13.804h-1.726V7.585h1.726V13.804z M205.659,13.304h0.726V8.085h-0.726V13.304z"/>
				</g>
			</g>
			<g>
				<g>
					<rect x="218.869" y="13.554" fill="#FFFFFF" width="7.981" height="0.942"/>
					<path fill="#45929E" d="M227.101,14.747h-8.481v-1.442h8.481V14.747z M219.119,14.247h7.481v-0.442h-7.481V14.247z"/>
				</g>
				<g>
					<rect x="218.869" y="7.835" fill="#FFFFFF" width="1.227" height="5.719"/>
					<path fill="#45929E" d="M220.346,13.804h-1.727V7.585h1.727V13.804z M219.119,13.304h0.727V8.085h-0.727V13.304z"/>
				</g>
				<g>
					<rect x="220.559" y="7.835" fill="#FFFFFF" width="1.227" height="5.719"/>
					<path fill="#45929E" d="M222.035,13.804h-1.727V7.585h1.727V13.804z M220.809,13.304h0.727V8.085h-0.727V13.304z"/>
				</g>
				<g>
					<rect x="222.247" y="7.835" fill="#FFFFFF" width="1.226" height="5.719"/>
					<path fill="#45929E" d="M223.723,13.804h-1.726V7.585h1.726V13.804z M222.497,13.304h0.726V8.085h-0.726V13.304z"/>
				</g>
				<g>
					<rect x="223.936" y="7.835" fill="#FFFFFF" width="1.227" height="5.719"/>
					<path fill="#45929E" d="M225.412,13.804h-1.727V7.585h1.727V13.804z M224.186,13.304h0.727V8.085h-0.727V13.304z"/>
				</g>
				<g>
					<rect x="225.625" y="7.835" fill="#FFFFFF" width="1.226" height="5.719"/>
					<path fill="#45929E" d="M227.101,13.804h-1.726V7.585h1.726V13.804z M225.875,13.304h0.726V8.085h-0.726V13.304z"/>
				</g>
			</g>
			<g>
				<g>
					<rect x="233.953" y="13.554" fill="#FFFFFF" width="3.99" height="0.942"/>
					<path fill="#45929E" d="M238.193,14.747h-4.49v-1.442h4.49V14.747z M234.203,14.247h3.49v-0.442h-3.49V14.247z"/>
				</g>
				<g>
					<rect x="233.953" y="7.835" fill="#FFFFFF" width="0.612" height="5.719"/>
					<path fill="#45929E" d="M234.815,13.804h-1.112V7.585h1.112V13.804z M234.203,13.304h0.112V8.085h-0.112V13.304z"/>
				</g>
				<g>
					<rect x="234.797" y="7.835" fill="#FFFFFF" width="0.613" height="5.719"/>
					<path fill="#45929E" d="M235.66,13.804h-1.113V7.585h1.113V13.804z M235.047,13.304h0.113V8.085h-0.113V13.304z"/>
				</g>
				<g>
					<rect x="235.641" y="7.835" fill="#FFFFFF" width="0.613" height="5.719"/>
					<path fill="#45929E" d="M236.504,13.804h-1.113V7.585h1.113V13.804z M235.891,13.304h0.113V8.085h-0.113V13.304z"/>
				</g>
				<g>
					<rect x="236.485" y="7.835" fill="#FFFFFF" width="0.612" height="5.719"/>
					<path fill="#45929E" d="M237.348,13.804h-1.112V7.585h1.112V13.804z M236.735,13.304h0.112V8.085h-0.112V13.304z"/>
				</g>
				<g>
					<rect x="237.33" y="7.835" fill="#FFFFFF" width="0.613" height="5.719"/>
					<path fill="#45929E" d="M238.193,13.804h-1.113V7.585h1.113V13.804z M237.58,13.304h0.113V8.085h-0.113V13.304z"/>
				</g>
			</g>
			<g>
				<g>
					<rect x="187.563" y="13.554" fill="#FFFFFF" width="3.99" height="0.942"/>
					<path fill="#45929E" d="M191.803,14.747h-4.49v-1.442h4.49V14.747z M187.813,14.247h3.49v-0.442h-3.49V14.247z"/>
				</g>
				<g>
					<rect x="187.563" y="7.835" fill="#FFFFFF" width="0.613" height="5.719"/>
					<path fill="#45929E" d="M188.426,13.804h-1.113V7.585h1.113V13.804z M187.813,13.304h0.113V8.085h-0.113V13.304z"/>
				</g>
				<g>
					<rect x="188.406" y="7.835" fill="#FFFFFF" width="0.613" height="5.719"/>
					<path fill="#45929E" d="M189.27,13.804h-1.113V7.585h1.113V13.804z M188.656,13.304h0.113V8.085h-0.113V13.304z"/>
				</g>
				<g>
					<rect x="189.251" y="7.835" fill="#FFFFFF" width="0.613" height="5.719"/>
					<path fill="#45929E" d="M190.114,13.804h-1.113V7.585h1.113V13.804z M189.501,13.304h0.113V8.085h-0.113V13.304z"/>
				</g>
				<g>
					<rect x="190.096" y="7.835" fill="#FFFFFF" width="0.613" height="5.719"/>
					<path fill="#45929E" d="M190.959,13.804h-1.113V7.585h1.113V13.804z M190.346,13.304h0.113V8.085h-0.113V13.304z"/>
				</g>
				<g>
					<rect x="190.939" y="7.835" fill="#FFFFFF" width="0.613" height="5.719"/>
					<path fill="#45929E" d="M191.803,13.804h-1.113V7.585h1.113V13.804z M191.189,13.304h0.113V8.085h-0.113V13.304z"/>
				</g>
			</g>
		</g>
	</g>
	<g>
		<g>
			<g>
				<path fill="#FFFFFF" d="M101.803,183.176c-1.647,1.037-8.337,5.447-8.337,8.771c0,3.791,0,32.945,0,32.945h16.673
					c0,0,0-29.154,0-32.945C110.14,188.623,103.45,184.213,101.803,183.176z"/>
				<path fill="#45929E" d="M110.39,225.143H93.216v-33.195c0-3.402,6.471-7.736,8.454-8.982l0.133-0.084l0.133,0.084
					c1.983,1.248,8.453,5.582,8.453,8.982V225.143z M93.716,224.643h16.173v-32.695c0-3.131-6.455-7.438-8.086-8.475
					c-1.631,1.037-8.087,5.342-8.087,8.475V224.643z"/>
			</g>
			<g>
				<path fill="#FFFFFF" d="M101.803,185.303c-1.334,0.932-6.755,4.893-6.755,7.877c0,3.406,0,29.586,0,29.586h13.509
					c0,0,0-26.18,0-29.586C108.558,190.195,103.138,186.234,101.803,185.303z"/>
				<path fill="#45929E" d="M108.808,223.016H94.798V193.18c0-3.059,5.252-6.959,6.862-8.082l0.143-0.1l0.143,0.1
					c1.609,1.123,6.861,5.023,6.861,8.082V223.016z M95.298,222.516h13.009V193.18c0-2.781-5.13-6.598-6.504-7.57
					c-1.375,0.973-6.505,4.789-6.505,7.57V222.516z"/>
			</g>
			<g>
				<polygon fill="#FFFFFF" points="88.979,180.381 88.979,202.658 90.375,202.658 90.375,181.799 113.231,181.799 113.231,202.658 
					114.626,202.658 114.626,180.381 				"/>
				<path fill="#45929E" d="M114.876,202.908h-1.895v-20.859H90.625v20.859h-1.895v-22.777h26.147V202.908z M113.481,202.408h0.895
					v-21.777H89.229v21.777h0.895v-20.859h23.357V202.408z"/>
			</g>
			<g>
				<polygon fill="#FFFFFF" points="88.467,179.867 88.467,202.658 89.918,202.658 89.918,181.316 113.688,181.316 113.688,202.658 
					115.139,202.658 115.139,179.867 				"/>
				<path fill="#45929E" d="M115.389,202.908h-1.95v-21.342H90.168v21.342h-1.951v-23.291h27.171V202.908z M113.938,202.408h0.95
					v-22.291H88.717v22.291h0.951v-21.342h24.271V202.408z"/>
			</g>
			<g>
				<rect x="95.048" y="198.438" fill="#FFFFFF" width="13.509" height="1.285"/>
				<path fill="#45929E" d="M108.808,199.973H94.798v-1.785h14.009V199.973z M95.298,199.473h13.009v-0.785H95.298V199.473z"/>
			</g>
			<g>
				<rect x="95.048" y="211.676" fill="#FFFFFF" width="13.509" height="1.285"/>
				<path fill="#45929E" d="M108.808,213.211H94.798v-1.785h14.009V213.211z M95.298,212.711h13.009v-0.785H95.298V212.711z"/>
			</g>
			<g>
				<rect x="101.21" y="184.943" fill="#FFFFFF" width="1.185" height="37.822"/>
				<path fill="#45929E" d="M102.646,223.016h-1.685v-38.322h1.685V223.016z M101.46,222.516h0.685v-37.322h-0.685V222.516z"/>
			</g>
		</g>
		<g>
			<g>
				<path fill="#FFFFFF" d="M135.667,183.176c-1.647,1.037-8.337,5.447-8.337,8.771c0,3.791,0,32.945,0,32.945h16.674
					c0,0,0-29.154,0-32.945C144.004,188.623,137.314,184.213,135.667,183.176z"/>
				<path fill="#45929E" d="M144.254,225.143H127.08v-33.195c0-3.4,6.471-7.734,8.453-8.982l0.134-0.084l0.134,0.084
					c1.982,1.246,8.453,5.58,8.453,8.982V225.143z M127.58,224.643h16.174v-32.695c0-3.133-6.455-7.438-8.087-8.475
					c-1.632,1.037-8.087,5.344-8.087,8.475V224.643z"/>
			</g>
			<g>
				<path fill="#FFFFFF" d="M135.667,185.303c-1.335,0.932-6.755,4.893-6.755,7.877c0,3.406,0,29.586,0,29.586h13.51
					c0,0,0-26.18,0-29.586C142.422,190.195,137.002,186.234,135.667,185.303z"/>
				<path fill="#45929E" d="M142.672,223.016h-14.01V193.18c0-3.059,5.252-6.959,6.861-8.082l0.144-0.1l0.144,0.1
					c1.609,1.123,6.861,5.021,6.861,8.082V223.016z M129.162,222.516h13.01V193.18c0-2.781-5.131-6.6-6.505-7.57
					c-1.374,0.973-6.505,4.789-6.505,7.57V222.516z"/>
			</g>
			<g>
				<polygon fill="#FFFFFF" points="122.844,180.381 122.844,202.658 124.238,202.658 124.238,181.799 147.096,181.799 
					147.096,202.658 148.49,202.658 148.49,180.381 				"/>
				<path fill="#45929E" d="M148.74,202.908h-1.895v-20.859h-22.357v20.859h-1.895v-22.777h26.146V202.908z M147.346,202.408h0.895
					v-21.777h-25.146v21.777h0.895v-20.859h23.357V202.408z"/>
			</g>
			<g>
				<polygon fill="#FFFFFF" points="122.332,179.867 122.332,202.658 123.782,202.658 123.782,181.316 147.553,181.316 
					147.553,202.658 149.003,202.658 149.003,179.867 				"/>
				<path fill="#45929E" d="M149.253,202.908h-1.95v-21.342h-23.271v21.342h-1.95v-23.291h27.171V202.908z M147.803,202.408h0.95
					v-22.291h-26.171v22.291h0.95v-21.342h24.271V202.408z"/>
			</g>
			<g>
				<rect x="128.912" y="198.438" fill="#FFFFFF" width="13.51" height="1.285"/>
				<path fill="#45929E" d="M142.672,199.973h-14.01v-1.785h14.01V199.973z M129.162,199.473h13.01v-0.785h-13.01V199.473z"/>
			</g>
			<g>
				<rect x="128.912" y="211.676" fill="#FFFFFF" width="13.51" height="1.285"/>
				<path fill="#45929E" d="M142.672,213.211h-14.01v-1.785h14.01V213.211z M129.162,212.711h13.01v-0.785h-13.01V212.711z"/>
			</g>
			<g>
				<rect x="135.074" y="184.943" fill="#FFFFFF" width="1.186" height="37.822"/>
				<path fill="#45929E" d="M136.51,223.016h-1.686v-38.322h1.686V223.016z M135.324,222.516h0.686v-37.322h-0.686V222.516z"/>
			</g>
		</g>
		<g>
			<g>
				<path fill="#FFFFFF" d="M169.531,183.176c-1.646,1.037-8.337,5.447-8.337,8.771c0,3.791,0,32.945,0,32.945h16.674
					c0,0,0-29.154,0-32.945C177.868,188.623,171.178,184.213,169.531,183.176z"/>
				<path fill="#45929E" d="M178.118,225.143h-17.174v-33.195c0-3.4,6.471-7.734,8.454-8.982l0.133-0.084l0.133,0.084
					c1.983,1.248,8.454,5.582,8.454,8.982V225.143z M161.444,224.643h16.174v-32.695c0-3.131-6.456-7.438-8.087-8.475
					c-1.631,1.037-8.087,5.344-8.087,8.475V224.643z"/>
			</g>
			<g>
				<path fill="#FFFFFF" d="M169.531,185.303c-1.334,0.932-6.754,4.893-6.754,7.877c0,3.406,0,29.586,0,29.586h13.509
					c0,0,0-26.18,0-29.586C176.286,190.195,170.865,186.234,169.531,185.303z"/>
				<path fill="#45929E" d="M176.536,223.016h-14.009V193.18c0-3.059,5.252-6.959,6.861-8.082l0.143-0.1l0.143,0.1
					c1.61,1.123,6.862,5.023,6.862,8.082V223.016z M163.027,222.516h13.009V193.18c0-2.781-5.13-6.598-6.505-7.57
					c-1.375,0.973-6.504,4.789-6.504,7.57V222.516z"/>
			</g>
			<g>
				<polygon fill="#FFFFFF" points="156.708,180.381 156.708,202.658 158.103,202.658 158.103,181.799 180.96,181.799 
					180.96,202.658 182.355,202.658 182.355,180.381 				"/>
				<path fill="#45929E" d="M182.605,202.908h-1.896v-20.859h-22.357v20.859h-1.895v-22.777h26.147V202.908z M181.21,202.408h0.896
					v-21.777h-25.147v21.777h0.895v-20.859h23.357V202.408z"/>
			</g>
			<g>
				<polygon fill="#FFFFFF" points="156.195,179.867 156.195,202.658 157.646,202.658 157.646,181.316 181.416,181.316 
					181.416,202.658 182.867,202.658 182.867,179.867 				"/>
				<path fill="#45929E" d="M183.117,202.908h-1.951v-21.342h-23.27v21.342h-1.951v-23.291h27.172V202.908z M181.666,202.408h0.951
					v-22.291h-26.172v22.291h0.951v-21.342h24.27V202.408z"/>
			</g>
			<g>
				<rect x="162.777" y="198.438" fill="#FFFFFF" width="13.509" height="1.285"/>
				<path fill="#45929E" d="M176.536,199.973h-14.009v-1.785h14.009V199.973z M163.027,199.473h13.009v-0.785h-13.009V199.473z"/>
			</g>
			<g>
				<rect x="162.777" y="211.676" fill="#FFFFFF" width="13.509" height="1.285"/>
				<path fill="#45929E" d="M176.536,213.211h-14.009v-1.785h14.009V213.211z M163.027,212.711h13.009v-0.785h-13.009V212.711z"/>
			</g>
			<g>
				<rect x="168.939" y="184.943" fill="#FFFFFF" width="1.184" height="37.822"/>
				<path fill="#45929E" d="M170.373,223.016h-1.684v-38.322h1.684V223.016z M169.189,222.516h0.684v-37.322h-0.684V222.516z"/>
			</g>
		</g>
	</g>
	<g>
		<g>
			<path fill="#FFFFFF" d="M96.978,134.766h1.197c0,0-2.267-7.625-2.309-9.867c-0.514,0.225-2.224-0.598-2.823-1.346
				c-0.599,0.748-2.31,1.57-2.823,1.346c-0.042,2.242-2.309,9.867-2.309,9.867h1.197v3.139h-0.77v0.896c0,0,0,0,0,2.842
				c1.154,3.363,4.704,3.064,4.704,3.064s3.549,0.299,4.704-3.064c0-2.842,0-2.842,0-2.842v-0.896h-0.77V134.766z"/>
			<path fill="#45929E" d="M93.266,144.963L93.266,144.963c-0.124,0-0.206-0.004-0.233-0.006c-0.006,0.002-0.087,0.006-0.211,0.006
				c-0.846,0-3.687-0.232-4.718-3.24l-0.014-0.08v-3.988h0.77v-2.639h-1.282l0.095-0.322c0.022-0.076,2.257-7.617,2.299-9.801
				l0.007-0.373l0.343,0.148c0.012,0.006,0.046,0.018,0.119,0.018c0.569,0,1.91-0.666,2.408-1.289l0.195-0.244l0.195,0.244
				c0.498,0.623,1.839,1.289,2.408,1.289c0.073,0,0.108-0.012,0.12-0.018l0.343-0.148l0.007,0.373
				c0.042,2.184,2.276,9.725,2.299,9.801l0.095,0.322h-1.282v2.639h0.77l-0.014,4.068C96.952,144.73,94.112,144.963,93.266,144.963z
				 M93.023,144.457c0.046,0,0.119,0.006,0.243,0.006c0.758,0,3.296-0.207,4.232-2.863v-3.445h-0.77v-3.639h1.113
				c-0.417-1.428-2.038-7.082-2.211-9.33c-0.696-0.01-1.937-0.631-2.587-1.264c-0.65,0.633-1.891,1.254-2.587,1.264
				c-0.173,2.248-1.793,7.902-2.211,9.33h1.113v3.639h-0.77v3.445c0.936,2.656,3.474,2.863,4.232,2.863
				C92.945,144.463,93.018,144.457,93.023,144.457z"/>
		</g>
		<g>
			<path fill="#FFFFFF" d="M111.186,134.766h1.197c0,0-2.267-7.625-2.31-9.867c-0.513,0.225-2.224-0.598-2.822-1.346
				c-0.599,0.748-2.31,1.57-2.823,1.346c-0.042,2.242-2.309,9.867-2.309,9.867h1.197v3.139h-0.77v0.896c0,0,0,0,0,2.842
				c1.154,3.363,4.704,3.064,4.704,3.064s3.549,0.299,4.704-3.064c0-2.842,0-2.842,0-2.842v-0.896h-0.77V134.766z"/>
			<path fill="#45929E" d="M107.474,144.963L107.474,144.963c-0.124,0-0.206-0.004-0.233-0.006
				c-0.006,0.002-0.087,0.006-0.211,0.006c-0.846,0-3.687-0.232-4.718-3.24l-0.014-0.08v-3.988h0.77v-2.639h-1.282l0.095-0.322
				c0.022-0.076,2.257-7.617,2.299-9.801l0.007-0.373l0.343,0.148c0.012,0.006,0.046,0.018,0.119,0.018
				c0.568,0,1.91-0.668,2.408-1.289l0.195-0.244l0.195,0.244c0.498,0.623,1.839,1.289,2.408,1.289c0.073,0,0.107-0.012,0.119-0.018
				l0.343-0.148l0.007,0.373c0.042,2.184,2.277,9.725,2.299,9.801l0.095,0.322h-1.282v2.639h0.77l-0.014,4.068
				C111.16,144.73,108.32,144.963,107.474,144.963z M107.231,144.457c0.046,0,0.119,0.006,0.243,0.006
				c0.758,0,3.296-0.207,4.232-2.863v-3.445h-0.77v-3.639h1.113c-0.417-1.428-2.039-7.082-2.211-9.33
				c-0.696-0.01-1.937-0.631-2.586-1.264c-0.65,0.633-1.891,1.254-2.587,1.264c-0.173,2.248-1.793,7.902-2.211,9.33h1.113v3.639
				h-0.77v3.445c0.936,2.656,3.474,2.863,4.232,2.863C107.153,144.463,107.226,144.457,107.231,144.457z"/>
		</g>
		<g>
			<path fill="#FFFFFF" d="M125.395,134.766h1.197c0,0-2.267-7.625-2.31-9.867c-0.513,0.225-2.224-0.598-2.823-1.346
				c-0.599,0.748-2.309,1.57-2.822,1.346c-0.042,2.242-2.31,9.867-2.31,9.867h1.198v3.139h-0.77v0.896c0,0,0,0,0,2.842
				c1.155,3.363,4.704,3.064,4.704,3.064s3.55,0.299,4.705-3.064c0-2.842,0-2.842,0-2.842v-0.896h-0.77V134.766z"/>
			<path fill="#45929E" d="M121.681,144.963L121.681,144.963c-0.124,0-0.206-0.004-0.233-0.006
				c-0.006,0.002-0.087,0.006-0.211,0.006c-0.846,0-3.686-0.232-4.718-3.24l-0.014-0.08v-3.988h0.77v-2.639h-1.283l0.095-0.322
				c0.022-0.076,2.258-7.617,2.299-9.801l0.007-0.373l0.343,0.148c0.012,0.006,0.046,0.018,0.119,0.018
				c0.568,0,1.91-0.666,2.408-1.289l0.195-0.244l0.195,0.244c0.498,0.623,1.839,1.289,2.408,1.289c0.073,0,0.107-0.012,0.119-0.018
				l0.343-0.148l0.007,0.373c0.042,2.184,2.277,9.725,2.299,9.801l0.095,0.322h-1.281v2.639h0.77l-0.014,4.068
				C125.367,144.73,122.527,144.963,121.681,144.963z M121.438,144.457c0.046,0,0.119,0.006,0.243,0.006
				c0.758,0,3.296-0.207,4.233-2.863v-3.445h-0.77v-3.639h1.113c-0.418-1.428-2.039-7.082-2.212-9.33
				c-0.696-0.01-1.937-0.631-2.587-1.264c-0.65,0.633-1.89,1.254-2.586,1.264c-0.173,2.248-1.794,7.902-2.211,9.33h1.114v3.639
				h-0.77v3.445c0.936,2.656,3.474,2.863,4.232,2.863C121.36,144.463,121.433,144.457,121.438,144.457z"/>
		</g>
		<g>
			<path fill="#FFFFFF" d="M139.602,134.766h1.197c0,0-2.266-7.625-2.309-9.867c-0.514,0.225-2.225-0.598-2.823-1.346
				c-0.599,0.748-2.31,1.57-2.822,1.346c-0.043,2.242-2.31,9.867-2.31,9.867h1.197v3.139h-0.77v0.896c0,0,0,0,0,2.842
				c1.154,3.363,4.704,3.064,4.704,3.064s3.55,0.299,4.704-3.064c0-2.842,0-2.842,0-2.842v-0.896h-0.77V134.766z"/>
			<path fill="#45929E" d="M135.889,144.963L135.889,144.963c-0.123,0-0.205-0.004-0.232-0.006
				c-0.006,0.002-0.087,0.006-0.211,0.006c-0.846,0-3.687-0.232-4.719-3.24l-0.014-0.08v-3.988h0.77v-2.639H130.2l0.095-0.322
				c0.023-0.076,2.258-7.617,2.3-9.801l0.007-0.373l0.344,0.148c0.012,0.006,0.046,0.018,0.119,0.018
				c0.568,0,1.909-0.666,2.407-1.289l0.195-0.244l0.195,0.244c0.498,0.623,1.839,1.289,2.408,1.289c0.073,0,0.107-0.012,0.119-0.018
				l0.343-0.148l0.008,0.373c0.041,2.184,2.276,9.725,2.299,9.801l0.096,0.322h-1.283v2.639h0.77l-0.014,4.068
				C139.576,144.73,136.735,144.963,135.889,144.963z M135.646,144.457c0.047,0,0.119,0.006,0.242,0.006
				c0.759,0,3.297-0.207,4.232-2.863v-3.445h-0.77v-3.639h1.113c-0.417-1.428-2.038-7.082-2.211-9.33
				c-0.696-0.01-1.938-0.631-2.587-1.264c-0.649,0.633-1.891,1.254-2.587,1.264c-0.172,2.248-1.793,7.902-2.211,9.33h1.113v3.639
				h-0.77v3.445c0.936,2.656,3.474,2.863,4.232,2.863C135.568,144.463,135.641,144.457,135.646,144.457z"/>
		</g>
		<g>
			<path fill="#FFFFFF" d="M153.81,134.766h1.198c0,0-2.268-7.625-2.311-9.867c-0.513,0.225-2.224-0.598-2.822-1.346
				c-0.599,0.748-2.31,1.57-2.822,1.346c-0.043,2.242-2.31,9.867-2.31,9.867h1.197v3.139h-0.77v0.896c0,0,0,0,0,2.842
				c1.154,3.363,4.704,3.064,4.704,3.064s3.55,0.299,4.705-3.064c0-2.842,0-2.842,0-2.842v-0.896h-0.771V134.766z"/>
			<path fill="#45929E" d="M150.098,144.963L150.098,144.963c-0.125,0-0.206-0.004-0.233-0.006
				c-0.006,0.002-0.087,0.006-0.212,0.006c-0.846,0-3.686-0.232-4.718-3.24l-0.014-0.08v-3.988h0.77v-2.639h-1.282l0.096-0.322
				c0.021-0.076,2.257-7.617,2.299-9.801l0.008-0.373l0.342,0.15c0.012,0.004,0.047,0.016,0.119,0.016
				c0.568,0,1.91-0.666,2.408-1.289l0.195-0.244l0.195,0.244c0.498,0.623,1.84,1.289,2.408,1.289c0.072,0,0.107-0.012,0.119-0.018
				l0.343-0.148l0.007,0.373c0.042,2.184,2.277,9.725,2.3,9.801l0.095,0.322h-1.282v2.639h0.771l-0.014,4.068
				C153.783,144.73,150.943,144.963,150.098,144.963z M149.854,144.457c0.046,0,0.119,0.006,0.243,0.006
				c0.758,0,3.296-0.207,4.232-2.863v-3.445h-0.771v-3.639h1.114c-0.418-1.428-2.039-7.082-2.212-9.33
				c-0.696-0.01-1.937-0.631-2.587-1.264c-0.65,0.633-1.891,1.254-2.586,1.264c-0.174,2.248-1.795,7.902-2.212,9.33h1.113v3.639
				h-0.77v3.445c0.936,2.656,3.474,2.863,4.231,2.863C149.776,144.463,149.85,144.457,149.854,144.457z"/>
		</g>
		<g>
			<path fill="#FFFFFF" d="M168.018,134.766h1.197c0,0-2.267-7.625-2.309-9.867c-0.514,0.225-2.225-0.598-2.823-1.346
				c-0.599,0.748-2.31,1.57-2.822,1.346c-0.043,2.242-2.31,9.867-2.31,9.867h1.197v3.139h-0.77v0.896c0,0,0,0,0,2.842
				c1.154,3.363,4.704,3.064,4.704,3.064s3.55,0.299,4.704-3.064c0-2.842,0-2.842,0-2.842v-0.896h-0.77V134.766z"/>
			<path fill="#45929E" d="M164.305,144.963L164.305,144.963c-0.123,0-0.205-0.004-0.232-0.006
				c-0.006,0.002-0.087,0.006-0.211,0.006c-0.846,0-3.688-0.232-4.719-3.24l-0.014-0.08v-3.988h0.77v-2.639h-1.282l0.095-0.322
				c0.023-0.076,2.258-7.617,2.3-9.801l0.007-0.373l0.344,0.15c0.012,0.004,0.045,0.016,0.119,0.016
				c0.568,0,1.909-0.666,2.407-1.289l0.195-0.244l0.195,0.244c0.498,0.623,1.839,1.289,2.408,1.289c0.073,0,0.107-0.012,0.119-0.018
				l0.343-0.148l0.008,0.373c0.041,2.184,2.275,9.725,2.299,9.801l0.095,0.322h-1.282v2.639h0.77l-0.014,4.068
				C167.992,144.73,165.151,144.963,164.305,144.963z M164.063,144.457c0.047,0,0.119,0.006,0.242,0.006
				c0.759,0,3.297-0.207,4.232-2.863v-3.445h-0.77v-3.639h1.113c-0.418-1.428-2.038-7.082-2.211-9.33
				c-0.696-0.01-1.938-0.631-2.587-1.264c-0.649,0.633-1.89,1.254-2.587,1.264c-0.172,2.248-1.793,7.902-2.211,9.33h1.113v3.639
				h-0.77v3.445c0.936,2.656,3.474,2.863,4.232,2.863C163.984,144.463,164.057,144.457,164.063,144.457z"/>
		</g>
		<g>
			<path fill="#FFFFFF" d="M182.226,134.766h1.197c0,0-2.267-7.625-2.31-9.867c-0.514,0.225-2.224-0.598-2.822-1.346
				c-0.599,0.748-2.31,1.57-2.822,1.346c-0.043,2.242-2.31,9.867-2.31,9.867h1.197v3.139h-0.77v0.896c0,0,0,0,0,2.842
				c1.154,3.363,4.704,3.064,4.704,3.064s3.55,0.299,4.704-3.064c0-2.842,0-2.842,0-2.842v-0.896h-0.77V134.766z"/>
			<path fill="#45929E" d="M178.514,144.963L178.514,144.963c-0.125,0-0.206-0.004-0.233-0.006
				c-0.006,0.002-0.087,0.006-0.212,0.006c-0.846,0-3.686-0.232-4.718-3.24l-0.014-0.08v-3.988h0.77v-2.639h-1.282l0.096-0.322
				c0.021-0.076,2.257-7.617,2.299-9.801l0.007-0.373l0.343,0.148c0.012,0.006,0.047,0.018,0.119,0.018
				c0.568,0,1.91-0.666,2.408-1.289l0.195-0.244l0.195,0.244c0.498,0.623,1.84,1.289,2.408,1.289c0.072,0,0.107-0.012,0.119-0.018
				l0.343-0.148l0.007,0.373c0.042,2.184,2.277,9.725,2.299,9.801l0.096,0.322h-1.282v2.639h0.77l-0.014,4.068
				C182.199,144.73,179.359,144.963,178.514,144.963z M178.271,144.457c0.046,0,0.119,0.006,0.243,0.006
				c0.758,0,3.296-0.207,4.231-2.863v-3.445h-0.77v-3.639h1.113c-0.417-1.428-2.038-7.082-2.211-9.33
				c-0.696-0.01-1.937-0.631-2.587-1.264c-0.65,0.633-1.891,1.254-2.587,1.264c-0.173,2.248-1.794,7.902-2.211,9.33h1.113v3.639
				h-0.77v3.445c0.936,2.656,3.474,2.863,4.231,2.863C178.192,144.463,178.266,144.457,178.271,144.457z"/>
		</g>
	</g>
	<g>
		<rect x="83.772" y="146.389" fill="#FFFFFF" width="103.791" height="1.793"/>
		<path fill="#45929E" d="M187.813,148.432H83.522v-2.293h104.291V148.432z M84.022,147.932h103.291v-1.293H84.022V147.932z"/>
	</g>
	<g>
		<rect x="83.772" y="255.182" fill="#FFFFFF" width="103.791" height="1.793"/>
		<path fill="#45929E" d="M187.813,257.225H83.522v-2.293h104.291V257.225z M84.022,256.725h103.291v-1.293H84.022V256.725z"/>
	</g>
	<g>
		<g>
			<g>
				<g>
					<polygon fill="#FFFFFF" points="97.034,99.695 89.053,99.695 89.666,100.639 96.421,100.639 					"/>
					<path fill="#45929E" d="M96.557,100.889H89.53l-0.938-1.443h8.903L96.557,100.889z M89.802,100.389h6.483l0.288-0.443h-7.059
						L89.802,100.389z"/>
				</g>
				<g>
					<rect x="89.053" y="93.977" fill="#FFFFFF" width="1.226" height="5.719"/>
					<path fill="#45929E" d="M90.529,99.945h-1.726v-6.219h1.726V99.945z M89.303,99.445h0.726v-5.219h-0.726V99.445z"/>
				</g>
				<g>
					<rect x="90.742" y="93.977" fill="#FFFFFF" width="1.226" height="5.719"/>
					<path fill="#45929E" d="M92.218,99.945h-1.726v-6.219h1.726V99.945z M90.992,99.445h0.726v-5.219h-0.726V99.445z"/>
				</g>
				<g>
					<rect x="92.431" y="93.977" fill="#FFFFFF" width="1.226" height="5.719"/>
					<path fill="#45929E" d="M93.906,99.945h-1.726v-6.219h1.726V99.945z M92.681,99.445h0.726v-5.219h-0.726V99.445z"/>
				</g>
				<g>
					<rect x="94.119" y="93.977" fill="#FFFFFF" width="1.226" height="5.719"/>
					<path fill="#45929E" d="M95.595,99.945h-1.726v-6.219h1.726V99.945z M94.369,99.445h0.726v-5.219h-0.726V99.445z"/>
				</g>
				<g>
					<rect x="95.808" y="93.977" fill="#FFFFFF" width="1.226" height="5.719"/>
					<path fill="#45929E" d="M97.284,99.945h-1.726v-6.219h1.726V99.945z M96.058,99.445h0.726v-5.219h-0.726V99.445z"/>
				</g>
			</g>
			<g>
				<rect x="89.666" y="100.639" fill="#FFFFFF" width="6.755" height="11.898"/>
				<path fill="#45929E" d="M96.671,112.787h-7.255v-12.398h7.255V112.787z M89.916,112.287h6.255v-11.398h-6.255V112.287z"/>
			</g>
		</g>
		<g>
			<g>
				<g>
					<polygon fill="#FFFFFF" points="111.242,99.695 103.261,99.695 103.874,100.639 110.629,100.639 					"/>
					<path fill="#45929E" d="M110.765,100.889h-7.026l-0.938-1.443h8.903L110.765,100.889z M104.01,100.389h6.483l0.288-0.443
						h-7.059L104.01,100.389z"/>
				</g>
				<g>
					<rect x="103.261" y="93.977" fill="#FFFFFF" width="1.226" height="5.719"/>
					<path fill="#45929E" d="M104.737,99.945h-1.726v-6.219h1.726V99.945z M103.511,99.445h0.726v-5.219h-0.726V99.445z"/>
				</g>
				<g>
					<rect x="104.95" y="93.977" fill="#FFFFFF" width="1.226" height="5.719"/>
					<path fill="#45929E" d="M106.426,99.945H104.7v-6.219h1.726V99.945z M105.2,99.445h0.726v-5.219H105.2V99.445z"/>
				</g>
				<g>
					<rect x="106.638" y="93.977" fill="#FFFFFF" width="1.226" height="5.719"/>
					<path fill="#45929E" d="M108.114,99.945h-1.726v-6.219h1.726V99.945z M106.888,99.445h0.726v-5.219h-0.726V99.445z"/>
				</g>
				<g>
					<rect x="108.327" y="93.977" fill="#FFFFFF" width="1.226" height="5.719"/>
					<path fill="#45929E" d="M109.803,99.945h-1.726v-6.219h1.726V99.945z M108.577,99.445h0.726v-5.219h-0.726V99.445z"/>
				</g>
				<g>
					<rect x="110.016" y="93.977" fill="#FFFFFF" width="1.226" height="5.719"/>
					<path fill="#45929E" d="M111.492,99.945h-1.726v-6.219h1.726V99.945z M110.266,99.445h0.726v-5.219h-0.726V99.445z"/>
				</g>
			</g>
			<g>
				<rect x="103.874" y="100.639" fill="#FFFFFF" width="6.755" height="11.898"/>
				<path fill="#45929E" d="M110.879,112.787h-7.255v-12.398h7.255V112.787z M104.124,112.287h6.255v-11.398h-6.255V112.287z"/>
			</g>
		</g>
		<g>
			<g>
				<g>
					<polygon fill="#FFFFFF" points="125.449,99.695 117.469,99.695 118.082,100.639 124.837,100.639 					"/>
					<path fill="#45929E" d="M124.973,100.889h-7.026l-0.938-1.443h8.902L124.973,100.889z M118.218,100.389h6.483l0.288-0.443
						h-7.059L118.218,100.389z"/>
				</g>
				<g>
					<rect x="117.469" y="93.977" fill="#FFFFFF" width="1.226" height="5.719"/>
					<path fill="#45929E" d="M118.945,99.945h-1.726v-6.219h1.726V99.945z M117.719,99.445h0.726v-5.219h-0.726V99.445z"/>
				</g>
				<g>
					<rect x="119.158" y="93.977" fill="#FFFFFF" width="1.226" height="5.719"/>
					<path fill="#45929E" d="M120.634,99.945h-1.726v-6.219h1.726V99.945z M119.408,99.445h0.726v-5.219h-0.726V99.445z"/>
				</g>
				<g>
					<rect x="120.846" y="93.977" fill="#FFFFFF" width="1.226" height="5.719"/>
					<path fill="#45929E" d="M122.322,99.945h-1.726v-6.219h1.726V99.945z M121.096,99.445h0.726v-5.219h-0.726V99.445z"/>
				</g>
				<g>
					<rect x="122.535" y="93.977" fill="#FFFFFF" width="1.226" height="5.719"/>
					<path fill="#45929E" d="M124.011,99.945h-1.726v-6.219h1.726V99.945z M122.785,99.445h0.726v-5.219h-0.726V99.445z"/>
				</g>
				<g>
					<rect x="124.224" y="93.977" fill="#FFFFFF" width="1.226" height="5.719"/>
					<path fill="#45929E" d="M125.699,99.945h-1.726v-6.219h1.726V99.945z M124.474,99.445h0.726v-5.219h-0.726V99.445z"/>
				</g>
			</g>
			<g>
				<rect x="118.082" y="100.639" fill="#FFFFFF" width="6.755" height="11.898"/>
				<path fill="#45929E" d="M125.087,112.787h-7.255v-12.398h7.255V112.787z M118.332,112.287h6.255v-11.398h-6.255V112.287z"/>
			</g>
		</g>
		<g>
			<g>
				<g>
					<polygon fill="#FFFFFF" points="139.658,99.695 131.677,99.695 132.289,100.639 139.045,100.639 					"/>
					<path fill="#45929E" d="M139.181,100.889h-7.026l-0.938-1.443h8.903L139.181,100.889z M132.426,100.389h6.483l0.288-0.443
						h-7.06L132.426,100.389z"/>
				</g>
				<g>
					<rect x="131.677" y="93.977" fill="#FFFFFF" width="1.226" height="5.719"/>
					<path fill="#45929E" d="M133.152,99.945h-1.726v-6.219h1.726V99.945z M131.927,99.445h0.726v-5.219h-0.726V99.445z"/>
				</g>
				<g>
					<rect x="133.365" y="93.977" fill="#FFFFFF" width="1.227" height="5.719"/>
					<path fill="#45929E" d="M134.842,99.945h-1.727v-6.219h1.727V99.945z M133.615,99.445h0.727v-5.219h-0.727V99.445z"/>
				</g>
				<g>
					<rect x="135.055" y="93.977" fill="#FFFFFF" width="1.226" height="5.719"/>
					<path fill="#45929E" d="M136.53,99.945h-1.726v-6.219h1.726V99.945z M135.305,99.445h0.726v-5.219h-0.726V99.445z"/>
				</g>
				<g>
					<rect x="136.743" y="93.977" fill="#FFFFFF" width="1.226" height="5.719"/>
					<path fill="#45929E" d="M138.219,99.945h-1.726v-6.219h1.726V99.945z M136.993,99.445h0.726v-5.219h-0.726V99.445z"/>
				</g>
				<g>
					<rect x="138.432" y="93.977" fill="#FFFFFF" width="1.227" height="5.719"/>
					<path fill="#45929E" d="M139.908,99.945h-1.727v-6.219h1.727V99.945z M138.682,99.445h0.727v-5.219h-0.727V99.445z"/>
				</g>
			</g>
			<g>
				<rect x="132.289" y="100.639" fill="#FFFFFF" width="6.756" height="11.898"/>
				<path fill="#45929E" d="M139.295,112.787h-7.256v-12.398h7.256V112.787z M132.539,112.287h6.256v-11.398h-6.256V112.287z"/>
			</g>
		</g>
		<g>
			<g>
				<g>
					<polygon fill="#FFFFFF" points="153.865,99.695 145.885,99.695 146.498,100.639 153.252,100.639 					"/>
					<path fill="#45929E" d="M153.389,100.889h-7.027l-0.938-1.443h8.902L153.389,100.889z M146.633,100.389h6.484l0.287-0.443
						h-7.059L146.633,100.389z"/>
				</g>
				<g>
					<rect x="145.885" y="93.977" fill="#FFFFFF" width="1.227" height="5.719"/>
					<path fill="#45929E" d="M147.361,99.945h-1.727v-6.219h1.727V99.945z M146.135,99.445h0.727v-5.219h-0.727V99.445z"/>
				</g>
				<g>
					<rect x="147.573" y="93.977" fill="#FFFFFF" width="1.226" height="5.719"/>
					<path fill="#45929E" d="M149.049,99.945h-1.726v-6.219h1.726V99.945z M147.823,99.445h0.726v-5.219h-0.726V99.445z"/>
				</g>
				<g>
					<rect x="149.262" y="93.977" fill="#FFFFFF" width="1.227" height="5.719"/>
					<path fill="#45929E" d="M150.738,99.945h-1.727v-6.219h1.727V99.945z M149.512,99.445h0.727v-5.219h-0.727V99.445z"/>
				</g>
				<g>
					<rect x="150.951" y="93.977" fill="#FFFFFF" width="1.226" height="5.719"/>
					<path fill="#45929E" d="M152.427,99.945h-1.726v-6.219h1.726V99.945z M151.201,99.445h0.726v-5.219h-0.726V99.445z"/>
				</g>
				<g>
					<rect x="152.64" y="93.977" fill="#FFFFFF" width="1.226" height="5.719"/>
					<path fill="#45929E" d="M154.115,99.945h-1.726v-6.219h1.726V99.945z M152.89,99.445h0.726v-5.219h-0.726V99.445z"/>
				</g>
			</g>
			<g>
				<rect x="146.498" y="100.639" fill="#FFFFFF" width="6.754" height="11.898"/>
				<path fill="#45929E" d="M153.502,112.787h-7.254v-12.398h7.254V112.787z M146.748,112.287h6.254v-11.398h-6.254V112.287z"/>
			</g>
		</g>
		<g>
			<g>
				<g>
					<polygon fill="#FFFFFF" points="168.074,99.695 160.093,99.695 160.705,100.639 167.461,100.639 					"/>
					<path fill="#45929E" d="M167.596,100.889h-7.025l-0.938-1.443h8.903L167.596,100.889z M160.842,100.389h6.482l0.289-0.443
						h-7.06L160.842,100.389z"/>
				</g>
				<g>
					<rect x="160.093" y="93.977" fill="#FFFFFF" width="1.226" height="5.719"/>
					<path fill="#45929E" d="M161.568,99.945h-1.726v-6.219h1.726V99.945z M160.343,99.445h0.726v-5.219h-0.726V99.445z"/>
				</g>
				<g>
					<rect x="161.781" y="93.977" fill="#FFFFFF" width="1.227" height="5.719"/>
					<path fill="#45929E" d="M163.258,99.945h-1.727v-6.219h1.727V99.945z M162.031,99.445h0.727v-5.219h-0.727V99.445z"/>
				</g>
				<g>
					<rect x="163.471" y="93.977" fill="#FFFFFF" width="1.226" height="5.719"/>
					<path fill="#45929E" d="M164.946,99.945h-1.726v-6.219h1.726V99.945z M163.721,99.445h0.726v-5.219h-0.726V99.445z"/>
				</g>
				<g>
					<rect x="165.158" y="93.977" fill="#FFFFFF" width="1.227" height="5.719"/>
					<path fill="#45929E" d="M166.635,99.945h-1.727v-6.219h1.727V99.945z M165.408,99.445h0.727v-5.219h-0.727V99.445z"/>
				</g>
				<g>
					<rect x="166.848" y="93.977" fill="#FFFFFF" width="1.227" height="5.719"/>
					<path fill="#45929E" d="M168.324,99.945h-1.727v-6.219h1.727V99.945z M167.098,99.445h0.727v-5.219h-0.727V99.445z"/>
				</g>
			</g>
			<g>
				<rect x="160.705" y="100.639" fill="#FFFFFF" width="6.756" height="11.898"/>
				<path fill="#45929E" d="M167.711,112.787h-7.256v-12.398h7.256V112.787z M160.955,112.287h6.256v-11.398h-6.256V112.287z"/>
			</g>
		</g>
		<g>
			<g>
				<g>
					<polygon fill="#FFFFFF" points="182.281,99.695 174.301,99.695 174.914,100.639 181.668,100.639 					"/>
					<path fill="#45929E" d="M181.805,100.889h-7.027l-0.938-1.443h8.902L181.805,100.889z M175.049,100.389h6.484l0.287-0.443
						h-7.059L175.049,100.389z"/>
				</g>
				<g>
					<rect x="174.301" y="93.977" fill="#FFFFFF" width="1.226" height="5.719"/>
					<path fill="#45929E" d="M175.776,99.945h-1.726v-6.219h1.726V99.945z M174.551,99.445h0.726v-5.219h-0.726V99.445z"/>
				</g>
				<g>
					<rect x="175.989" y="93.977" fill="#FFFFFF" width="1.226" height="5.719"/>
					<path fill="#45929E" d="M177.465,99.945h-1.726v-6.219h1.726V99.945z M176.239,99.445h0.726v-5.219h-0.726V99.445z"/>
				</g>
				<g>
					<rect x="177.678" y="93.977" fill="#FFFFFF" width="1.227" height="5.719"/>
					<path fill="#45929E" d="M179.154,99.945h-1.727v-6.219h1.727V99.945z M177.928,99.445h0.727v-5.219h-0.727V99.445z"/>
				</g>
				<g>
					<rect x="179.367" y="93.977" fill="#FFFFFF" width="1.226" height="5.719"/>
					<path fill="#45929E" d="M180.843,99.945h-1.726v-6.219h1.726V99.945z M179.617,99.445h0.726v-5.219h-0.726V99.445z"/>
				</g>
				<g>
					<rect x="181.056" y="93.977" fill="#FFFFFF" width="1.226" height="5.719"/>
					<path fill="#45929E" d="M182.531,99.945h-1.726v-6.219h1.726V99.945z M181.306,99.445h0.726v-5.219h-0.726V99.445z"/>
				</g>
			</g>
			<g>
				<rect x="174.914" y="100.639" fill="#FFFFFF" width="6.754" height="11.898"/>
				<path fill="#45929E" d="M181.918,112.787h-7.254v-12.398h7.254V112.787z M175.164,112.287h6.254v-11.398h-6.254V112.287z"/>
			</g>
		</g>
	</g>
	<g>
		<g>
			<g>
				<rect x="91.69" y="268.566" fill="#FFFFFF" width="38.556" height="32.516"/>
				<path fill="#45929E" d="M130.496,301.332H91.44v-33.016h39.056V301.332z M91.94,300.832h38.056v-32.016H91.94V300.832z"/>
			</g>
			<g>
				<rect x="93.976" y="270.494" fill="#FFFFFF" width="33.985" height="28.66"/>
				<path fill="#45929E" d="M128.211,299.404H93.726v-29.16h34.485V299.404z M94.226,298.904h33.485v-28.16H94.226V298.904z"/>
			</g>
			<g>
				<g>
					<rect x="100.051" y="270.494" fill="#FFFFFF" width="1.185" height="28.66"/>
					<path fill="#45929E" d="M101.486,299.404h-1.685v-29.16h1.685V299.404z M100.301,298.904h0.685v-28.16h-0.685V298.904z"/>
				</g>
				<g>
					<rect x="110.376" y="270.494" fill="#FFFFFF" width="1.185" height="28.66"/>
					<path fill="#45929E" d="M111.811,299.404h-1.685v-29.16h1.685V299.404z M110.626,298.904h0.685v-28.16h-0.685V298.904z"/>
				</g>
				<g>
					<rect x="120.701" y="270.494" fill="#FFFFFF" width="1.185" height="28.66"/>
					<path fill="#45929E" d="M122.135,299.404h-1.685v-29.16h1.685V299.404z M120.951,298.904h0.685v-28.16h-0.685V298.904z"/>
				</g>
			</g>
		</g>
		<g>
			<g>
				<rect x="141.088" y="268.566" fill="#FFFFFF" width="38.557" height="32.516"/>
				<path fill="#45929E" d="M179.895,301.332h-39.057v-33.016h39.057V301.332z M141.338,300.832h38.057v-32.016h-38.057V300.832z"/>
			</g>
			<g>
				<rect x="143.374" y="270.494" fill="#FFFFFF" width="33.984" height="28.66"/>
				<path fill="#45929E" d="M177.608,299.404h-34.484v-29.16h34.484V299.404z M143.624,298.904h33.484v-28.16h-33.484V298.904z"/>
			</g>
			<g>
				<g>
					<rect x="149.449" y="270.494" fill="#FFFFFF" width="1.186" height="28.66"/>
					<path fill="#45929E" d="M150.885,299.404h-1.686v-29.16h1.686V299.404z M149.699,298.904h0.686v-28.16h-0.686V298.904z"/>
				</g>
				<g>
					<rect x="159.773" y="270.494" fill="#FFFFFF" width="1.186" height="28.66"/>
					<path fill="#45929E" d="M161.209,299.404h-1.686v-29.16h1.686V299.404z M160.023,298.904h0.686v-28.16h-0.686V298.904z"/>
				</g>
				<g>
					<rect x="170.099" y="270.494" fill="#FFFFFF" width="1.185" height="28.66"/>
					<path fill="#45929E" d="M171.533,299.404h-1.685v-29.16h1.685V299.404z M170.349,298.904h0.685v-28.16h-0.685V298.904z"/>
				</g>
			</g>
		</g>
	</g>
</g>
</svg>
