<?xml version="1.0" encoding="utf-8"?>
<!-- Generator: Adobe Illustrator 16.0.0, SVG Export Plug-In . SVG Version: 6.00 Build 0)  -->
<!DOCTYPE svg PUBLIC "-//W3C//DTD SVG 1.1//EN" "http://www.w3.org/Graphics/SVG/1.1/DTD/svg11.dtd">
<svg version="1.1" id="Layer_1" xmlns="http://www.w3.org/2000/svg" xmlns:xlink="http://www.w3.org/1999/xlink" x="0px" y="0px"
	 width="452.857px" height="247.143px" viewBox="0 0 452.857 247.143" enable-background="new 0 0 452.857 247.143"
	 xml:space="preserve">
<g>
	<path fill="#45929E" d="M445.704,66.6c-0.76-5.117-3.584-8.438-7.245-10.967c0.109-0.146,0.194-0.315,0.209-0.538
		c0.278-4.312-1.903-7.597-5.961-9.181c-2.582-1.009-5.216-1.482-7.964-1.748c-4.394-0.424-8.587,1.489-12.992,0.688
		c-3.107-0.564-5.579-2.856-8.426-4.055c-3.48-1.465-7.089-2.156-10.833-2.476c-9.644-0.824-18.181,0.893-26.986-4.426
		c-0.463-0.28-0.897-0.13-1.179,0.176c-2.119-2.998-5.71-4.117-9.37-4.777c-6.572-1.185-12.514-1.07-18.713-3.967
		c-11.821-5.524-24.882-22.979-39.286-16.742c-2.749,1.191-5.104,3.375-7.511,5.113c-3.633,2.623-7.82,3.849-12.249,4.133
		c-6.481,0.417-12.7-1.298-19.02,0.927c-6.451,2.271-10.39,8.729-14.901,13.437c-4.047,4.221-8.895,4.695-14.382,5.454
		c-4.482,0.619-8.241,3.146-12.494,4.479c-0.308,0.096-0.504,0.29-0.608,0.519c-7.801,4.627-12.979,12.448-20.91,16.818
		c-5.739,3.162-12.38,2.289-18.625,3.205c-7.398,1.084-12.251,7.439-19.987,7.975c-5.937,0.411-11.79-2.003-17.744-1.044
		c-4.216,0.679-7.604,2.34-10.928,4.984c-4.034,3.209-7.238,7.267-11.437,10.311c-4.919,3.565-11.507,4.03-16.625,7.572
		c-4.602,3.185-8.61,6.819-13.725,9.246c-5.594,2.655-11.7,2.718-17.727,2.139c-10.252-0.985-20.512-2.456-30.751-0.557
		c-22.225,4.12-25.922,28.79-29.964,47.198c-0.041,0.186-0.022,0.35,0.021,0.502c-0.028,0.528,0.375,1.023,0.846,1.113
		c2.441,4.703,8.213,6.672,12.921,8.309c7.872,2.734,16.56,3.49,23.964,7.375c-2.973,0.34-5.922,0.725-8.779,1.326
		c-5.719,1.207-16.114,3.424-17.25,10.482c-0.067,0.137-0.111,0.293-0.093,0.49c0.005,0.052,0.013,0.1,0.019,0.15
		c-0.005,0.062-0.015,0.121-0.019,0.184c-0.01,0.189,0.033,0.342,0.099,0.475c1.53,11.137,12.446,13.338,22.31,13.121
		c6.777-0.149,13.43-1.625,20.204-1.793c2.136-0.053,4.266,0.005,6.394,0.12c0.19,0.082,0.401,0.1,0.609,0.038
		c5.477,0.326,10.937,1.043,16.413,1.476c-1.011,5.941-4.921,11.699-7.436,17.099c-2.051,4.406-5.398,10.509-3.942,15.526
		c1.431,4.929,8.541,2.536,11.461,0.894c3.661-2.059,6.362-5.685,9.427-8.473c4.405-4.008,10.594-3.828,15.299-7.285
		c0.035-0.025,0.061-0.055,0.091-0.082c5.669,6.023,11.396,12.005,18.988,15.559c8.741,4.092,18.85,3.592,28.04,1.557
		c4.918-1.089,9.648-2.937,14.215-5.033c4.67-2.145,8.074-6.076,12.667-8.334c0.209-0.104,0.327-0.25,0.406-0.407
		c0.822-0.147,1.641-0.339,2.452-0.575c4.32-1.259,7.95-3.794,12.428-4.422c-1.408,5.479-1.296,10.464,3.325,12.409
		c3.288,1.384,7.745-1.585,10.292-3.276c3.801-2.522,7.376-5.717,10.299-9.219c0.024-0.028,0.028-0.061,0.049-0.09
		c1.775,4.601,3.467,9.205,4.44,14.155c0.758,3.857,2.388,12.65,7.783,12.473c3.779-0.125,5.88-6.204,6.913-8.956
		c1.709-4.553,2.392-9.862,1.782-14.873c6.829,3.832,16.037,21.701,24.365,13.625c5.594-5.426,0.87-12.982-4.39-19.684
		c4.684,0.344,18.496,4.451,18.946-2.42c0.312-4.76-3.443-9.9-7.023-12.764c4.117-1.475,8.668-3.614,4.273-8.325
		c-6.924-7.423-15.477-5.204-24.604-5.735c-2.021-0.118-3.863-0.672-5.618-1.449c2.92-4.529,5.91-9.006,9.043-13.385
		c0.377-0.159,0.675-0.542,0.671-0.947c1.317-1.82,2.655-3.625,4.037-5.4c4.265-5.482,7.928-10.81,10.634-17.256
		c2.855-6.804,4.482-14.1,6.396-21.202c2.005-7.441,5.253-14.061,9.66-20.369c8.496-12.159,20.771-22.291,34.212-28.496
		c16.91-7.807,35.646-7.708,52.9-1.414c-1.194,0.823-2.435,1.615-3.542,2.636c-3.275,3.021-5.622,7.258-4.976,11.812
		c0.456,3.211,4.131,4.394,6.906,3.899c6.96-1.238,11.343-7.4,17.271-10.677c0.071-0.04,0.11-0.094,0.166-0.141
		c0.707,1.587,1.262,3.253,1.475,5.217c0.262,2.421,0.552,4.732,1.522,6.986c1.56,3.62,7.421,5.84,10.933,3.844
		c4.546-2.583,5.576-8.926,5.12-14.809c5.218,5.154,15.493,19.963,21.943,11.342c3.334-4.457,4.624-9.838,1.678-14.776
		c-0.656-1.1-1.448-2.081-2.32-2.995C438.562,71.027,446.772,73.794,445.704,66.6z M315.006,13.697
		c2.338,1.438,4.592,3.01,6.826,4.612c-5.114-0.306-10.197-0.731-15.324-0.262c1.888-2.776,5.088-3.725,8.425-4.321
		C314.962,13.721,314.979,13.704,315.006,13.697z M297.967,10.316c4.845-2.572,10.089-0.53,14.502,1.896
		c-3.332,0.84-6.139,2.32-7.908,5.229c-2.144-2.974-5.056-5.052-8.722-5.842C296.525,11.144,297.229,10.708,297.967,10.316z
		 M302.983,18.667c-4.103,1.062-7.463,3.211-11.189,5.549c2.104-3.218,3.614-6.681,4.073-10.562
		C298.852,14.442,301.202,16.174,302.983,18.667z M290.456,15.429c1.198-0.805,2.337-1.669,3.49-2.509
		c-0.379,4.452-2.348,8.339-4.963,11.878c-2.12-2.56-4.708-4.333-7.753-5.539C284.469,18.605,287.556,17.377,290.456,15.429z
		 M278.983,20.58c3.447,1.081,6.325,2.807,8.578,5.622c-3.526,1.08-7.291,1.094-11.034,1.647c-2.386,0.352-4.535,0.877-6.551,1.62
		C272.055,25.75,276.656,24.248,278.983,20.58z M252.963,24.521c5.644-5.762,13.029-5.13,20.358-4.722
		c1.286,0.072,2.55,0.057,3.797-0.013c-2.425,3.66-6.917,5.133-9.038,9.046c-4.084-4.501-10.987-4.643-16.627-2.702
		C251.949,25.584,252.449,25.045,252.963,24.521z M267.085,30.751c-2.019,1.043-3.938,2.358-5.856,4.055
		c-1.334,1.18-2.551,2.483-3.726,3.829c-0.916-4.055-2.811-7.605-5.704-10.533C256.887,26.229,263.628,26.176,267.085,30.751z
		 M222.298,42.163c-0.012-0.082-0.048-0.136-0.072-0.203c1.776-0.77,3.559-1.526,5.44-2.046c3.444-0.953,7.546-0.401,10.839-1.955
		c4.464-2.107,7.649-5.779,10.838-9.442c3.298,2.937,5.351,6.568,6.284,10.86c-7.331,2.322-17.465,5.554-20.438,13.074
		c-2.392-4.164-8.131-5.231-13.146-3.93C222.424,46.44,222.603,44.331,222.298,42.163z M254.943,41.686
		c-1.353,1.673-2.688,3.36-4.094,4.961c-4.082,4.644-8.742,7.334-14.418,8.913C237.504,47.398,247.632,43.983,254.943,41.686z
		 M221.6,50.727c5.022-1.647,12.049-0.824,12.673,5.369c-0.163,0.036-0.323,0.075-0.488,0.11c-5.165,1.087-9.021,3.069-12.607,7
		c-0.524,0.574-1.014,1.167-1.484,1.77c-0.958-4.872,0.758-9.508,1.888-14.246C221.587,50.727,221.593,50.729,221.6,50.727z
		 M195.893,61.195c8.353-4.045,13.468-12.707,21.612-17.236c0.079-0.044,0.125-0.104,0.184-0.158
		c0.91-0.315,1.802-0.673,2.688-1.046c0.957,7.01-3.047,13.225-2.907,20.023c-5.53-5.032-14.534-1.624-20.409,2.622
		c-0.809-1.197-1.564-2.438-2.173-3.76C195.222,61.495,195.558,61.357,195.893,61.195z M198.204,67.029
		c5.871-4.204,15.595-8.287,19.933-0.096c0.017,0.031,0.042,0.046,0.061,0.074c-3.064,4.408-5.473,9.117-10.188,12.388
		c-1.503,1.042-3.165,1.768-4.907,2.321C204.947,75.722,201.485,71.579,198.204,67.029z M196.035,67.295
		c3.381,4.62,7.247,8.849,4.721,15.065c-3.46,0.814-7.098,1.198-10.379,2.116c-2.316,0.648-4.39,1.757-6.34,3.074
		C184.659,78.978,195.396,75.167,196.035,67.295z M169.366,67.739c4.059-2.511,7.976-3.403,12.729-3.592
		c3.875-0.154,7.453-0.573,10.982-1.799c0.016,0.084,0.021,0.167,0.06,0.253c4.645,10.057-8.961,14.706-10.908,23.596
		c-3.834-7.347-10.337-14.154-18.441-15.25C165.744,70.09,167.559,68.857,169.366,67.739z M181.556,89.355
		c-1.229,0.976-2.422,2.003-3.596,3.033c-4.892,4.288-9.38,4.463-15.523,4.69c1.619-7.566,10.097-11.433,11.43-18.889
		C177.207,81.317,179.85,85.4,181.556,89.355z M157.267,73.393c0.27-0.102,0.44-0.283,0.546-0.491
		c0.207,0.147,0.475,0.22,0.787,0.158c5.153-1.027,9.815,0.704,13.688,3.77c-0.146,0.153-0.261,0.344-0.288,0.599
		c-0.435,4.05-4.035,7.083-6.557,9.987c-1.433,1.65-2.693,3.392-3.627,5.294c-0.631-2.164-1.919-4.015-4.314-4.922
		c-3.881-1.47-8.21-0.939-12.328-0.748C149.469,82.661,151.326,75.645,157.267,73.393z M134.206,99.66
		c5.729-0.766,12.873-3.742,10.188-10.593c2.976-0.079,5.947-0.327,8.924-0.153c5.117,0.3,7.1,3.462,7.016,8.312
		c-4.732,0.5-8.743,2.333-12.699,5.149c-4.088,2.911-7.262,5.161-11.508,6.159C136.497,105.25,135.781,102.132,134.206,99.66z
		 M108.932,104.046c4.689-0.203,9.584-1.813,12.941-4.788c1.014-0.898,1.813-1.846,2.462-2.828
		c6.833,0.019,10.855,5.857,9.739,12.469c-0.863,0.112-1.769,0.181-2.74,0.195c-3.316,0.048-6.243,0.322-9.109,1.152
		c-0.107-0.213-0.311-0.383-0.625-0.449C116.838,108.8,113.158,105.791,108.932,104.046z M119.411,111.274
		c-0.841,0.363-1.685,0.764-2.542,1.252c-6.077,3.462-10.571,7.823-17.926,8.366c-0.565,0.042-1.131,0.054-1.698,0.053
		c-0.329-2.072-0.978-3.761-1.865-5.169c0.051-0.057,0.108-0.1,0.149-0.175c2.069-3.733,4.91-7.172,7.037-10.836
		C109.061,104.608,113.555,109.383,119.411,111.274z M128.082,76.803c5.09-4.651,10.927-5.771,17.647-5.134
		c3.062,0.291,6.019,0.754,8.947,0.842c-5.33,3.357-6.956,10.323-11.984,14.109c-3.805-3.235-11.619-1.527-15.759-2.822
		c-0.243-0.076-0.447-0.044-0.627,0.03c-0.181-1.428-0.422-2.875-0.674-4.331c-0.017-0.1-0.061-0.169-0.098-0.248
		C126.373,78.418,127.215,77.595,128.082,76.803z M126.506,85.753c4.008,1.216,8.38,0.391,12.45,1.423
		c0.968,0.246,1.837,0.714,2.521,1.336c0.102,0.218,0.268,0.393,0.476,0.498c1.113,1.319,1.487,3.13,0.516,4.98
		c-1.476,2.813-6.334,3.498-9.135,3.771c-0.185,0.018-0.335,0.084-0.467,0.169c-1.845-1.953-4.381-3.248-7.459-3.478
		C126.576,91.75,126.749,88.81,126.506,85.753z M105.298,92.497c-0.093-0.526-0.479-0.728-0.883-0.709
		c4.528-2.326,9.664-2.92,13.906-5.995c1.993-1.445,3.78-3.144,5.534-4.877c0.831,4.864,1.491,9.733-0.787,13.765
		c-0.155,0.136-0.264,0.306-0.316,0.5c-0.726,1.136-1.687,2.205-2.981,3.177c-4.073,3.061-10.207,4.374-15.171,3.44
		c-0.216-0.041-0.4-0.001-0.568,0.065C105.271,99.013,105.911,95.966,105.298,92.497z M81.652,105.258
		c8.119-2.206,14.112-8.139,21.33-12.665c0.18-0.113,0.364-0.215,0.547-0.321c-0.137,0.203-0.211,0.457-0.159,0.755
		c1.462,8.288-5.44,14.459-9.277,21.072c-3.111-3.337-8.009-4.575-13.277-5.483c0.417-0.898,0.712-1.947,0.853-3.188
		C81.675,105.364,81.655,105.317,81.652,105.258z M95.229,120.865c-4.994-0.389-10.016-2.053-14.815-3.073
		c-5.403-1.148-10.918-1.571-16.3-1.032c-0.185-0.376-0.384-0.717-0.593-1.036c5.372-1.794,12.586-1.264,16.116-5.292
		C86.605,111.589,93.856,112.89,95.229,120.865z M47.647,104.316c9.747-0.082,19.415,2.417,29.134,1.774
		c0.981-0.065,1.92-0.203,2.841-0.372c-1.159,7.889-11.831,6.13-17.494,8.39c-4.015-3.488-10.504-1.322-15.453-3.794
		C47.526,108.536,48.009,106.606,47.647,104.316z M40.693,122.209c0.299-4.016,3.036-6.937,5.017-10.155
		c5.102,2.495,12.914-0.119,16.241,4.976c-4.896,0.737-9.652,2.313-14.076,4.933c-0.878,0.521-1.709,1.092-2.514,1.688
		C43.746,122.802,42.194,122.34,40.693,122.209z M43.631,125.027c-6.43,5.534-10.271,13.512-11.946,21.839
		c-2.845-3.811-3.583-9.379-4.164-14.485C32.288,127.825,36.909,122.11,43.631,125.027z M45.711,104.368
		c-0.014,0.104-0.029,0.209-0.008,0.327c1.171,6.751-6.522,10.929-7.012,17.534c-2.747,0.313-5.327,1.759-7.812,4.067
		c-1.23,1.143-2.425,2.459-3.628,3.726c-0.127-1.081-0.261-2.126-0.424-3.104c-0.632-3.808-1.507-9.717-5.68-11.265
		C26.948,108.077,35.644,104.828,45.711,104.368z M17.885,120.993c0.625-1.311,1.32-2.521,2.065-3.658
		c0.042,0.017,0.07,0.045,0.118,0.058c4.322,1.124,5.072,9.281,5.567,14.266c-3.456,3.33-7.149,5.434-12.103,1.193
		C14.685,128.803,16.059,124.823,17.885,120.993z M12.95,134.943c5.238,4.001,9.206,2.147,12.933-1.065
		c0.007,0.053,0.015,0.111,0.022,0.162c0.674,4.535,1.292,9.741,3.936,13.653c-7.17-1.919-14.481-3.379-19.956,0.616
		C10.844,143.842,11.782,139.356,12.95,134.943z M27.441,160.442c-5.595-1.422-14.829-3.971-17.571-9.506
		c8.674-8.176,25.644,1.805,35.939,1.749c7.532-0.041,15.116-1.843,22.596-0.244c2.189,0.468,4.254,1.665,5.891,3.167
		c2.432,2.232-0.912,4.459-2.33,5.412c-2.5,1.681-5.463,2.709-8.304,3.636c-4.845,1.582-10.052,2.204-15.26,2.776
		c-0.064-0.072-0.137-0.141-0.23-0.2C41.762,163.183,34.654,162.277,27.441,160.442z M97.832,214.347
		c-3.25,1.619-5.714,4.025-8.24,6.588c-3.134,3.178-6.288,6.027-10.924,6.494c-3.443,0.347-3.544-2.8-3.095-5.281
		c1.792-9.92,9.735-17.93,11.393-27.786c0.021-0.128,0.008-0.243-0.011-0.354c0.137,0.008,0.273,0.021,0.41,0.029
		c0.015,0.006,0.022,0.018,0.038,0.023c8.707,3.111,14.983,9.479,21.156,16.025C105.179,212.431,101.418,212.56,97.832,214.347z
		 M171.605,221.233c-4.576,2.644-10.078,4.225-15.181,5.497c-11.093,2.768-22.604,1.771-32.253-4.586
		c-11.94-7.865-18.98-21.198-31.565-27.93c0.62,0.001,1.241-0.003,1.862-0.019c10.095-0.252,19.785-0.588,29.782,1.293
		c9.935,1.871,19.199,5.818,28.194,10.306c7.733,3.858,15.599,7.854,24.229,9.18c1.107,0.17,2.213,0.251,3.314,0.262
		C177.143,217.153,174.605,219.501,171.605,221.233z M175.409,212.833c-7.713-1.23-15.14-5.365-21.955-8.766
		c-10.627-5.301-21.357-9.105-32.671-10.97c5.145-2.144,9.955-6.61,15.232-3.698c2.511,1.386,4.035,4.777,6.028,6.814
		c1.915,1.957,4.436,2.775,7.066,3.171c5.334,0.804,10.811-0.026,16.178,0.203C173.642,199.944,176.467,204.954,175.409,212.833z
		 M193.128,209.409c-4.789,1.703-9.328,4.063-14.808,3.75c-0.313-0.019-0.626-0.054-0.938-0.082
		c0.678-5.074,0.51-10.455-4.173-13.537c-4.64-3.053-11.688-2.003-16.891-1.877c-3.488,0.084-7.256,0.191-10.522-1.212
		c-3.525-1.515-5.126-5.622-7.858-8.103c-7.243-6.575-15.101,4.814-22.338,3.782c-0.294-0.042-0.545,0.038-0.747,0.177
		c-3.196-0.326-6.443-0.501-9.753-0.508c-2.426-0.005-4.828,0.014-7.219,0.031c13.149-6.832,25.306-25.132,39.926-16.229
		c4.416,2.689,7.647,6.76,12.316,9.189c3.528,1.836,7.502,2.463,11.408,2.889c6.062,0.659,12.127,0.382,18.067,1.975
		c8.151,2.186,14.686,10.64,13.438,19.174C193.004,209.05,193.052,209.238,193.128,209.409z M262.943,179.169
		c4.33-0.185,8.368-0.01,12.271,2.098c0.993,0.536,6.685,4.613,3.958,6.556c-1.396,0.994-3.502,1.421-5.104,1.976
		c-0.089,0.031-0.149,0.084-0.22,0.129c-4.713-2.429-10.996-1.998-15.916-3.463c-1.239-0.368-1.765,1.563-0.531,1.93
		c4.02,1.195,8.165,1.408,12.251,2.264c5.777,1.211,9.653,6.186,11.179,11.694c1.712,6.185-14.349,2.009-17.497,2.077
		c-0.314,0.007-0.55,0.133-0.711,0.317c-2.859-3.537-5.631-6.749-6.76-9.155c-0.547-1.168-2.271-0.151-1.727,1.01
		c3.313,7.064,19.901,19.779,12.823,28.121c-5.559,6.551-17.999-12.592-23.35-14.586c-0.313-1.488-0.743-2.935-1.313-4.307
		c-0.486-1.174-2.422-0.659-1.928,0.531c2.245,5.413,2.01,10.945,0.983,16.617c-0.59,3.262-5.065,16.332-9.464,8.234
		c-2.58-4.751-2.759-10.688-4.201-15.82c-1.557-5.543-4.568-10.722-6.391-16.229c-0.402-1.219-2.334-0.697-1.928,0.531
		c0.946,2.861,2.023,5.636,3.097,8.398c-0.282-0.067-0.587-0.008-0.84,0.295c-4.081,4.891-9.895,10.336-16.178,12.002
		c-6.21,1.646-4.761-7.768-3.869-10.968c1.596-5.729,4.71-10.905,6.051-16.728c0.29-1.255-1.639-1.788-1.928-0.531
		c-0.725,3.143-4.062,9.508-5.988,15.658c-1.625,0.148-3.172,0.506-4.684,0.963c1.346-11.575-8.173-20.023-18.873-21.938
		c-6.326-1.132-12.818-0.628-19.15-1.825c-6.489-1.229-11.142-5.322-15.981-9.51c-17.338-15.002-32.699,12.313-48.627,16.336
		c-5.398-0.008-10.782-0.133-16.283-0.7c-1.92-0.198-3.82-0.354-5.709-0.475c3.055-3.393,5.796-7.13,9.472-9.871
		c6.021-4.49,14.683-5.102,21.677-7.339c6.504-2.08,11.518-6.8,17.815-9.269c7.639-2.995,16.869,0.448,24.696,1.162
		c3.116,0.284,6.183-0.196,9.28-0.444c4.109-0.328,7.238,2.031,9.817,4.956c4.241,4.81,7.688,8.362,13.791,10.884
		c5.203,2.148,10.864,1.659,15.913-0.582c5.346-2.375,11.375-8.03,17.605-6.885c-1.87,1.144-3.654,2.366-5.313,3.615
		c-1.017,0.765-0.021,2.503,1.01,1.727c6.426-4.839,13.402-8.391,21.472-9.369c7.741-0.938,12.563,2.774,18.623,6.713
		c0.353,0.229,0.707,0.439,1.063,0.64c0.123,0.573,0.842,0.954,1.416,0.712C253.198,179.346,257.903,179.383,262.943,179.169z
		 M287.608,74.111c4.345,2.034,7.326,5.579,8.617,10.091c-6.107-2.607-16.185-2.029-17.374,4.473
		c-3.99-4.214-10.494-4.125-15.972-1.887c0.14-0.364,0.272-0.732,0.418-1.093c0.052-0.129,0.064-0.246,0.065-0.357
		c0.476-0.486,0.968-0.961,1.491-1.412c1.938-1.669,4.188-2.949,6.542-4.045c0.032,0.027,0.062,0.055,0.1,0.08
		C277.628,83.923,285.206,80.567,287.608,74.111z M273.682,78.87c1.904-0.788,3.835-1.496,5.693-2.218
		c2.065-0.803,4.104-1.64,6.088-2.589C283.412,78.599,278.311,81,273.682,78.87z M289.721,73.019
		c1.393-0.609,2.816-1.021,4.411-1.188c0.875-0.067,1.739,0.011,2.593,0.232c3.673,0.804,0.278,4.615-1.214,6.119
		C294.012,76.086,292.057,74.347,289.721,73.019z M278.759,91.927c-4.111,1.025-7.93,2.736-11.592,4.964
		c0.151-3.313-1.021-6.102-3.554-8.258C269.016,86.38,275.587,86.399,278.759,91.927z M265.037,98.163
		c-0.006,0.031,0.005,0.055,0.002,0.085c-2.306,1.549-4.561,3.285-6.797,5.186c1.038-4.622,2.11-9.229,3.573-13.664
		C264.541,91.812,265.663,94.623,265.037,98.163z M255.401,106.029c-0.055,0.112-0.079,0.226-0.081,0.339
		c-1.354,5.671-2.79,11.278-4.954,16.598c-8.584,4.076-13.006,12.41-19.968,18.434c-6.932,5.998-16.624,4.881-25.032,6.774
		c-5.905,1.33-11.965,4.067-14.329,9.989c-2.758,6.908,6.893,10.828,4.333,17.334c-0.162,0.412-0.031,0.734,0.217,0.943
		c-1.977,1.098-3.964,2.155-6.118,2.941c-4.909,1.79-10.211,0.395-14.704-1.79c-6.371-3.098-9.18-9.519-14.938-13.226
		c-1.98-1.274-4.353-1.621-6.832-1.624c2.444-3.737,5.479-6.465,9.977-7.904c4.971-1.591,10.377-1.271,15.507-1.843
		c10.898-1.214,16.016-11.822,25.804-15.464c5.338-1.985,11.08-2.907,16.456-4.897c4.79-1.773,9.316-4.143,13.57-6.959
		c10.211-6.757,15.665-16.104,20.73-26.936c1.363-2.915,2.781-5.829,4.507-8.522C257.864,95.411,256.66,100.744,255.401,106.029z
		 M239.061,159.452c4.148-4.18,12.624-5.025,16.807-0.681c-6.063-2.146-12.389,1.493-15.324,7.304
		C240.612,163.679,240.42,161.267,239.061,159.452z M223.015,167.839c-3.725,0.91-7.351,2.482-10.726,4.38
		c-0.049-0.337-0.256-0.644-0.689-0.755c-4.508-1.147-8.762,1.064-12.663,3.133c-0.479,0.254-0.953,0.514-1.426,0.775
		c1.657-5.396-3.285-8.255-4.799-13.135c-2.934-9.455,13.707-12.517,19.678-13.268c6.54-0.823,13.018-1.132,18.438-5.384
		c6.762-5.304,10.914-13.081,18.221-17.61c-1.8,3.791-4.054,7.404-7.023,10.749c-8.339,9.39-18.672,17.439-19.024,31.038
		C223,167.791,223.014,167.811,223.015,167.839z M249.618,144.095c-2.184-1.899-4.978-3.133-8.359-3.558
		c1.96-2.073,3.86-4.181,5.544-6.411c0.831-1.102,1.588-2.234,2.291-3.392C248.603,134.96,249.954,140.491,249.618,144.095z
		 M241.482,142.564c6.617,0.97,10.31,5.576,11.49,12.14c-4.068-1.447-9.035-0.905-12.813,1.371
		C241.392,151.587,242.062,147.282,241.482,142.564z M228.309,156.046c0.547,2.193,1.633,3.922,4.318,3.674
		c2.286-0.211,4.347-0.742,5.451,2.005c0.853,2.12,0.493,4.874,0.325,7.282c-1.831-0.904-3.76-1.598-5.881-1.853
		c-2.503-0.301-5.019-0.177-7.503,0.261C225.189,163.124,226.436,159.416,228.309,156.046z M237.509,158.038
		c-1.021-0.563-2.263-0.635-3.403-0.531c-0.648,0.06-1.289,0.195-1.938,0.256c-1.845,0.17-2-2.34-2.203-3.6
		c-0.032-0.203-0.119-0.345-0.224-0.46c2.698-4.05,6.228-7.653,9.723-11.286C240.247,147.882,239.118,152.811,237.509,158.038z
		 M251.406,145.97c3.61-5.475,11.102-5.219,16.197-1.9c-4.295,2.907-8.861,5.389-13.074,8.416
		C253.879,149.972,252.839,147.773,251.406,145.97z M253.509,127.236c4.212-2.929,4.916,9.684,4.837,12.569
		c-2.459,0.238-4.791,1.137-6.688,2.832C251.534,137.163,249.098,130.304,253.509,127.236z M258.981,128.169
		c0.144-0.115,0.265-0.264,0.316-0.475c0.232-0.941,0.414-1.926,0.546-2.93c2.363-7.278,11.397-2.785,14.432,3.305
		c-5.613,1.429-10.453,4.127-13.899,8.611C260.303,134.026,259.97,130.647,258.981,128.169z M267.737,119.701
		c-2.818-1.009-5.671-0.839-7.688,1.026c-0.115-3.322-0.982-6.593-2.976-9.16c6.33-1.916,12.954-1.195,10.63,7.596
		C267.651,119.358,267.68,119.536,267.737,119.701z M257.872,124.481c-0.124,0.422-0.23,0.871-0.318,1.35
		c-0.704-0.712-1.574-1.108-2.652-1.029c-1.332,0.097-2.372,0.437-3.19,0.957c1.798-3.96,3.103-8.136,4.206-12.401
		C258.022,116.487,258.376,120.679,257.872,124.481z M248.157,174.882c-2.513-1.357-4.889-3.074-7.377-4.561
		c0.235-0.103,0.432-0.301,0.518-0.627c1.92-7.287,9.429-12.256,16.156-7.896C254.276,166.122,251.075,170.431,248.157,174.882z
		 M258.976,159.721c-1.029-1.909-2.558-3.321-4.355-4.279c0.22-0.196,0.364-0.474,0.348-0.817c4.213-3.105,8.818-5.603,13.169-8.502
		C265.376,150.809,262.214,155.286,258.976,159.721z M274.993,130.908c-1.302,4.323-3.103,8.389-5.211,12.294
		c-2.625-1.988-5.874-3.229-9.092-3.441c3.317-5.466,8.449-8.404,14.599-9.88C275.189,130.223,275.096,130.567,274.993,130.908z
		 M276.045,127.192c-1.521-3.016-4.098-5.484-6.87-6.875c0.142-0.081,0.271-0.194,0.355-0.384
		c2.561-5.694,7.016-8.382,12.048-11.221C279.137,114.66,277.729,120.981,276.045,127.192z M270.291,114.817
		c-0.104-2.074-0.877-3.966-2.936-5.329c-2.878-1.906-7.16-1.049-10.494,0.023c0.218-0.926,0.432-1.854,0.642-2.784
		c3.071-2.751,6.141-5.212,9.314-7.273c6.102,0.215,11.237,1.79,14.764,6.961C277.189,108.894,273.219,111.106,270.291,114.817z
		 M283.174,105.199c-3.31-4.784-7.929-6.859-13.389-7.52c6.298-3.492,13.117-5.347,21.263-4.687
		C288.033,96.767,285.322,100.869,283.174,105.199z M292.743,90.937c-0.063,0.075-0.125,0.153-0.188,0.229
		c-0.073-0.025-0.137-0.061-0.221-0.07c-4.097-0.458-7.88-0.294-11.44,0.37c-1.653-8.246,10.653-7.668,15.746-4.821
		C295.307,88.03,294.004,89.458,292.743,90.937z M298.439,84.83c-0.375-1.764-1.005-3.383-1.818-4.875
		c4.886-3.683,9.553-6.588,15.698-6.33C307.404,76.833,302.75,80.584,298.439,84.83z M300.09,75.137
		c0.452-1.372,0.318-2.783-0.997-4.071c-1.695-1.659-4.332-1.658-6.86-1.036c1.97-1.534,3.665-3.383,5.308-5.284
		c3.011,4.059,8.006,3.319,12.39,1.316c1.04,1.776,1.844,3.644,2.576,5.562C307.794,71.355,303.864,72.831,300.09,75.137z
		 M298.893,63.175c0.83-0.965,1.666-1.92,2.539-2.828c2.809-2.92,6.223-4.398,9.938-5.027c0.003,0.014-0.002,0.027,0.001,0.042
		c0.555,3.021,0.956,6.465-1.874,8.538c-0.119,0.087-0.209,0.188-0.276,0.297C305.636,65.895,301.357,66.91,298.893,63.175z
		 M326.002,66.426c-3.847,1.57-7.589,3.457-11.198,5.638c-0.942-2.533-1.909-4.983-3.311-7.296c1.654-1.669,2.209-3.746,2.217-5.98
		c1.957,2.472,4.379,4.647,7.455,5.283c2.37,0.49,4.194-0.591,5.594-2.226C326.475,63.366,326.195,64.888,326.002,66.426z
		 M327.703,56.163c-1.462,3.739-3.873,7.466-8.245,5.165c-2.523-1.328-4.426-3.907-5.962-6.276c4.57-0.391,9.49,0.283,14.252,1.041
		C327.735,56.117,327.714,56.136,327.703,56.163z M328.127,65.597c0.172-1.19,0.385-2.396,0.602-3.604
		c0.037-0.015,0.072-0.013,0.11-0.033c5.08-2.718,10.552-2.711,15.584-0.42C338.852,62.262,333.396,63.626,328.127,65.597z
		 M346.671,60.433c-5.561-3.015-11.769-3.42-17.52-0.845c0.175-1.008,0.341-2.014,0.473-3.01c0.003-0.005,0.005-0.149,0.007-0.149
		h-0.004c0.012,0,0.029-0.044,0.04-0.133c0.001-0.011-0.003,0.048-0.002,0.037c3.082,0.498,6.066,1.004,8.806,1.175
		c3.116,0.194,6.535,0.157,10.064,0.14C347.948,58.6,347.291,59.5,346.671,60.433z M348.604,61.123
		c0.777-1.141,1.603-2.238,2.236-3.48c10.286,0.012,21.146,0.651,27.993,7.982C368.688,61.807,358.491,60.434,348.604,61.123z
		 M440.207,69.292c-2.812-0.499-5.444-1.714-8.273-2.161c-0.297-0.047-0.55,0.031-0.753,0.169c-3.025-2.542-6.404-4.787-8.649-8.043
		c-0.727-1.054-2.461-0.055-1.727,1.01c5.647,8.193,19.405,12.293,13,24.323c-5.403,10.148-17.039-7.865-21.632-11.358
		c-0.041-0.031-0.082-0.052-0.124-0.076c-0.342-2.132-0.85-4.098-1.417-5.66c-0.436-1.203-2.369-0.684-1.928,0.531
		c1.962,5.408,3.476,16.824-1.899,20.798c-1.932,1.428-4.76,0.516-6.649-0.459c-2.861-1.477-3.056-5.596-3.343-8.333
		c-0.515-4.922-2.8-8.072-4.948-12.443c-0.568-1.157-2.293-0.144-1.727,1.01c0.792,1.612,1.63,3.061,2.383,4.518
		c-0.116,0.017-0.236,0.045-0.358,0.113c-3.854,2.129-6.976,5.216-10.524,7.788c-2.525,1.831-6.917,4.137-9.869,1.826
		c-2.191-1.716-0.44-5.776,0.483-7.62c2.116-4.22,6.746-5.748,9.788-9.089c2.834-3.113,3.245-7.914,5.156-11.536
		c0.602-1.14-1.125-2.15-1.727-1.01c-1.508,2.857-2.238,5.99-3.524,8.943c-0.354,0.813-0.811,1.493-1.323,2.1
		c-7.894-8.929-22.104-8.881-33.059-8.927c-7.577-0.031-14.887-0.693-22.396-1.694c-6.072-0.809-12.413-1.682-18.337,0.303
		c-3.813,1.277-6.672,4.353-9.255,7.276c-3.917,4.433-7.575,8.057-12.953,10.697c-9.293,4.563-19.41,6.423-25.818,15.302
		c-3.758,5.206-6.04,11.511-8.857,17.238c-3.193,6.488-7.479,11.875-13.058,16.47c-5.353,4.407-11.629,7.536-18.097,9.931
		c-5.39,1.996-11.402,2.652-16.629,4.977c-4.821,2.143-8.512,5.61-12.365,9.13c-5.625,5.137-11.271,5.69-18.557,6.19
		c-9.133,0.627-15.912,3.442-20.643,11.299c-2.894,0.188-5.812,0.596-8.332,0.366c-7.46-0.68-14.332-2.745-21.865-1.394
		c-3.192,0.572-6.228,2.611-8.903,4.301c-3.94,2.488-7.735,4.559-12.208,5.989c-6.884,2.202-14.273,2.928-20.422,6.985
		c-4.415,2.915-7.447,7.686-11.071,11.464c-5.536-0.233-11.014-0.084-16.649,0.64c-10.278,1.319-28.65,3.329-30.126-10.909
		c0.439-5.165,7.788-7.089,11.84-8.239c6.26-1.777,12.804-2.589,19.243-3.412c4.378-0.561,8.768-0.947,12.98-2.322
		c3.567-1.165,10.818-3.43,11.826-7.729c1.069-4.563-4.411-7.019-7.976-8.053c-7.735-2.244-16.6,0.137-24.487,0.18
		c-3.315,0.019-7.125-0.951-11.081-2.035c2.013-11.529,7.964-21.33,18.643-26.673c11.591-5.799,24.29-3.078,36.261-0.352
		c4.347,0.989,9.081,1.821,13.521,0.956c6.298-1.227,10.76-5.043,16.086-8.336c5.673-3.507,11.361-2.762,17.663-3.376
		c5.258-0.512,9.025-3.75,13.103-6.776c5.46-4.052,10.854-4.939,17.521-5.141c3.999-0.122,7.967-0.68,11.15-3.327
		c4.784-3.979,8.77-7.879,14.929-9.602c5.742-1.606,11.517-1.811,16.773-4.908c4.563-2.688,7.515-7.434,10.249-11.791
		c2.118-3.375,4.427-6.327,7.717-8.632c2.867-2.008,6.721-2.409,10.052-3.158c11.072-2.49,16.491-11.689,23.706-19.45
		c4.922-5.294,10.577-7.591,17.638-8.479c4.205-0.528,8.277-0.573,12.182-2.385c4.887-2.267,8.483-5.603,13.861-6.835
		c0.269,0.057,0.552-0.011,0.788-0.177c6.129-1.144,12.63-0.086,18.789,0.213c0.234,0.011,0.411-0.061,0.56-0.161
		c2.539,1.823,5.094,3.622,7.771,5.229c0.775,0.465,1.56,0.886,2.35,1.287c-10.14-0.804-20.455-0.421-30.296,2.169
		c-10.238,2.694-15.678,9.924-20.908,18.611c-1.47,2.441-2.948,4.863-4.597,7.156c-0.125,0.025-0.255,0.082-0.385,0.18
		c-9.693,7.255-22.099,8.105-33.341,11.578c-4.546,1.404-9.151,3.428-12.905,6.39c-5.003,3.945-8.939,9.018-13.485,13.448
		c-5.13,5-11.043,7.243-17.951,8.603c-5.455,1.074-10.622,1.95-15.492,4.779c-2.808,1.631-5.081,4.04-7.828,5.77
		c-2.947,1.855-6.378,2.879-9.675,3.915c-6.391,2.008-11.715,4.324-17.106,8.374c-5.827,4.377-11.434,4.933-18.563,4.339
		c-6.574-0.547-10.597,0.875-15.563,5.002c-6.535,5.432-12.195-1.033-19.216-1.258c-5.686-0.182-10.753,3.444-16.424,3.604
		c-5.549,0.156-10.299-4.157-15.674-5.042c-3.838-0.631-8.153,1.341-10.598,4.252c-2.878,3.429-5.424,11.503,0.04,13.729
		c0.983,0.401,2.221,0.148,3.221,0.012c0.352-0.049,0.554-0.236,0.651-0.471c3.505,0.613,8.913-1.555,11.255-2.964
		c0.125-0.075,0.207-0.169,0.275-0.268c0.073,0.024,0.136,0.062,0.22,0.071c6.316,0.733,11.268,3.342,17.668,1.576
		c3.948-1.089,7.167-2.733,11.39-1.586c3.729,1.013,6.669,4.746,9.492,7.194c7.191,6.239,15.34,7.425,22.787,3.534
		c0.216,0.23,0.529,0.362,0.929,0.245c9.077-2.669,18.476-0.546,27.734-1.631c6.27-0.734,11.71-3.714,16.647-7.49
		c5.376-4.111,10.142-8.805,16.19-11.979c8.133-4.27,17.424-5.654,25.916-9.023c15.214-6.035,21.508-20.312,32.25-31.422
		c4.938-5.108,11.379-8.675,16.65-13.452c4.967-4.501,8.339-10.118,10.643-16.367c0.002-0.006,0-0.011,0.003-0.017
		c0.61-0.734,1.206-1.485,1.777-2.257c7.126-9.633,10.727-20.732,23.121-24.8c11.805-3.875,25.293-3.383,37.469-1.859
		c0.168,0.021,0.312,0.001,0.435-0.044c1.761,0.473,3.568,0.815,5.436,1.017c5.553,0.602,13.883,0.197,16.6,6.199
		c0.457,1.009,1.785,0.396,1.816-0.536c5.225,2.958,10.591,4.078,16.63,4.195c8.018,0.155,15.719-0.469,22.995,3.627
		c4.915,2.767,8.624,3.556,14.229,2.671c6.116-0.965,17.547-0.336,17.54,7.941c-4.261-2.523-9.295-4.287-13.508-6.6
		c-1.131-0.621-2.14,1.106-1.01,1.727c6.205,3.408,13.445,5.109,18.461,10.387C442.975,62.485,446.251,70.363,440.207,69.292z
		 M244.707,84.573c-3.847,4.957-7.527,10.012-11.954,14.479c-5.804,5.857-12.717,8.594-20.489,10.831
		c-6.472,1.862-12.804,3.779-18.714,7.07c-6.136,3.417-11.024,8.77-16.373,13.226c-10.963,9.136-26.13,10.361-39.497,14.928
		c3.656-3.275,7.148-6.725,11.29-9.406c5.402-3.496,11.337-3.801,17.498-4.732c10.629-1.605,15.021-12.736,22.068-19.578
		c10.364-10.061,25.799-2.165,36.228-11.883c3.976-3.705,6.557-8.966,9.765-13.299c4.414-5.964,9.883-10.306,16.457-13.672
		c5.781-2.961,12.392-4.03,18.321-6.688c0.87-0.39,1.688-0.846,2.478-1.339C263.757,72.417,251.846,75.375,244.707,84.573z
		 M271.743,67.266c-1.993,2.815-4.351,5.376-7.108,7.766c-5.14,4.454-11.006,7.902-15.754,12.812
		c-4.869,5.036-8.597,11.113-12.994,16.541c-5.874,7.252-13.097,11.964-21.892,14.969c-6.783,2.318-13.741,3.845-20.308,6.796
		c-5.998,2.695-10.885,7.079-15.881,11.244c-6.264,5.221-12.747,8.444-20.986,9.033c-5.843,0.418-11.595-0.234-17.328,0.145
		c12.288-4.057,25.807-5.418,36.442-12.918c6.061-4.275,10.971-9.934,17.15-14.073c6.831-4.576,15.13-6.413,22.907-8.698
		c12.828-3.77,20.591-12.401,28.477-22.735c4.771-6.253,10.149-10.192,16.953-14.021C265.07,72.072,268.635,69.959,271.743,67.266z
		 M253.236,69.408c-11.081,4.085-18.393,12.426-24.759,21.988c-4.766,7.159-9.589,11.316-18.537,11.774
		c-6.479,0.332-12.275,0.047-18.126,3.252c-9.805,5.371-13.373,20.192-24.776,22.452c-5.025,0.995-10.006,0.84-14.815,2.922
		c-4.588,1.985-8.332,4.996-12.021,8.313c-5.746,5.166-10.953,10.938-19.428,9.662c-7.079-1.064-11.699-6.81-17.029-10.916
		c-4.074-3.139-8.586-2.903-13.259-1.439c-4.198,1.316-7.623,2.146-12.078,1.127c-2.72-0.621-5.291-1.456-8.073-1.779
		c-0.141-0.017-0.259,0.002-0.368,0.032c-3.672-1.853-13.907-6.974-14.581,0.413c-0.135,1.475,0.135,2.542,0.681,3.295
		c-4.911-0.458-1.48-8.647,0.541-11.055c4.885-5.817,11.876-2.046,17.258,0.258c3.677,1.575,7.201,2.038,11.108,1.274
		c6.815-1.331,11.96-4.958,18.98-1.466c3.799,1.891,6.281,3.385,10.378,1.586c2.514-1.104,4.696-3.518,6.84-5.137
		c3.638-2.746,8.556-2.07,12.797-1.717c4.707,0.391,9.074,0.102,13.372-1.932c2.478-1.173,4.668-3.04,6.831-4.69
		c2.951-2.252,6.335-3.704,9.814-4.93c4.934-1.738,9.901-2.96,14.515-5.502c2.849-1.569,5.13-3.984,7.828-5.77
		c2.559-1.693,5.527-2.605,8.479-3.322c5.101-1.24,10.259-1.774,15.233-3.559c4.794-1.719,8.72-5.328,12.223-8.891
		c4.046-4.115,7.628-8.651,12.349-12.043c4.848-3.483,10.747-5.245,16.455-6.723c8.082-2.094,16.422-3.455,23.772-7.331
		c-0.302,0.306-0.599,0.615-0.915,0.911C268.384,65.642,260.125,66.869,253.236,69.408z M67.657,137.862
		c-3.272,1.627-10.341,4.271-10.323-0.1C57.353,133.145,64.194,136.146,67.657,137.862z"/>
	<path fill="#45929E" d="M100.839,145.899c-0.132-0.064-0.261-0.092-0.387-0.102c-0.155-0.231-0.408-0.395-0.785-0.369
		c-1.968,0.132-3.657,0.609-4.037,2.766c-0.18,1.023,0.119,2.166,0.289,3.174c0.312,1.853-0.349,3.654-0.846,5.416
		c-1.559,5.521-0.506,9.863,6.187,9.326C111.892,165.259,107.549,149.156,100.839,145.899z M103.116,163.474
		c-1.663,1.098-4.809,1.004-6.331-0.229c-1.461-1.184-0.17-4.524,0.216-5.929c0.373-1.353,0.936-2.806,1-4.22
		c0.081-1.801-1.506-5.382,1.587-5.655c0.07,0.066,0.137,0.135,0.241,0.186C104.7,149.99,108.724,159.772,103.116,163.474z"/>
</g>
</svg>
