<?xml version="1.0" encoding="utf-8"?>
<!-- Generator: Adobe Illustrator 16.0.0, SVG Export Plug-In . SVG Version: 6.00 Build 0)  -->
<!DOCTYPE svg PUBLIC "-//W3C//DTD SVG 1.1//EN" "http://www.w3.org/Graphics/SVG/1.1/DTD/svg11.dtd">
<svg version="1.1" id="Layer_2" xmlns="http://www.w3.org/2000/svg" xmlns:xlink="http://www.w3.org/1999/xlink" x="0px" y="0px"
	 width="390.326px" height="347.594px" viewBox="0 0 390.326 347.594" enable-background="new 0 0 390.326 347.594"
	 xml:space="preserve">
<g>
	<path fill="#FFFFFF" d="M335.254,93.738h2.149v-5.103h-1.967c1.376,0,2.487-1.112,2.487-2.483c0-1.371-1.111-2.482-2.482-2.482
		l-1.071-21.469c0,0,2.574-3.218,3.033-8.827v-3.402c0,0-7.555-3.859-7.555-18.57c1.936-1.007,11.443,2.055,11.443,2.055v-4.11
		v-4.11c0,0-9.509,3.062-11.443,2.055c-1.007-1.934,2.056-11.443,2.056-11.443h-4.109h-4.109c0,0,3.063,9.509,2.055,11.443
		c-1.934,1.007-11.442-2.055-11.442-2.055v4.11v4.11c0,0,9.51-3.063,11.442-2.055c0,14.711-7.555,18.57-7.555,18.57v3.402
		c0.46,5.608,3.035,8.827,3.035,8.827l-1.072,21.469c-1.371,0-2.482,1.112-2.482,2.482c0,1.371,1.111,2.483,2.487,2.483h-1.968
		v5.103h2.15c0,0,0,62.478-7.835,88.545v15.445c0,0-3.872,0.918-7.346,4.629l0.001,0.002c-7.331-3.277-8.063-11.451-9.366-20.076
		c-0.679,0-1.631,0-1.631,0s-0.848,7.762-3.102,7.762s-3.104-7.762-3.104-7.762c-3.202-9.072-2.515-19.937-2.515-19.937h-3.279
		v-5.584c1.727-5.279-1.33-11.27-5.076-13.097c-3.746,1.827-6.803,7.817-5.076,13.097v5.584h-0.001h-3.277
		c0,0,0.688,10.864-2.516,19.937c0,0-0.849,7.762-3.103,7.762s-3.103-7.762-3.103-7.762s-0.951,0-1.631,0
		c-1.305,8.625-5.822,22.926-13.153,26.203c0,0-13.166,3.447-20.688-2.482c0,0,1.105,23.033,8.828,32.551c-0.987,0-1.624,0-1.624,0
		s-0.845,7.731-3.091,7.731c-2.245,0-3.09-7.731-3.09-7.731s-0.813,0-1.624,0c-0.812,0-1.624,0-1.624,0s-0.845,7.731-3.09,7.731
		s-3.091-7.731-3.091-7.731s-3.849,0.297-4.836,0.297v12.805v75.855h131.573V182.283C335.036,156.216,335.254,93.738,335.254,93.738
		z"/>
	<path fill="none" stroke="#45929E" stroke-linecap="round" stroke-linejoin="round" stroke-miterlimit="10" d="M273.315,250.57
		c0,2.08,1.688,3.77,3.77,3.77s3.771-1.688,3.771-3.77v-17.416c0-2.081-1.688-3.771-3.771-3.771s-3.77,1.688-3.77,3.771V250.57z"/>
	<path fill="none" stroke="#45929E" stroke-linecap="round" stroke-linejoin="round" stroke-miterlimit="10" d="M285.671,247.938
		c0,1.453,1.179,2.633,2.632,2.633c1.452,0,2.631-1.18,2.631-2.633v-12.151c0-1.453-1.179-2.631-2.631-2.631
		c-1.453,0-2.632,1.178-2.632,2.631V247.938z"/>
	<path fill="none" stroke="#45929E" stroke-linecap="round" stroke-linejoin="round" stroke-miterlimit="10" d="M326.87,228.13
		c0,0.763,0.618,1.379,1.381,1.379c0.762,0,1.379-0.616,1.379-1.379v-6.371c0-0.762-0.617-1.38-1.379-1.38
		c-0.763,0-1.381,0.618-1.381,1.38V228.13z"/>
	<path fill="none" stroke="#45929E" stroke-linecap="round" stroke-linejoin="round" stroke-miterlimit="10" d="M335.146,228.13
		c0,0.763,0.617,1.379,1.379,1.379s1.38-0.616,1.38-1.379v-6.371c0-0.762-0.618-1.38-1.38-1.38s-1.379,0.618-1.379,1.38V228.13z"/>
	<path fill="none" stroke="#45929E" stroke-linecap="round" stroke-linejoin="round" stroke-miterlimit="10" d="M330.86,285.453
		c0,1.453,1.178,2.631,2.631,2.631s2.631-1.178,2.631-2.631V273.3c0-1.452-1.178-2.631-2.631-2.631s-2.631,1.179-2.631,2.631
		V285.453z"/>
	<path fill="none" stroke="#45929E" stroke-linecap="round" stroke-linejoin="round" stroke-miterlimit="10" d="M277.085,217.13
		c10.758,0,20.871,6.068,22.159,23.538c9.932-2.207,17.698,5.333,16.043,21.699"/>
	<path fill="none" stroke="#45929E" stroke-linecap="round" stroke-linejoin="round" stroke-miterlimit="10" d="M279.302,311.318
		c6.153-0.286,14.121-1.711,18.627-4.119c2.33-1.247,2.74-3.072,2.74-6.445v-23.031c0-0.77-0.023-1.316-0.055-1.703
		c-0.54-0.127-1.186-0.258-1.579-0.336c-4.172-0.834-14.558-2.459-19.74-2.934"/>
	<path fill="none" stroke="#45929E" stroke-linecap="round" stroke-linejoin="round" stroke-miterlimit="10" d="M277.085,268.206
		c4.138,0,18.205,2.206,23.032,3.172s6.069,1.379,6.069,7.447c0,6.069,0,19.86,0,23.032s-0.189,8.387-5.655,11.31
		c-5.931,3.173-16.137,4.827-23.446,4.827"/>
	<path fill="none" stroke="#45929E" stroke-linecap="round" stroke-linejoin="round" stroke-miterlimit="10" d="M315.287,262.367
		c0-1.523,1.235-2.76,2.76-2.76c1.523,0,2.758,1.235,2.758,2.76"/>
	<path fill="none" stroke="#45929E" stroke-linecap="round" stroke-linejoin="round" stroke-miterlimit="10" d="M320.804,262.367
		c0-1.523,1.234-2.76,2.759-2.76s2.759,1.235,2.759,2.76"/>
	<path fill="none" stroke="#45929E" stroke-linecap="round" stroke-linejoin="round" stroke-miterlimit="10" d="M326.321,262.367
		c0-1.523,1.234-2.76,2.758-2.76c1.524,0,2.759,1.235,2.759,2.76"/>
	<path fill="none" stroke="#45929E" stroke-linecap="round" stroke-linejoin="round" stroke-miterlimit="10" d="M331.838,262.367
		c0-1.523,1.234-2.76,2.759-2.76c1.523,0,2.759,1.235,2.759,2.76"/>
	<path fill="none" stroke="#45929E" stroke-linecap="round" stroke-linejoin="round" stroke-miterlimit="10" d="M309.771,213.225
		c0-2.285,1.853-4.138,4.138-4.138s4.139,1.853,4.139,4.138"/>
	<path fill="none" stroke="#45929E" stroke-linecap="round" stroke-linejoin="round" stroke-miterlimit="10" d="M318.047,213.225
		c0-2.285,1.852-4.138,4.137-4.138s4.139,1.853,4.139,4.138"/>
	<path fill="none" stroke="#45929E" stroke-linecap="round" stroke-linejoin="round" stroke-miterlimit="10" d="M326.321,213.225
		c0-2.285,1.853-4.138,4.137-4.138c2.285,0,4.139,1.853,4.139,4.138"/>
	<path fill="none" stroke="#45929E" stroke-linecap="round" stroke-linejoin="round" stroke-miterlimit="10" d="M334.596,213.225
		c0-2.285,1.853-4.138,4.138-4.138s4.138,1.853,4.138,4.138"/>
	<path fill="none" stroke="#45929E" stroke-linecap="round" stroke-linejoin="round" stroke-miterlimit="10" d="M337.354,262.367
		c0-1.523,1.234-2.76,2.758-2.76c1.524,0,2.759,1.235,2.759,2.76v65.144"/>
	
		<line fill="none" stroke="#45929E" stroke-linecap="round" stroke-linejoin="round" stroke-miterlimit="10" x1="323.563" y1="269.311" x2="323.563" y2="327.511"/>
	
		<line fill="none" stroke="#45929E" stroke-linecap="round" stroke-linejoin="round" stroke-miterlimit="10" x1="279.292" y1="272.75" x2="279.292" y2="311.264"/>
	<path fill="none" stroke="#45929E" stroke-linecap="round" stroke-linejoin="round" stroke-miterlimit="10" d="M277.085,202.005
		c1.793,3.448,8.826,14.067,22.896,12.274c-0.828,9.654,3.997,23.584,20.824,24.273c-2.758,6.758,1.933,13.103,1.933,13.103h20.135
		v10.712"/>
	
		<line fill="none" stroke="#45929E" stroke-linecap="round" stroke-linejoin="round" stroke-miterlimit="10" x1="277.085" y1="162.347" x2="282.162" y2="162.347"/>
	<polyline fill="none" stroke="#45929E" stroke-linecap="round" stroke-linejoin="round" stroke-miterlimit="10" points="
		277.085,166.103 279.004,166.103 279.004,175.493 277.085,175.493 	"/>
	
		<line fill="none" stroke="#45929E" stroke-linecap="round" stroke-linejoin="round" stroke-miterlimit="10" x1="282.161" y1="156.763" x2="277.085" y2="156.763"/>
	<path fill="none" stroke="#45929E" stroke-linecap="round" stroke-linejoin="round" stroke-miterlimit="10" d="M286.325,182.283
		c0.959,0,1.63,0,1.63,0"/>
	
		<line fill="none" stroke="#45929E" stroke-linecap="round" stroke-linejoin="round" stroke-miterlimit="10" x1="277.085" y1="162.347" x2="272.008" y2="162.347"/>
	<polyline fill="none" stroke="#45929E" stroke-linecap="round" stroke-linejoin="round" stroke-miterlimit="10" points="
		277.085,166.103 275.165,166.103 275.165,175.493 277.085,175.493 	"/>
	
		<line fill="none" stroke="#45929E" stroke-linecap="round" stroke-linejoin="round" stroke-miterlimit="10" x1="272.009" y1="156.763" x2="277.085" y2="156.763"/>
	<path fill="none" stroke="#45929E" stroke-linecap="round" stroke-linejoin="round" stroke-miterlimit="10" d="M267.845,182.283
		c-0.959,0-1.631,0-1.631,0"/>
	<path fill="none" stroke="#45929E" stroke-linecap="round" stroke-linejoin="round" stroke-miterlimit="10" d="M330.231,238.555
		c0.813,0,1.625,0,1.625,0s0.844,7.731,3.09,7.731"/>
	<path fill="none" stroke="#45929E" stroke-linecap="round" stroke-linejoin="round" stroke-miterlimit="10" d="M334.946,246.286
		c2.245,0,3.09-7.731,3.09-7.731s3.85,0.297,4.835,0.297v12.805"/>
	<path fill="none" stroke="#45929E" stroke-linecap="round" stroke-linejoin="round" stroke-miterlimit="10" d="M330.231,238.555
		c-0.812,0-1.623,0-1.623,0s-0.846,7.731-3.09,7.731"/>
	<path fill="none" stroke="#45929E" stroke-linecap="round" stroke-linejoin="round" stroke-miterlimit="10" d="M325.519,246.286
		c-2.246,0-3.091-7.731-3.091-7.731s-0.639,0-1.624,0"/>
	<path fill="none" stroke="#45929E" stroke-linecap="round" stroke-linejoin="round" stroke-miterlimit="10" d="M305.155,202.357
		c-2.346,2.508-4.509,6.289-5.176,11.922l-7.469,8.843"/>
	<path fill="none" stroke="#45929E" stroke-linecap="round" stroke-linejoin="round" stroke-miterlimit="10" d="M268.499,247.938
		c0,1.453-1.178,2.633-2.631,2.633s-2.631-1.18-2.631-2.633v-12.151c0-1.453,1.178-2.631,2.631-2.631s2.631,1.178,2.631,2.631
		V247.938z"/>
	<path fill="none" stroke="#45929E" stroke-linecap="round" stroke-linejoin="round" stroke-miterlimit="10" d="M223.309,285.453
		c0,1.453-1.179,2.631-2.63,2.631c-1.453,0-2.632-1.178-2.632-2.631V273.3c0-1.452,1.179-2.631,2.632-2.631
		c1.451,0,2.63,1.179,2.63,2.631V285.453z"/>
	<path fill="none" stroke="#45929E" stroke-linecap="round" stroke-linejoin="round" stroke-miterlimit="10" d="M274.868,311.318
		c-6.154-0.286-14.122-1.711-18.627-4.119c-2.33-1.247-2.74-3.072-2.74-6.445v-23.031c0-0.77,0.023-1.316,0.055-1.703
		c0.54-0.127,1.185-0.258,1.578-0.336c4.173-0.834,14.559-2.459,19.74-2.934"/>
	<path fill="none" stroke="#45929E" stroke-linecap="round" stroke-linejoin="round" stroke-miterlimit="10" d="M277.085,268.206
		c-4.138,0-18.205,2.206-23.033,3.172c-4.825,0.966-6.067,1.379-6.067,7.447c0,6.069,0,19.86,0,23.032s0.188,8.387,5.655,11.31
		c5.931,3.173,16.137,4.827,23.445,4.827"/>
	<path fill="none" stroke="#45929E" stroke-linecap="round" stroke-linejoin="round" stroke-miterlimit="10" d="M238.882,262.367
		c0-1.523-1.233-2.76-2.758-2.76c-1.523,0-2.758,1.235-2.758,2.76"/>
	<path fill="none" stroke="#45929E" stroke-linecap="round" stroke-linejoin="round" stroke-miterlimit="10" d="M233.366,262.367
		c0-1.523-1.235-2.76-2.759-2.76c-1.524,0-2.759,1.235-2.759,2.76"/>
	<path fill="none" stroke="#45929E" stroke-linecap="round" stroke-linejoin="round" stroke-miterlimit="10" d="M227.849,262.367
		c0-1.523-1.234-2.76-2.759-2.76c-1.523,0-2.759,1.235-2.759,2.76"/>
	<path fill="none" stroke="#45929E" stroke-linecap="round" stroke-linejoin="round" stroke-miterlimit="10" d="M222.332,262.367
		c0-1.523-1.234-2.76-2.759-2.76s-2.758,1.235-2.758,2.76"/>
	<path fill="none" stroke="#45929E" stroke-linecap="round" stroke-linejoin="round" stroke-miterlimit="10" d="M216.815,262.367
		c0-1.523-1.234-2.76-2.758-2.76c-1.524,0-2.76,1.235-2.76,2.76v65.144h65.786"/>
	
		<line fill="none" stroke="#45929E" stroke-linecap="round" stroke-linejoin="round" stroke-miterlimit="10" x1="230.607" y1="269.311" x2="230.607" y2="327.511"/>
	
		<line fill="none" stroke="#45929E" stroke-linecap="round" stroke-linejoin="round" stroke-miterlimit="10" x1="274.878" y1="272.75" x2="274.878" y2="311.264"/>
	<path fill="none" stroke="#45929E" stroke-linecap="round" stroke-linejoin="round" stroke-miterlimit="10" d="M211.299,251.654
		h20.136c0,0,4.689-6.344,1.933-13.102c16.826-0.689,21.651-14.619,20.824-24.273c14.066,1.793,21.102-8.826,22.895-12.274v15.125
		c-10.758,0-20.872,6.068-22.158,23.538c-9.932-2.207-17.698,5.333-16.045,21.699"/>
	
		<line fill="none" stroke="#45929E" stroke-linecap="round" stroke-linejoin="round" stroke-miterlimit="10" x1="299.244" y1="240.668" x2="306.646" y2="233.154"/>
	
		<line fill="none" stroke="#45929E" stroke-linecap="round" stroke-linejoin="round" stroke-miterlimit="10" x1="320.804" y1="238.555" x2="312.804" y2="246.286"/>
	
		<line fill="none" stroke="#45929E" stroke-linecap="round" stroke-linejoin="round" stroke-miterlimit="10" x1="254.19" y1="214.279" x2="261.659" y2="223.122"/>
	
		<line fill="none" stroke="#45929E" stroke-linecap="round" stroke-linejoin="round" stroke-miterlimit="10" x1="254.926" y1="240.668" x2="247.524" y2="233.154"/>
	
		<line fill="none" stroke="#45929E" stroke-linecap="round" stroke-linejoin="round" stroke-miterlimit="10" x1="233.366" y1="238.555" x2="241.366" y2="246.286"/>
	
		<line fill="none" stroke="#45929E" stroke-linecap="round" stroke-linejoin="round" stroke-miterlimit="10" x1="320.153" y1="88.635" x2="327.795" y2="88.635"/>
	
		<line fill="none" stroke="#45929E" stroke-linecap="round" stroke-linejoin="round" stroke-miterlimit="10" x1="320.147" y1="83.67" x2="327.795" y2="83.67"/>
	
		<line fill="none" stroke="#45929E" stroke-linecap="round" stroke-linejoin="round" stroke-miterlimit="10" x1="321.22" y1="62.201" x2="327.795" y2="62.201"/>
	
		<line fill="none" stroke="#45929E" stroke-linecap="round" stroke-linejoin="round" stroke-miterlimit="10" x1="313.178" y1="179.863" x2="319.872" y2="185.114"/>
	
		<line fill="none" stroke="#45929E" stroke-linecap="round" stroke-linejoin="round" stroke-miterlimit="10" x1="315.034" y1="170.905" x2="330.771" y2="183.248"/>
	
		<line fill="none" stroke="#45929E" stroke-linecap="round" stroke-linejoin="round" stroke-miterlimit="10" x1="316.514" y1="161.653" x2="342.854" y2="182.313"/>
	
		<line fill="none" stroke="#45929E" stroke-linecap="round" stroke-linejoin="round" stroke-miterlimit="10" x1="317.608" y1="152.099" x2="340.315" y2="169.908"/>
	
		<line fill="none" stroke="#45929E" stroke-linecap="round" stroke-linejoin="round" stroke-miterlimit="10" x1="318.453" y1="142.348" x2="338.64" y2="158.181"/>
	
		<line fill="none" stroke="#45929E" stroke-linecap="round" stroke-linejoin="round" stroke-miterlimit="10" x1="319.119" y1="132.457" x2="337.502" y2="146.875"/>
	
		<line fill="none" stroke="#45929E" stroke-linecap="round" stroke-linejoin="round" stroke-miterlimit="10" x1="319.634" y1="122.446" x2="336.672" y2="135.81"/>
	
		<line fill="none" stroke="#45929E" stroke-linecap="round" stroke-linejoin="round" stroke-miterlimit="10" x1="320.002" y1="112.322" x2="336.071" y2="124.927"/>
	
		<line fill="none" stroke="#45929E" stroke-linecap="round" stroke-linejoin="round" stroke-miterlimit="10" x1="320.243" y1="102.098" x2="335.64" y2="114.174"/>
	
		<line fill="none" stroke="#45929E" stroke-linecap="round" stroke-linejoin="round" stroke-miterlimit="10" x1="322.993" y1="93.842" x2="335.372" y2="103.552"/>
	
		<line fill="none" stroke="#45929E" stroke-linecap="round" stroke-linejoin="round" stroke-miterlimit="10" x1="335.437" y1="88.635" x2="327.795" y2="88.635"/>
	
		<line fill="none" stroke="#45929E" stroke-linecap="round" stroke-linejoin="round" stroke-miterlimit="10" x1="335.441" y1="83.67" x2="327.795" y2="83.67"/>
	
		<line fill="none" stroke="#45929E" stroke-linecap="round" stroke-linejoin="round" stroke-miterlimit="10" x1="334.37" y1="62.201" x2="327.795" y2="62.201"/>
	<path fill="none" stroke="#45929E" stroke-linecap="round" stroke-linejoin="round" stroke-miterlimit="10" d="M318.185,53.374
		v-3.402c0,0,7.555-3.859,7.555-18.57c-1.934-1.007-11.442,2.055-11.442,2.055v-4.11v-4.11c0,0,9.51,3.062,11.442,2.055
		c1.008-1.934-2.055-11.443-2.055-11.443h4.109h4.109c0,0-3.063,9.509-2.056,11.443c1.936,1.007,11.443-2.055,11.443-2.055v4.11
		v4.11c0,0-9.509-3.063-11.443-2.055c0,14.711,7.555,18.57,7.555,18.57v3.402"/>
	
		<line fill="none" stroke="#45929E" stroke-linecap="round" stroke-linejoin="round" stroke-miterlimit="10" x1="323.681" y1="49.972" x2="331.907" y2="49.972"/>
	<path fill="none" stroke="#45929E" stroke-linecap="round" stroke-linejoin="round" stroke-miterlimit="10" d="M325.636,62.201
		c0,0-2.574-3.218-3.034-8.827"/>
	<path fill="none" stroke="#45929E" stroke-linecap="round" stroke-linejoin="round" stroke-miterlimit="10" d="M329.952,62.201
		c0,0,2.575-3.218,3.035-8.827"/>
	
		<line fill="none" stroke="#45929E" stroke-linecap="round" stroke-linejoin="round" stroke-miterlimit="10" x1="320.336" y1="93.738" x2="327.795" y2="93.738"/>
	
		<line fill="none" stroke="#45929E" stroke-linecap="round" stroke-linejoin="round" stroke-miterlimit="10" x1="335.254" y1="93.738" x2="327.795" y2="93.738"/>
	<g>
		<path fill="none" stroke="#45929E" stroke-width="3" stroke-linecap="round" stroke-linejoin="round" stroke-miterlimit="10" d="
			M277.085,182.283c0.814,0,1.63,0,1.63,0s0.85,7.762,3.104,7.762"/>
		<path fill="none" stroke="#45929E" stroke-width="3" stroke-linecap="round" stroke-linejoin="round" stroke-miterlimit="10" d="
			M286.55,182.283c-0.989,0-1.631,0-1.631,0s-0.848,7.762-3.102,7.762"/>
		<path fill="none" stroke="#45929E" stroke-width="3" stroke-linecap="round" stroke-linejoin="round" stroke-miterlimit="10" d="
			M277.085,182.283c-0.814,0-1.63,0-1.63,0s-0.849,7.762-3.103,7.762"/>
		<path fill="none" stroke="#45929E" stroke-width="3" stroke-linecap="round" stroke-linejoin="round" stroke-miterlimit="10" d="
			M267.62,182.283c0.99,0,1.631,0,1.631,0s0.849,7.762,3.103,7.762"/>
		<path fill="none" stroke="#45929E" stroke-width="3" stroke-linecap="round" stroke-linejoin="round" stroke-miterlimit="10" d="
			M320.336,182.283c0.814,0,4.356,0,4.356,0s0.848,7.762,3.103,7.762"/>
		<path fill="none" stroke="#45929E" stroke-width="3" stroke-linecap="round" stroke-linejoin="round" stroke-miterlimit="10" d="
			M335.036,182.283c-0.989,0-4.14,0-4.14,0s-0.849,7.762-3.103,7.762"/>
		<path fill="none" stroke="#45929E" stroke-width="3" stroke-linecap="round" stroke-linejoin="round" stroke-miterlimit="10" d="
			M327.795,53.374c0,0-7.312,0-9.609,0c0.46,5.609,3.035,8.827,3.035,8.827l-1.072,21.469c-1.371,0-2.481,1.111-2.481,2.482
			c0,1.371,1.11,2.483,2.487,2.483h-1.969v5.104h2.15c0,0,0,62.478-7.834,88.545v15.445c0,0-3.873,0.918-7.347,4.629l0.001,0.002
			c-7.331-3.277-8.062-11.451-9.366-20.076c-0.679,0-1.631,0-1.631,0s-0.848,7.762-3.102,7.762s-3.104-7.762-3.104-7.762
			c-3.202-9.072-2.515-19.937-2.515-19.937h-3.279v-5.584c1.727-5.279-1.33-11.27-5.076-13.097
			c-3.746,1.827-6.803,7.817-5.076,13.097v5.584h-0.001h-3.277c0,0,0.688,10.864-2.516,19.937c0,0-0.849,7.762-3.103,7.762
			s-3.103-7.762-3.103-7.762s-0.951,0-1.631,0c-1.305,8.625-5.822,22.926-13.153,26.203c0,0-13.166,3.447-20.688-2.482
			c0,0,1.105,23.033,8.828,32.551c-0.987,0-1.624,0-1.624,0s-0.845,7.731-3.091,7.731c-2.245,0-3.09-7.731-3.09-7.731
			s-0.813,0-1.624,0c-0.812,0-1.624,0-1.624,0s-0.846,7.731-3.09,7.731c-2.246,0-3.091-7.731-3.091-7.731s-3.849,0.297-4.835,0.297
			v12.805v75.855h131.572V182.283c-7.835-26.067-7.617-88.545-7.617-88.545h2.149v-5.104h-1.967c1.376,0,2.487-1.112,2.487-2.483
			c0-1.371-1.111-2.482-2.482-2.482l-1.071-21.469c0,0,2.574-3.218,3.033-8.827C335.104,53.374,327.795,53.374,327.795,53.374z"/>
		<path fill="none" stroke="#45929E" stroke-width="3" stroke-linecap="round" stroke-linejoin="round" stroke-miterlimit="10" d="
			M335.036,182.283c0,0,0.85,7.762,3.104,7.762s3.103-7.762,3.103-7.762s0.951,0,1.63,0"/>
		<path fill="none" stroke="#45929E" stroke-width="3" stroke-linecap="round" stroke-linejoin="round" stroke-miterlimit="10" d="
			M320.336,182.283c0,0-0.849,7.762-3.104,7.762c-2.254,0-3.103-7.762-3.103-7.762s-0.951,0-1.629,0"/>
	</g>
</g>
<g>
	<path fill="#FFFFFF" d="M178.276,212.044c0,0-14.942-13.149-9.603-21.926c-5.647-8.57-17.526-16.144-26.257-20.047
		c-8.729-3.902-9.757-13.951-11.311-24.221c-0.809,0-1.94,0-1.94,0s-1.011,9.242-3.693,9.242c-2.686,0-3.694-9.242-3.694-9.242
		c-3.813-10.802-2.994-23.739-2.994-23.739h-3.904v-6.648c2.056-6.286-1.584-13.419-6.045-15.595
		c-4.459,2.176-8.1,9.309-6.044,15.595v6.648h-0.001h-3.903c0,0,0.819,12.938-2.994,23.739c0,0-1.011,9.242-3.693,9.242
		s-3.694-9.242-3.694-9.242s-1.133,0-1.939,0c-1.556,10.27-2.582,20.318-11.312,24.221c-8.729,3.903-20.608,11.477-26.258,20.047
		c5.342,8.776-9.602,21.926-9.602,21.926s-1.011,9.243-3.693,9.243v106.707H58.24h50.596h50.599h22.538V221.287
		C179.287,221.287,178.276,212.044,178.276,212.044z"/>
	<path fill="none" stroke="#45929D" stroke-linecap="round" stroke-linejoin="round" stroke-miterlimit="10" d="M108.835,230.553
		h5.319c0,0,0.967,5.563,5.802,5.563c0,3.867,0,9.912,0,9.912h-11.121"/>
	<polyline fill="none" stroke="#45929D" stroke-linecap="round" stroke-linejoin="round" stroke-miterlimit="10" points="
		119.956,246.025 119.956,265.126 108.835,265.126 	"/>
	
		<line fill="none" stroke="#45929D" stroke-linecap="round" stroke-linejoin="round" stroke-miterlimit="10" x1="115.847" y1="246.025" x2="115.847" y2="265.126"/>
	<path fill="none" stroke="#45929D" stroke-linecap="round" stroke-linejoin="round" stroke-miterlimit="10" d="M108.835,280.6
		h5.319c0,0,0.967-5.561,5.802-5.561c0-3.868,0-9.913,0-9.913h-11.121"/>
	
		<rect x="137.364" y="237.318" fill="none" stroke="#45929D" stroke-linecap="round" stroke-linejoin="round" stroke-miterlimit="10" width="13.056" height="17.893"/>
	
		<rect x="129.147" y="210.004" fill="none" stroke="#45929D" stroke-linecap="round" stroke-linejoin="round" stroke-miterlimit="10" width="8.221" height="13.539"/>
	
		<rect x="104.726" y="294.479" fill="none" stroke="#45929D" stroke-linecap="round" stroke-linejoin="round" stroke-miterlimit="10" width="8.22" height="21.573"/>
	
		<rect x="128.419" y="294.479" fill="none" stroke="#45929D" stroke-linecap="round" stroke-linejoin="round" stroke-miterlimit="10" width="8.221" height="21.573"/>
	
		<rect x="167.191" y="271.293" fill="none" stroke="#45929D" stroke-linecap="round" stroke-linejoin="round" stroke-miterlimit="10" width="7.554" height="21.574"/>
	<path fill="none" stroke="#45929D" stroke-linecap="round" stroke-linejoin="round" stroke-miterlimit="10" d="M111.12,193.389
		c2.036,0.702,3.648,2.314,4.348,4.353"/>
	<path fill="none" stroke="#45929D" stroke-linecap="round" stroke-linejoin="round" stroke-miterlimit="10" d="M115.471,202.29
		c-0.698,2.041-2.313,3.657-4.352,4.36"/>
	<path fill="none" stroke="#45929D" stroke-linecap="round" stroke-linejoin="round" stroke-miterlimit="10" d="M108.835,213.52
		h4.11c0,0-3.063-9.511-2.056-11.444c1.936-1.007,11.443,2.056,11.443,2.056v-4.109v-4.11c0,0-9.509,3.063-11.443,2.056
		c-1.008-1.935,2.056-11.443,2.056-11.443h-4.11"/>
	<path fill="none" stroke="#45929D" stroke-linecap="round" stroke-linejoin="round" stroke-miterlimit="10" d="M108.835,158.949
		c0,0,6.881,10.988,18.896,8.011c-0.924,12.632,4.725,18.017,18.69,17.636c-0.82,15.022,10.683,19.232,18.075,18.721
		c0.515,9.652,6.47,17.972,6.47,17.972h-11.535c-0.479-12.323-6.23-15.336-16.501-15.747c1.78-16.363-10.339-17.869-17.732-17.116
		c0.206-16.158-11.297-19.376-16.363-19.376"/>
	
		<line fill="none" stroke="#45929D" stroke-linecap="round" stroke-linejoin="round" stroke-miterlimit="10" x1="159.432" y1="221.287" x2="159.432" y2="327.994"/>
	
		<line fill="none" stroke="#45929D" stroke-linecap="round" stroke-linejoin="round" stroke-miterlimit="10" x1="108.835" y1="122.111" x2="114.88" y2="122.111"/>
	<path fill="none" stroke="#45929D" stroke-linecap="round" stroke-linejoin="round" stroke-miterlimit="10" d="M176.603,212.045
		c-1.18,0-1.94,0-1.94,0s-1.01,9.242-3.693,9.242"/>
	<path fill="none" stroke="#45929D" stroke-linecap="round" stroke-linejoin="round" stroke-miterlimit="10" d="M176.336,212.045
		c1.143,0,1.94,0,1.94,0"/>
	<polyline fill="none" stroke="#45929D" stroke-linecap="round" stroke-linejoin="round" stroke-miterlimit="10" points="
		108.835,126.584 111.12,126.584 111.12,137.766 108.835,137.766 	"/>
	
		<line fill="none" stroke="#45929D" stroke-linecap="round" stroke-linejoin="round" stroke-miterlimit="10" x1="114.88" y1="115.463" x2="108.835" y2="115.463"/>
	<path fill="none" stroke="#45929D" stroke-linecap="round" stroke-linejoin="round" stroke-miterlimit="10" d="M119.838,145.851
		c1.143,0,1.94,0,1.94,0"/>
	<path fill="none" stroke="#45929D" stroke-linecap="round" stroke-linejoin="round" stroke-miterlimit="10" d="M159.432,232.369
		c0-2.049,1.659-3.707,3.708-3.707c2.048,0,3.707,1.658,3.707,3.707"/>
	<path fill="none" stroke="#45929D" stroke-linecap="round" stroke-linejoin="round" stroke-miterlimit="10" d="M166.993,232.369
		c0-2.049,1.66-3.707,3.708-3.707s3.708,1.658,3.708,3.707"/>
	<path fill="none" stroke="#45929D" stroke-linecap="round" stroke-linejoin="round" stroke-miterlimit="10" d="M174.556,232.369
		c0-2.049,1.659-3.707,3.707-3.707c2.049,0,3.708,1.658,3.708,3.707"/>
	<path fill="none" stroke="#45929D" stroke-linecap="round" stroke-linejoin="round" stroke-miterlimit="10" d="M108.835,230.553
		h-5.317c0,0-0.968,5.563-5.804,5.563c0,3.867,0,9.912,0,9.912h11.121"/>
	<polyline fill="none" stroke="#45929D" stroke-linecap="round" stroke-linejoin="round" stroke-miterlimit="10" points="
		97.714,246.025 97.714,265.126 108.835,265.126 	"/>
	
		<line fill="none" stroke="#45929D" stroke-linecap="round" stroke-linejoin="round" stroke-miterlimit="10" x1="101.823" y1="246.025" x2="101.823" y2="265.126"/>
	<path fill="none" stroke="#45929D" stroke-linecap="round" stroke-linejoin="round" stroke-miterlimit="10" d="M108.835,280.6
		h-5.317c0,0-0.968-5.561-5.804-5.561c0-3.868,0-9.913,0-9.913h11.121"/>
	
		<rect x="67.251" y="237.318" fill="none" stroke="#45929D" stroke-linecap="round" stroke-linejoin="round" stroke-miterlimit="10" width="13.056" height="17.893"/>
	
		<rect x="80.303" y="210.004" fill="none" stroke="#45929D" stroke-linecap="round" stroke-linejoin="round" stroke-miterlimit="10" width="8.22" height="13.539"/>
	
		<rect x="81.032" y="294.479" fill="none" stroke="#45929D" stroke-linecap="round" stroke-linejoin="round" stroke-miterlimit="10" width="8.22" height="21.573"/>
	
		<rect x="42.925" y="271.293" fill="none" stroke="#45929D" stroke-linecap="round" stroke-linejoin="round" stroke-miterlimit="10" width="7.556" height="21.574"/>
	<path fill="none" stroke="#45929D" stroke-linecap="round" stroke-linejoin="round" stroke-miterlimit="10" d="M106.55,193.389
		c-2.034,0.702-3.646,2.314-4.348,4.353"/>
	<path fill="none" stroke="#45929D" stroke-linecap="round" stroke-linejoin="round" stroke-miterlimit="10" d="M102.2,202.29
		c0.697,2.041,2.313,3.657,4.351,4.36"/>
	<path fill="none" stroke="#45929D" stroke-linecap="round" stroke-linejoin="round" stroke-miterlimit="10" d="M108.835,213.52
		h-4.108c0,0,3.063-9.511,2.055-11.444c-1.934-1.007-11.443,2.056-11.443,2.056v-4.109v-4.11c0,0,9.511,3.063,11.443,2.056
		c1.008-1.935-2.055-11.443-2.055-11.443h4.108"/>
	<path fill="none" stroke="#45929D" stroke-linecap="round" stroke-linejoin="round" stroke-miterlimit="10" d="M108.835,169.048
		c-5.065,0-16.567,3.218-16.362,19.376c-7.396-0.753-19.514,0.753-17.732,17.116c-10.27,0.411-16.021,3.424-16.5,15.747H46.702
		c0,0,5.957-8.318,6.471-17.973c7.395,0.514,18.896-3.696,18.074-18.721c13.967,0.381,19.615-5.003,18.691-17.635
		c12.016,2.978,18.896-8.011,18.896-8.011L108.835,169.048L108.835,169.048z"/>
	
		<line fill="none" stroke="#45929D" stroke-linecap="round" stroke-linejoin="round" stroke-miterlimit="10" x1="58.239" y1="221.287" x2="58.239" y2="327.994"/>
	
		<line fill="none" stroke="#45929D" stroke-linecap="round" stroke-linejoin="round" stroke-miterlimit="10" x1="108.835" y1="122.111" x2="102.79" y2="122.111"/>
	<path fill="none" stroke="#45929D" stroke-linecap="round" stroke-linejoin="round" stroke-miterlimit="10" d="M41.067,212.045
		c1.18,0,1.94,0,1.94,0s1.011,9.242,3.693,9.242"/>
	<path fill="none" stroke="#45929D" stroke-linecap="round" stroke-linejoin="round" stroke-miterlimit="10" d="M41.335,212.045
		c-1.143,0-1.94,0-1.94,0"/>
	<polyline fill="none" stroke="#45929D" stroke-linecap="round" stroke-linejoin="round" stroke-miterlimit="10" points="
		108.835,126.584 106.55,126.584 106.55,137.766 108.835,137.766 	"/>
	
		<line fill="none" stroke="#45929D" stroke-linecap="round" stroke-linejoin="round" stroke-miterlimit="10" x1="102.791" y1="115.463" x2="108.835" y2="115.463"/>
	<path fill="none" stroke="#45929D" stroke-linecap="round" stroke-linejoin="round" stroke-miterlimit="10" d="M97.833,145.851
		c-1.143,0-1.94,0-1.94,0"/>
	<path fill="none" stroke="#45929D" stroke-linecap="round" stroke-linejoin="round" stroke-miterlimit="10" d="M58.239,232.369
		c0-2.049-1.66-3.707-3.709-3.707c-2.047,0-3.707,1.658-3.707,3.707"/>
	<path fill="none" stroke="#45929D" stroke-linecap="round" stroke-linejoin="round" stroke-miterlimit="10" d="M50.677,232.369
		c0-2.049-1.66-3.707-3.707-3.707c-2.05,0-3.709,1.658-3.709,3.707"/>
	<path fill="none" stroke="#45929D" stroke-linecap="round" stroke-linejoin="round" stroke-miterlimit="10" d="M43.115,232.369
		c0-2.049-1.66-3.707-3.708-3.707c-2.047,0-3.707,1.658-3.707,3.707"/>
	<g>
		<path fill="none" stroke="#45929D" stroke-width="3" stroke-linecap="round" stroke-linejoin="round" stroke-miterlimit="10" d="
			M108.835,145.851c0.972,0,1.941,0,1.941,0s1.01,9.242,3.693,9.242"/>
		<path fill="none" stroke="#45929D" stroke-width="3" stroke-linecap="round" stroke-linejoin="round" stroke-miterlimit="10" d="
			M120.104,145.851c-1.181,0-1.94,0-1.94,0s-1.011,9.242-3.693,9.242"/>
		<path fill="none" stroke="#45929D" stroke-width="3" stroke-linecap="round" stroke-linejoin="round" stroke-miterlimit="10" d="
			M108.835,145.851c-0.971,0-1.939,0-1.939,0s-1.012,9.242-3.694,9.242"/>
		<path fill="none" stroke="#45929D" stroke-width="3" stroke-linecap="round" stroke-linejoin="round" stroke-miterlimit="10" d="
			M97.565,145.851c1.18,0,1.94,0,1.94,0s1.011,9.242,3.693,9.242"/>
		<path fill="none" stroke="#45929D" stroke-width="3" stroke-linecap="round" stroke-linejoin="round" stroke-miterlimit="10" d="
			M178.276,212.044c0,0-14.942-13.149-9.603-21.926c-5.647-8.57-17.526-16.144-26.257-20.047
			c-8.729-3.902-9.757-13.951-11.311-24.221c-0.809,0-1.94,0-1.94,0s-1.011,9.242-3.693,9.242c-2.686,0-3.694-9.242-3.694-9.242
			c-3.813-10.802-2.994-23.739-2.994-23.739h-3.904v-6.648c2.056-6.286-1.584-13.419-6.045-15.595
			c-4.459,2.176-8.1,9.309-6.044,15.595v6.648h-0.001h-3.903c0,0,0.819,12.938-2.994,23.739c0,0-1.011,9.242-3.693,9.242
			s-3.694-9.242-3.694-9.242s-1.133,0-1.939,0c-1.556,10.27-2.582,20.318-11.312,24.221c-8.729,3.903-20.608,11.477-26.258,20.047
			c5.342,8.776-9.602,21.926-9.602,21.926s-1.011,9.243-3.693,9.243v106.707H58.24h50.596h50.599h22.538V221.287
			C179.287,221.287,178.276,212.044,178.276,212.044z"/>
	</g>
	
		<line fill="none" stroke="#45929D" stroke-linecap="round" stroke-linejoin="round" stroke-miterlimit="10" x1="89.938" y1="166.96" x2="97.565" y2="173.679"/>
	
		<line fill="none" stroke="#45929D" stroke-linecap="round" stroke-linejoin="round" stroke-miterlimit="10" x1="92.472" y1="188.424" x2="85.142" y2="181.514"/>
	
		<line fill="none" stroke="#45929D" stroke-linecap="round" stroke-linejoin="round" stroke-miterlimit="10" x1="71.247" y1="184.596" x2="78.476" y2="191.857"/>
	
		<line fill="none" stroke="#45929D" stroke-linecap="round" stroke-linejoin="round" stroke-miterlimit="10" x1="74.739" y1="205.54" x2="66.917" y2="198.307"/>
	
		<line fill="none" stroke="#45929D" stroke-linecap="round" stroke-linejoin="round" stroke-miterlimit="10" x1="53.173" y1="203.314" x2="61.294" y2="210.548"/>
	
		<line fill="none" stroke="#45929D" stroke-linecap="round" stroke-linejoin="round" stroke-miterlimit="10" x1="127.731" y1="166.96" x2="120.104" y2="173.679"/>
	
		<line fill="none" stroke="#45929D" stroke-linecap="round" stroke-linejoin="round" stroke-miterlimit="10" x1="125.198" y1="188.424" x2="132.528" y2="181.514"/>
	
		<line fill="none" stroke="#45929D" stroke-linecap="round" stroke-linejoin="round" stroke-miterlimit="10" x1="146.423" y1="184.596" x2="139.194" y2="191.857"/>
	
		<line fill="none" stroke="#45929D" stroke-linecap="round" stroke-linejoin="round" stroke-miterlimit="10" x1="142.931" y1="205.54" x2="150.753" y2="198.307"/>
	
		<line fill="none" stroke="#45929D" stroke-linecap="round" stroke-linejoin="round" stroke-miterlimit="10" x1="164.498" y1="203.314" x2="156.376" y2="210.548"/>
	
		<rect x="69.829" y="239.979" fill="none" stroke="#45929D" stroke-linecap="round" stroke-linejoin="round" stroke-miterlimit="10" width="7.898" height="12.571"/>
	
		<rect x="139.942" y="239.979" fill="none" stroke="#45929D" stroke-linecap="round" stroke-linejoin="round" stroke-miterlimit="10" width="7.897" height="12.571"/>
</g>
</svg>
