<?xml version="1.0" encoding="utf-8"?>
<!-- Generator: Adobe Illustrator 16.0.0, SVG Export Plug-In . SVG Version: 6.00 Build 0)  -->
<!DOCTYPE svg PUBLIC "-//W3C//DTD SVG 1.1//EN" "http://www.w3.org/Graphics/SVG/1.1/DTD/svg11.dtd">
<svg version="1.1" id="Layer_1" xmlns="http://www.w3.org/2000/svg" xmlns:xlink="http://www.w3.org/1999/xlink" x="0px" y="0px"
	 width="380.957px" height="183.154px" viewBox="0 0 380.957 183.154" enable-background="new 0 0 380.957 183.154"
	 xml:space="preserve">
<g>
	<path fill="#1D4E56" d="M77.807,37.348v78.628H62.924v-36.03L38.288,114.95h-0.206L14.37,82.205v33.772H0V37.348h0.103l38.289,54.3
		l39.211-54.3H77.807z"/>
	<path fill="#1D4E56" d="M97.875,59.109c3.454-5.953,8.143-10.691,14.063-14.216c5.919-3.524,12.335-5.287,19.246-5.287
		c6.912,0,13.327,1.763,19.246,5.287c5.92,3.525,10.642,8.263,14.166,14.216c3.524,5.955,5.286,12.354,5.286,19.196
		c0,6.98-1.762,13.413-5.286,19.297c-3.524,5.887-8.246,10.557-14.166,14.012c-5.919,3.456-12.334,5.183-19.246,5.183
		c-6.98,0-13.414-1.728-19.298-5.183c-5.887-3.455-10.557-8.125-14.011-14.012c-3.457-5.884-5.185-12.317-5.185-19.297
		C92.69,71.462,94.418,65.063,97.875,59.109z M111.219,90.417c2.087,3.696,4.927,6.621,8.519,8.776
		c3.595,2.156,7.579,3.233,11.96,3.233c4.243,0,8.108-1.078,11.599-3.233c3.49-2.155,6.227-5.063,8.212-8.725
		c1.984-3.66,2.978-7.715,2.978-12.164c0-4.517-1.026-8.623-3.081-12.318c-2.052-3.695-4.842-6.62-8.363-8.776
		c-3.527-2.155-7.443-3.233-11.756-3.233c-4.31,0-8.229,1.079-11.751,3.233c-3.525,2.156-6.314,5.082-8.367,8.776
		c-2.052,3.696-3.079,7.802-3.079,12.318C108.088,82.685,109.131,86.722,111.219,90.417z"/>
	<path fill="#308183" d="M231.831,1.654l-36.86,84.886l-22.618-50.35l-20.073-0.035v-14.97l31.193,0.001L195.585,50.1l19.703-48.446
		H231.831z"/>
	<path fill="#1D4E56" d="M224.952,59.109c3.455-5.953,8.143-10.691,14.063-14.216c5.918-3.524,12.333-5.287,19.247-5.287
		c6.911,0,13.326,1.763,19.246,5.287c5.918,3.525,10.641,8.263,14.166,14.216c3.523,5.955,5.286,12.354,5.286,19.196
		c0,6.98-1.763,13.413-5.286,19.297c-3.525,5.887-8.248,10.557-14.166,14.012c-5.92,3.456-12.335,5.183-19.246,5.183
		c-6.98,0-13.413-1.728-19.297-5.183c-5.888-3.455-10.559-8.125-14.014-14.012c-3.455-5.884-5.183-12.317-5.183-19.297
		C219.77,71.462,221.497,65.063,224.952,59.109z M238.298,90.417c2.086,3.696,4.927,6.621,8.521,8.776
		c3.591,2.156,7.576,3.233,11.957,3.233c4.241,0,8.109-1.078,11.6-3.233c3.49-2.155,6.227-5.063,8.211-8.725
		c1.985-3.66,2.978-7.715,2.978-12.164c0-4.517-1.027-8.623-3.079-12.318c-2.054-3.695-4.844-6.62-8.367-8.776
		c-3.524-2.155-7.44-3.233-11.753-3.233c-4.311,0-8.229,1.079-11.754,3.233c-3.525,2.156-6.311,5.082-8.364,8.776
		c-2.054,3.696-3.08,7.802-3.08,12.318C235.166,82.685,236.209,86.722,238.298,90.417z"/>
	<path fill="#1D4E56" d="M379.899,40.427v78.628h-0.411l-52.864-47.731l0.308,44.652h-15.089V37.451h0.615l52.763,48.45
		l-0.309-45.473H379.899z"/>
</g>
<g>
	<path fill="#1D4E56" d="M23.116,161.917c1.828,1.954,2.741,4.299,2.741,7.032c0,2.397-0.619,4.457-1.859,6.181
		c-1.241,1.724-2.892,3.028-4.95,3.911c-2.062,0.883-4.29,1.324-6.688,1.324H1.828v-44.277h8.766c4.289,0,7.516,0.894,9.683,2.68
		c2.165,1.789,3.249,4.659,3.249,8.61c0,2.565-0.6,4.825-1.799,6.781c-1.198,1.956-2.994,3.27-5.394,3.942
		C19.024,158.69,21.285,159.961,23.116,161.917z M3.089,157.596h9.084c3.445,0,5.991-0.915,7.63-2.743
		c1.64-1.83,2.461-4.3,2.461-7.412c0-6.77-3.87-10.154-11.606-10.154H3.089V157.596z M21.066,176.581
		c2.354-1.766,3.531-4.247,3.531-7.443c0-2.271-0.6-4.184-1.799-5.74c-1.2-1.555-2.742-2.711-4.635-3.469s-3.871-1.135-5.93-1.135
		H3.089v20.435h9.146C15.767,179.229,18.709,178.348,21.066,176.581z"/>
	<path fill="#1D4E56" d="M63.196,163.777H42.132l-6.561,16.588h-1.26l18.353-46.295h0.127l18.354,46.295h-1.389L63.196,163.777z
		 M62.755,162.641l-10.027-25.544l-10.154,25.544H62.755z"/>
	<path fill="#1D4E56" d="M107.666,180.365l-12.301-20.499c-1.43,0.337-2.945,0.505-4.54,0.505h-7.003v19.994h-1.261v-44.277h9.082
		c1.893,0,3.836,0.409,5.834,1.23c1.998,0.819,3.669,2.112,5.016,3.878c1.345,1.766,2.016,3.995,2.016,6.685
		c0,2.65-0.64,5.037-1.923,7.159c-1.282,2.125-3.269,3.627-5.961,4.51l12.49,20.813H107.666z M100.349,155.894
		c1.934-2.187,2.9-4.835,2.9-7.948c0-2.06-0.516-3.9-1.545-5.519c-1.03-1.618-2.428-2.881-4.195-3.785
		c-1.766-0.904-3.698-1.355-5.802-1.355h-7.885v21.885h6.812C95.175,159.172,98.415,158.08,100.349,155.894z"/>
	<path fill="#1D4E56" d="M140.902,180.871c-4.372,0-8.261-1.01-11.667-3.028c-3.406-2.018-6.044-4.73-7.917-8.137
		c-1.871-3.405-2.805-7.147-2.805-11.227c0-4.205,1.009-8.062,3.027-11.574c2.018-3.51,4.739-6.276,8.168-8.294
		c3.427-2.019,7.2-3.028,11.32-3.028c4.165,0,8.051,1.072,11.668,3.216l-0.63,1.073c-3.49-2.06-7.171-3.091-11.038-3.091
		c-3.826,0-7.37,0.968-10.628,2.901c-3.259,1.935-5.846,4.573-7.759,7.916c-1.912,3.343-2.868,6.992-2.868,10.944
		c0,3.784,0.872,7.295,2.616,10.533s4.228,5.813,7.442,7.726c3.219,1.916,6.909,2.87,11.069,2.87c3.871,0,7.549-1.028,11.04-3.09
		l0.755,1.073C149.08,179.797,145.149,180.871,140.902,180.871z"/>
	<path fill="#1D4E56" d="M191.297,136.088v1.199h-25.164v20.12h22.703v1.198h-22.703v20.563h26.048v1.197H164.87v-44.277H191.297z"
		/>
	<path fill="#1D4E56" d="M205.93,136.088v43.08h25.354v1.197H204.67v-44.277H205.93z"/>
	<path fill="#1D4E56" d="M242.007,146.937c2.02-3.49,4.765-6.254,8.23-8.294c3.471-2.04,7.243-3.059,11.323-3.059
		c4.078,0,7.864,1.02,11.354,3.059c3.489,2.04,6.254,4.804,8.294,8.294c2.038,3.491,3.059,7.275,3.059,11.352
		c0,4.08-1.021,7.854-3.059,11.322c-2.04,3.47-4.805,6.213-8.294,8.231c-3.489,2.019-7.275,3.028-11.354,3.028
		c-4.122,0-7.904-0.978-11.353-2.934c-3.45-1.955-6.182-4.645-8.201-8.073c-2.018-3.426-3.025-7.285-3.025-11.574
		C238.981,154.212,239.989,150.428,242.007,146.937z M243.112,169.013c1.913,3.279,4.487,5.876,7.726,7.789
		c3.237,1.916,6.749,2.87,10.533,2.87c3.909,0,7.527-0.955,10.849-2.87c3.321-1.912,5.95-4.509,7.884-7.789
		c1.933-3.28,2.901-6.854,2.901-10.724c0-3.825-0.969-7.389-2.901-10.69c-1.934-3.3-4.551-5.929-7.851-7.884
		c-3.303-1.955-6.867-2.933-10.692-2.933c-3.953,0-7.56,0.988-10.816,2.964c-3.26,1.978-5.824,4.626-7.695,7.948
		s-2.807,6.875-2.807,10.659C240.242,162.18,241.197,165.732,243.112,169.013z"/>
	<path fill="#1D4E56" d="M332.644,136.088v45.097h-0.063l-35.007-42.448l0.063,41.627h-1.262v-44.971h0.063l35.007,42.512v-41.818
		H332.644z"/>
	<path fill="#1D4E56" d="M373.01,163.777h-21.066l-6.559,16.588h-1.264l18.356-46.295h0.125l18.354,46.295h-1.389L373.01,163.777z
		 M372.568,162.641l-10.027-25.544l-10.155,25.544H372.568z"/>
</g>
</svg>
